<svg width="1086" height="622" viewBox="0 0 1086 622" fill="none" xmlns="http://www.w3.org/2000/svg">
<g clip-path="url(#clip0_1_4)">
<path d="M279.012 178.594C333.406 178.594 377.501 138.614 377.501 89.2969C377.501 39.9796 333.406 0 279.012 0C224.618 0 180.522 39.9796 180.522 89.2969C180.522 138.614 224.618 178.594 279.012 178.594Z" fill="#FF6584"/>
<path d="M1086 39.2558V274.123C1086 465.58 914.818 620.777 703.661 620.767H0V385.9C0 260.395 73.5689 150.458 183.752 89.6255C202.739 79.1328 222.706 70.1735 243.424 62.851C255.616 58.5325 268.048 54.7951 280.671 51.6542C280.917 51.5797 281.175 51.5159 281.422 51.4628C285.151 50.5412 288.904 49.6693 292.681 48.847C292.892 48.7938 293.091 48.7513 293.302 48.7088C316.577 43.6808 340.32 40.6441 364.22 39.6386C367.047 39.5216 369.873 39.4259 372.723 39.3728C373.744 39.3409 374.776 39.3196 375.819 39.3196C377.977 39.2771 380.147 39.2558 382.328 39.2558H1086Z" fill="#090814"/>
<path opacity="0.199" d="M1086 39.2558V274.123C1086 465.58 914.818 620.777 703.661 620.767H0V385.9C0 260.395 73.5689 150.458 183.752 89.6255C202.739 79.1328 222.706 70.1735 243.424 62.851C255.616 58.5325 268.048 54.7951 280.671 51.6542C280.917 51.5797 281.175 51.5159 281.422 51.4628C285.151 50.5412 288.904 49.6693 292.681 48.847C292.892 48.7938 293.091 48.7513 293.302 48.7088C316.577 43.6808 340.32 40.6441 364.22 39.6386C367.047 39.5216 369.873 39.4259 372.723 39.3728C373.744 39.3409 374.776 39.3196 375.819 39.3196C377.977 39.2771 380.147 39.2558 382.328 39.2558H1086Z" fill="#8B8989"/>
<path d="M494.927 495.227C222.161 495.227 0.939377 551.945 0.0117035 622H989.843C988.916 551.945 767.694 495.227 494.927 495.227Z" fill="#D6D6E3"/>
<g opacity="0.1">
<path d="M412.821 603.51C464.638 603.51 506.644 592.931 506.644 579.881C506.644 566.831 464.638 556.251 412.821 556.251C361.004 556.251 318.998 566.831 318.998 579.881C318.998 592.931 361.004 603.51 412.821 603.51Z" fill="black"/>
</g>
<g opacity="0.1">
<path d="M615.713 560.977C667.53 560.977 709.536 550.398 709.536 537.348C709.536 524.298 667.53 513.719 615.713 513.719C563.896 513.719 521.89 524.298 521.89 537.348C521.89 550.398 563.896 560.977 615.713 560.977Z" fill="black"/>
</g>
<g opacity="0.1">
<path d="M412.821 601.147C459.456 601.147 497.261 591.626 497.261 579.881C497.261 568.135 459.456 558.614 412.821 558.614C366.186 558.614 328.38 568.135 328.38 579.881C328.38 591.626 366.186 601.147 412.821 601.147Z" fill="black"/>
</g>
<g opacity="0.1">
<path d="M615.713 558.614C662.348 558.614 700.153 549.093 700.153 537.348C700.153 525.603 662.348 516.081 615.713 516.081C569.077 516.081 531.272 525.603 531.272 537.348C531.272 549.093 569.077 558.614 615.713 558.614Z" fill="black"/>
</g>
<path d="M161.845 141.377C166.378 141.377 170.054 138.045 170.054 133.934C170.054 129.823 166.378 126.491 161.845 126.491C157.311 126.491 153.635 129.823 153.635 133.934C153.635 138.045 157.311 141.377 161.845 141.377Z" fill="#F2F2F2"/>
<path d="M867.862 432.728C872.396 432.728 876.071 429.396 876.071 425.285C876.071 421.174 872.396 417.842 867.862 417.842C863.328 417.842 859.652 421.174 859.652 425.285C859.652 429.396 863.328 432.728 867.862 432.728Z" fill="#F2F2F2"/>
<path d="M480.842 193.48C485.376 193.48 489.052 190.148 489.052 186.037C489.052 181.926 485.376 178.594 480.842 178.594C476.308 178.594 472.633 181.926 472.633 186.037C472.633 190.148 476.308 193.48 480.842 193.48Z" fill="#F2F2F2"/>
<path d="M887.799 145.631C890.39 145.631 892.49 143.727 892.49 141.377C892.49 139.028 890.39 137.124 887.799 137.124C885.208 137.124 883.108 139.028 883.108 141.377C883.108 143.727 885.208 145.631 887.799 145.631Z" fill="#8B8989"/>
<path d="M180.609 358.296C183.2 358.296 185.3 356.391 185.3 354.042C185.3 351.693 183.2 349.789 180.609 349.789C178.018 349.789 175.918 351.693 175.918 354.042C175.918 356.391 178.018 358.296 180.609 358.296Z" fill="#8B8989"/>
<path d="M110.242 443.704H108.105V441.767H107.688V443.704H105.551V444.082H107.688V446.02H108.105V444.082H110.242V443.704Z" fill="#F2F2F2"/>
<path d="M796.322 286.332H794.185V284.395H793.768V286.332H791.631V286.71H793.768V288.648H794.185V286.71H796.322V286.332Z" fill="#F2F2F2"/>
<path d="M973.412 254.432H971.276V252.495H970.858V254.432H968.721V254.811H970.858V256.748H971.276V254.811H973.412V254.432Z" fill="#F2F2F2"/>
<path d="M592.257 339.498H590.12V337.561H589.703V339.498H587.566V339.877H589.703V341.814H590.12V339.877H592.257V339.498Z" fill="#F2F2F2"/>
<path d="M921.81 350.131H919.673V348.194H919.256V350.131H917.119V350.51H919.256V352.447H919.673V350.51H921.81V350.131Z" fill="#F2F2F2"/>
<path d="M524.235 395.854H522.099V393.917H521.681V395.854H519.544V396.233H521.681V398.17H522.099V396.233H524.235V395.854Z" fill="#F2F2F2"/>
<path d="M674.352 397.981H672.215V396.044H671.798V397.981H669.661V398.36H671.798V400.297H672.215V398.36H674.352V397.981Z" fill="#F2F2F2"/>
<path d="M112.587 217.216H110.451V215.279H110.033V217.216H107.896V217.594H110.033V219.532H110.451V217.594H112.587V217.216Z" fill="#F2F2F2"/>
<path d="M717.45 234.999L686.432 299.796L692.5 308.965L690.477 312.021L704.636 318.745V315.078L710.031 313.855L732.954 275.955L717.45 234.999Z" fill="#D6D6E3"/>
<path d="M693.178 311.41C693.178 311.41 670.254 343.809 695.875 348.699C721.496 353.589 700.594 314.466 700.594 314.466L693.178 311.41Z" fill="#D6D6E3"/>
<path d="M726.214 296.739L718.122 320.579L714.751 351.144L708.683 362.147L715.425 411.662L726.215 421.444L730.934 470.348V492.358L743.745 512.531L727.245 533.753C726.466 534.75 726.001 535.92 725.897 537.138C725.794 538.356 726.056 539.577 726.656 540.671C727.256 541.765 728.172 542.691 729.306 543.351C730.44 544.011 731.75 544.38 733.097 544.419C736.738 544.506 741.541 543.568 747.786 540.644C767.339 531.475 766.668 522.916 766.668 522.916C766.668 522.916 778.804 522.916 779.478 514.359C780.153 505.801 772.062 444.671 772.062 444.671L764.645 418.386V346.865H767.342L768.691 407.994L774.759 430.612L775.433 440.395L784.199 538.202C784.199 538.202 823.303 547.984 825.326 540.036C827.349 532.087 810.494 527.198 810.494 527.198L820.607 509.47V475.236L817.236 467.899L821.281 427.471V408.605L826.676 402.492V353.589L819.933 334.64L817.91 318.746L807.121 294.29C807.121 294.29 757.902 279.623 726.214 296.739Z" fill="#F2F2F2"/>
<path d="M813.862 158.587C813.862 165.94 811.937 173.188 808.246 179.735C804.555 186.281 799.202 191.94 792.628 196.246C786.055 200.552 778.448 203.381 770.433 204.502C762.418 205.623 754.225 205.003 746.526 202.694C738.826 200.384 731.842 196.45 726.146 191.216C720.451 185.982 716.207 179.597 713.763 172.586C711.32 165.575 710.746 158.139 712.09 150.888C713.434 143.637 716.657 136.779 721.495 130.877L721.509 130.864C727.936 123.026 736.924 117.223 747.197 114.281C757.47 111.34 768.504 111.409 778.731 114.478C788.958 117.548 797.857 123.463 804.164 131.381C810.471 139.299 813.865 148.819 813.863 158.586L813.862 158.587Z" fill="#8B8989"/>
<path d="M822.348 143.039L803.749 158.587C772.337 84.6576 722.371 130.071 721.507 130.865C726.671 124.57 733.509 119.562 741.384 116.31C749.259 113.057 757.914 111.666 766.542 112.266C784.081 113.486 814.123 128.939 822.342 143.039H822.348Z" fill="#F2F2F2"/>
<path d="M800.905 127.717L807.929 149.823C807.929 149.823 793.348 189.446 725.733 190.827L723.516 196.487L716.1 198.322L712.729 211.159L722.168 292.461C722.168 292.461 718.123 300.408 724.865 299.798C724.865 299.798 769.363 286.35 807.794 298.575C807.794 298.575 815.886 301.631 813.862 294.908C813.862 294.908 840.836 279.626 838.808 263.732C836.781 247.839 840.831 173.873 840.831 173.873C840.831 173.873 844.876 152.477 832.739 147.587C832.74 147.584 814.916 124.965 800.905 127.717Z" fill="#F2F2F2"/>
<path d="M786.119 282.181C786.119 282.181 743.877 286.027 755.57 307.266C767.263 328.504 788.085 289.347 788.085 289.347L786.119 282.181Z" fill="#D6D6E3"/>
<path d="M807.794 187.313C807.794 187.313 800.377 195.26 803.075 208.097C805.772 220.933 815.885 249.664 815.885 249.664L780.151 279.617L790.941 293.065L839.48 270.453L850.27 264.34C847.587 239.616 840.913 215.382 830.459 192.417L828.7 188.541C828.7 188.541 815.885 183.651 807.794 187.313Z" fill="#D6D6E3"/>
<path d="M564.11 200.203H561.973V198.265H561.556V200.203H559.419V200.581H561.556V202.519H561.973V200.581H564.11V200.203Z" fill="#F2F2F2"/>
<path d="M756.447 140.657H754.31V138.719H753.893V140.657H751.756V141.035H753.893V142.972H754.31V141.035H756.447V140.657Z" fill="#F2F2F2"/>
<path d="M735.337 158.733H733.2V156.796H732.783V158.733H730.646V159.112H732.783V161.049H733.2V159.112H735.337V158.733Z" fill="#F2F2F2"/>
<path d="M652.069 113.731C654.66 113.731 656.76 111.827 656.76 109.478C656.76 107.129 654.66 105.224 652.069 105.224C649.478 105.224 647.378 107.129 647.378 109.478C647.378 111.827 649.478 113.731 652.069 113.731Z" fill="#F2F2F2"/>
<path d="M992.189 39.2558H989.843C990.012 62.2866 1000.21 84.3236 1018.22 100.564C1036.24 116.805 1060.6 125.933 1086 125.959V123.833C1061.22 123.808 1037.45 114.905 1019.88 99.0624C1002.31 83.2202 992.356 61.7231 992.189 39.2558Z" fill="#8B8989"/>
<path d="M948.796 39.2558H946.45C946.628 72.7185 961.405 104.758 987.552 128.375C1013.7 151.992 1049.09 165.268 1086 165.302V163.176C1049.71 163.139 1014.92 150.086 989.213 126.868C963.507 103.651 948.976 72.1538 948.796 39.2558Z" fill="#8B8989"/>
<path d="M904.218 39.2558H901.873C902.166 131.084 984.648 205.709 1086 205.709V203.582C985.938 203.582 904.511 129.915 904.218 39.2558Z" fill="#8B8989"/>
<path d="M280.296 376.372C284.83 376.372 288.505 373.04 288.505 368.929C288.505 364.818 284.83 361.486 280.296 361.486C275.762 361.486 272.086 364.818 272.086 368.929C272.086 373.04 275.762 376.372 280.296 376.372Z" fill="#F2F2F2"/>
<path d="M391.711 215.468H389.574V217.405H389.156V215.468H387.019V215.089H389.156V213.152H389.574V215.089H391.711V215.468Z" fill="#F2F2F2"/>
<path d="M323.689 159.112H321.552V161.049H321.135V159.112H318.998V158.733H321.135V156.796H321.552V158.733H323.689V159.112Z" fill="#F2F2F2"/>
<path d="M363.564 354.763H361.427V356.701H361.009V354.763H358.873V354.385H361.009V352.447H361.427V354.385H363.564V354.763Z" fill="#F2F2F2"/>
<path d="M190.938 250.281C191.5 252.031 192.344 253.781 193.469 255.531C194.594 257.281 195.844 259.031 197.219 260.781C198.594 262.469 199.969 264.188 201.344 265.938C202.719 267.688 203.938 269.469 205 271.281C205.5 272.094 205.844 272.938 206.031 273.812C206.219 274.625 206.312 275.406 206.312 276.156C206.312 277.719 205.969 279.125 205.281 280.375C204.656 281.562 203.781 282.562 202.656 283.375C201.531 284.188 200.219 284.812 198.719 285.25C197.281 285.625 195.719 285.812 194.031 285.812C192.344 285.812 190.594 285.719 188.781 285.531C187.031 285.281 185.438 284.969 184 284.594C182.625 284.156 181.469 283.656 180.531 283.094C179.656 282.469 179.219 281.781 179.219 281.031C179.219 280.344 179.406 279.688 179.781 279.062C180.219 278.438 180.781 278.125 181.469 278.125C181.594 278.125 182.125 278.25 183.062 278.5C184 278.75 185.125 279.031 186.438 279.344C187.812 279.594 189.25 279.844 190.75 280.094C192.312 280.344 193.75 280.469 195.062 280.469C196.688 280.469 197.969 280.062 198.906 279.25C199.906 278.375 200.406 277.156 200.406 275.594C200.406 274.719 200.156 273.844 199.656 272.969C199.219 272.031 198.562 271 197.688 269.875C196.812 268.75 195.781 267.5 194.594 266.125C193.406 264.688 192.125 263.031 190.75 261.156C188.375 257.969 186.688 255.281 185.688 253.094C184.688 250.906 184.188 248.812 184.188 246.812C184.188 244 185.031 241.781 186.719 240.156C188.469 238.531 191.312 237.719 195.25 237.719C196.562 237.719 197.938 237.844 199.375 238.094C200.875 238.281 202.25 238.594 203.5 239.031C204.75 239.406 205.781 239.906 206.594 240.531C207.406 241.094 207.812 241.75 207.812 242.5C207.812 243.125 207.625 243.688 207.25 244.188C206.875 244.688 206.375 244.938 205.75 244.938C205.438 244.938 204.906 244.844 204.156 244.656C203.406 244.469 202.5 244.281 201.438 244.094C200.438 243.844 199.344 243.625 198.156 243.438C197.031 243.25 195.969 243.156 194.969 243.156C191.906 243.156 190.375 244.5 190.375 247.188C190.375 248.125 190.562 249.156 190.938 250.281ZM226.938 260.781H224.5C223.438 261.344 222.625 262.094 222.062 263.031C221.5 263.969 221.062 264.969 220.75 266.031C220.5 267.031 220.344 268 220.281 268.938C220.219 269.875 220.188 270.625 220.188 271.188C220.188 272.438 220.344 273.625 220.656 274.75C221.031 275.875 221.531 276.875 222.156 277.75C222.844 278.562 223.625 279.219 224.5 279.719C225.375 280.219 226.375 280.469 227.5 280.469C229.5 280.469 231.031 280.031 232.094 279.156C233.219 278.281 234.031 277.188 234.531 275.875C235.094 274.562 235.438 273.156 235.562 271.656C235.688 270.094 235.75 268.656 235.75 267.344C235.625 266.531 235.344 265.719 234.906 264.906C234.469 264.031 233.906 263.281 233.219 262.656C232.594 262.031 231.875 261.531 231.062 261.156C230.312 260.719 229.531 260.5 228.719 260.5C228.094 260.5 227.5 260.594 226.938 260.781ZM239.688 277.094C239 279.969 237.469 282.156 235.094 283.656C232.719 285.156 230.094 285.906 227.219 285.906C225.156 285.906 223.312 285.469 221.688 284.594C220.125 283.656 218.812 282.469 217.75 281.031C216.688 279.531 215.875 277.875 215.312 276.062C214.812 274.188 214.562 272.312 214.562 270.438C214.562 268.938 214.75 267.312 215.125 265.562C215.5 263.75 216.094 262.094 216.906 260.594C217.719 259.094 218.781 257.844 220.094 256.844C221.406 255.781 223 255.25 224.875 255.25C225.875 255.25 226.562 255.344 226.938 255.531C227.25 255.469 227.531 255.438 227.781 255.438C228.031 255.438 228.312 255.438 228.625 255.438C231.562 255.438 233.875 256.062 235.562 257.312C237.25 258.562 238.594 260.188 239.594 262.188C240.656 264.125 241.5 266.281 242.125 268.656C242.75 271.031 243.5 273.312 244.375 275.5C244.625 276.25 245 277.094 245.5 278.031C246 278.906 246.5 279.781 247 280.656C247.5 281.531 247.906 282.312 248.219 283C248.594 283.688 248.781 284.219 248.781 284.594C248.781 285.281 248.531 285.812 248.031 286.188C247.531 286.562 246.969 286.75 246.344 286.75C245.719 286.75 245.062 286.5 244.375 286C243.75 285.438 243.125 284.719 242.5 283.844C241.938 282.969 241.406 281.938 240.906 280.75C240.406 279.562 240 278.344 239.688 277.094ZM264.625 257.594C265.625 256.969 266.781 256.531 268.094 256.281C269.469 256.031 270.875 255.906 272.312 255.906C274.312 256.031 276.031 256.375 277.469 256.938C278.906 257.5 280.094 258.344 281.031 259.469C281.969 260.531 282.656 261.938 283.094 263.688C283.531 265.375 283.75 267.469 283.75 269.969C283.75 272.531 283.625 274.938 283.375 277.188C283.125 279.375 282.781 281.312 282.344 283C281.906 284.625 281.375 285.906 280.75 286.844C280.188 287.844 279.531 288.344 278.781 288.344C278.219 288.344 277.719 288.156 277.281 287.781C276.844 287.406 276.625 286.812 276.625 286C276.625 285.188 276.719 284.156 276.906 282.906C277.156 281.594 277.406 280.219 277.656 278.781C277.969 277.281 278.219 275.781 278.406 274.281C278.656 272.719 278.781 271.281 278.781 269.969C278.781 268.156 278.625 266.719 278.312 265.656C278.062 264.531 277.656 263.656 277.094 263.031C276.594 262.344 275.938 261.875 275.125 261.625C274.312 261.312 273.375 261.094 272.312 260.969C271 260.969 269.688 261.188 268.375 261.625C267.062 262.062 265.938 262.281 265 262.281C264.438 262.281 263.969 262.062 263.594 261.625C263.281 261.188 263.125 260.688 263.125 260.125C263.125 259.688 263.219 259.25 263.406 258.812C263.656 258.312 264.062 257.906 264.625 257.594ZM260.5 256.656C260.5 260.781 260.531 264.969 260.594 269.219C260.656 273.406 260.938 277.219 261.438 280.656V281.312C261.438 282.375 261.156 283.188 260.594 283.75C260.094 284.25 259.531 284.5 258.906 284.5C258.344 284.5 257.812 284.25 257.312 283.75C256.812 283.25 256.5 282.469 256.375 281.406C256.062 278.406 255.812 275.312 255.625 272.125C255.438 268.938 255.344 265.656 255.344 262.281C255.344 261.594 255.312 260.812 255.25 259.938C255.188 259.062 255.188 258.25 255.25 257.5C255.375 256.688 255.625 256.031 256 255.531C256.438 254.969 257.094 254.688 257.969 254.688C258.594 254.688 259.156 254.906 259.656 255.344C260.219 255.719 260.5 256.156 260.5 256.656ZM304.75 237.906C305.125 237.781 305.406 237.719 305.594 237.719C305.781 237.719 305.969 237.75 306.156 237.812C306.344 237.875 306.5 237.906 306.625 237.906C306.938 237.844 307.219 237.812 307.469 237.812C307.719 237.75 308 237.719 308.312 237.719C310.438 237.719 312 238.406 313 239.781C314 241.156 314.5 242.625 314.5 244.188C314.5 244.938 314.312 245.75 313.938 246.625C313.625 247.5 313.125 248.312 312.438 249.062C311.812 249.75 311 250.344 310 250.844C309.062 251.344 307.938 251.594 306.625 251.594C305.75 251.594 304.938 251.406 304.188 251.031C303.438 250.594 302.781 250.031 302.219 249.344C301.656 248.656 301.219 247.906 300.906 247.094C300.594 246.281 300.438 245.438 300.438 244.562C300.438 243.125 300.875 241.75 301.75 240.438C302.688 239.062 303.688 238.219 304.75 237.906ZM307 242.781H306.25C305.938 242.969 305.719 243.312 305.594 243.812C305.531 244.25 305.5 244.594 305.5 244.844C305.625 245.344 305.844 245.781 306.156 246.156C306.531 246.469 306.969 246.625 307.469 246.625C308.219 246.625 308.75 246.344 309.062 245.781C309.438 245.156 309.625 244.594 309.625 244.094C309.375 243.094 308.75 242.594 307.75 242.594C307.625 242.594 307.375 242.656 307 242.781ZM310.75 257.406C311.188 261.531 311.531 265.719 311.781 269.969C312.094 274.219 312.25 278.344 312.25 282.344C312.125 285.031 311.906 287.438 311.594 289.562C311.281 291.75 310.312 293.844 308.688 295.844C307.812 296.969 306.688 298.094 305.312 299.219C304 300.406 302.562 301.469 301 302.406C299.5 303.344 297.938 304.125 296.312 304.75C294.688 305.375 293.125 305.688 291.625 305.688C290.812 305.688 290.156 305.312 289.656 304.562C289.219 303.812 289 303.125 289 302.5C289 301.25 289.562 300.469 290.688 300.156C292 299.844 293.312 299.344 294.625 298.656C296 298.031 297.312 297.281 298.562 296.406C299.812 295.594 300.938 294.688 301.938 293.688C303 292.688 303.875 291.719 304.562 290.781C305.562 289.406 306.156 287.938 306.344 286.375C306.531 284.812 306.625 283.219 306.625 281.594C306.625 279.906 306.594 278.031 306.531 275.969C306.469 273.906 306.375 271.812 306.25 269.688C306.125 267.562 305.969 265.469 305.781 263.406C305.656 261.344 305.5 259.469 305.312 257.781C305.312 257.656 305.281 257.594 305.219 257.594C305.219 257.531 305.219 257.438 305.219 257.312C305.219 256.5 305.5 255.844 306.062 255.344C306.625 254.781 307.25 254.5 307.938 254.5C308.562 254.5 309.156 254.719 309.719 255.156C310.281 255.594 310.625 256.344 310.75 257.406ZM332.312 260.781H329.875C328.812 261.344 328 262.094 327.438 263.031C326.875 263.969 326.438 264.969 326.125 266.031C325.875 267.031 325.719 268 325.656 268.938C325.594 269.875 325.562 270.625 325.562 271.188C325.562 272.438 325.719 273.625 326.031 274.75C326.406 275.875 326.906 276.875 327.531 277.75C328.219 278.562 329 279.219 329.875 279.719C330.75 280.219 331.75 280.469 332.875 280.469C334.875 280.469 336.406 280.031 337.469 279.156C338.594 278.281 339.406 277.188 339.906 275.875C340.469 274.562 340.812 273.156 340.938 271.656C341.062 270.094 341.125 268.656 341.125 267.344C341 266.531 340.719 265.719 340.281 264.906C339.844 264.031 339.281 263.281 338.594 262.656C337.969 262.031 337.25 261.531 336.438 261.156C335.688 260.719 334.906 260.5 334.094 260.5C333.469 260.5 332.875 260.594 332.312 260.781ZM345.062 277.094C344.375 279.969 342.844 282.156 340.469 283.656C338.094 285.156 335.469 285.906 332.594 285.906C330.531 285.906 328.688 285.469 327.062 284.594C325.5 283.656 324.188 282.469 323.125 281.031C322.062 279.531 321.25 277.875 320.688 276.062C320.188 274.188 319.938 272.312 319.938 270.438C319.938 268.938 320.125 267.312 320.5 265.562C320.875 263.75 321.469 262.094 322.281 260.594C323.094 259.094 324.156 257.844 325.469 256.844C326.781 255.781 328.375 255.25 330.25 255.25C331.25 255.25 331.938 255.344 332.312 255.531C332.625 255.469 332.906 255.438 333.156 255.438C333.406 255.438 333.688 255.438 334 255.438C336.938 255.438 339.25 256.062 340.938 257.312C342.625 258.562 343.969 260.188 344.969 262.188C346.031 264.125 346.875 266.281 347.5 268.656C348.125 271.031 348.875 273.312 349.75 275.5C350 276.25 350.375 277.094 350.875 278.031C351.375 278.906 351.875 279.781 352.375 280.656C352.875 281.531 353.281 282.312 353.594 283C353.969 283.688 354.156 284.219 354.156 284.594C354.156 285.281 353.906 285.812 353.406 286.188C352.906 286.562 352.344 286.75 351.719 286.75C351.094 286.75 350.438 286.5 349.75 286C349.125 285.438 348.5 284.719 347.875 283.844C347.312 282.969 346.781 281.938 346.281 280.75C345.781 279.562 345.375 278.344 345.062 277.094ZM370 257.594C371 256.969 372.156 256.531 373.469 256.281C374.844 256.031 376.25 255.906 377.688 255.906C379.688 256.031 381.406 256.375 382.844 256.938C384.281 257.5 385.469 258.344 386.406 259.469C387.344 260.531 388.031 261.938 388.469 263.688C388.906 265.375 389.125 267.469 389.125 269.969C389.125 272.531 389 274.938 388.75 277.188C388.5 279.375 388.156 281.312 387.719 283C387.281 284.625 386.75 285.906 386.125 286.844C385.562 287.844 384.906 288.344 384.156 288.344C383.594 288.344 383.094 288.156 382.656 287.781C382.219 287.406 382 286.812 382 286C382 285.188 382.094 284.156 382.281 282.906C382.531 281.594 382.781 280.219 383.031 278.781C383.344 277.281 383.594 275.781 383.781 274.281C384.031 272.719 384.156 271.281 384.156 269.969C384.156 268.156 384 266.719 383.688 265.656C383.438 264.531 383.031 263.656 382.469 263.031C381.969 262.344 381.312 261.875 380.5 261.625C379.688 261.312 378.75 261.094 377.688 260.969C376.375 260.969 375.062 261.188 373.75 261.625C372.438 262.062 371.312 262.281 370.375 262.281C369.812 262.281 369.344 262.062 368.969 261.625C368.656 261.188 368.5 260.688 368.5 260.125C368.5 259.688 368.594 259.25 368.781 258.812C369.031 258.312 369.438 257.906 370 257.594ZM365.875 256.656C365.875 260.781 365.906 264.969 365.969 269.219C366.031 273.406 366.312 277.219 366.812 280.656V281.312C366.812 282.375 366.531 283.188 365.969 283.75C365.469 284.25 364.906 284.5 364.281 284.5C363.719 284.5 363.188 284.25 362.688 283.75C362.188 283.25 361.875 282.469 361.75 281.406C361.438 278.406 361.188 275.312 361 272.125C360.812 268.938 360.719 265.656 360.719 262.281C360.719 261.594 360.688 260.812 360.625 259.938C360.562 259.062 360.562 258.25 360.625 257.5C360.75 256.688 361 256.031 361.375 255.531C361.812 254.969 362.469 254.688 363.344 254.688C363.969 254.688 364.531 254.906 365.031 255.344C365.594 255.719 365.875 256.156 365.875 256.656ZM407.688 260.781H405.25C404.188 261.344 403.375 262.094 402.812 263.031C402.25 263.969 401.812 264.969 401.5 266.031C401.25 267.031 401.094 268 401.031 268.938C400.969 269.875 400.938 270.625 400.938 271.188C400.938 272.438 401.094 273.625 401.406 274.75C401.781 275.875 402.281 276.875 402.906 277.75C403.594 278.562 404.375 279.219 405.25 279.719C406.125 280.219 407.125 280.469 408.25 280.469C410.25 280.469 411.781 280.031 412.844 279.156C413.969 278.281 414.781 277.188 415.281 275.875C415.844 274.562 416.188 273.156 416.312 271.656C416.438 270.094 416.5 268.656 416.5 267.344C416.375 266.531 416.094 265.719 415.656 264.906C415.219 264.031 414.656 263.281 413.969 262.656C413.344 262.031 412.625 261.531 411.812 261.156C411.062 260.719 410.281 260.5 409.469 260.5C408.844 260.5 408.25 260.594 407.688 260.781ZM420.438 277.094C419.75 279.969 418.219 282.156 415.844 283.656C413.469 285.156 410.844 285.906 407.969 285.906C405.906 285.906 404.062 285.469 402.438 284.594C400.875 283.656 399.562 282.469 398.5 281.031C397.438 279.531 396.625 277.875 396.062 276.062C395.562 274.188 395.312 272.312 395.312 270.438C395.312 268.938 395.5 267.312 395.875 265.562C396.25 263.75 396.844 262.094 397.656 260.594C398.469 259.094 399.531 257.844 400.844 256.844C402.156 255.781 403.75 255.25 405.625 255.25C406.625 255.25 407.312 255.344 407.688 255.531C408 255.469 408.281 255.438 408.531 255.438C408.781 255.438 409.062 255.438 409.375 255.438C412.312 255.438 414.625 256.062 416.312 257.312C418 258.562 419.344 260.188 420.344 262.188C421.406 264.125 422.25 266.281 422.875 268.656C423.5 271.031 424.25 273.312 425.125 275.5C425.375 276.25 425.75 277.094 426.25 278.031C426.75 278.906 427.25 279.781 427.75 280.656C428.25 281.531 428.656 282.312 428.969 283C429.344 283.688 429.531 284.219 429.531 284.594C429.531 285.281 429.281 285.812 428.781 286.188C428.281 286.562 427.719 286.75 427.094 286.75C426.469 286.75 425.812 286.5 425.125 286C424.5 285.438 423.875 284.719 423.25 283.844C422.688 282.969 422.156 281.938 421.656 280.75C421.156 279.562 420.75 278.344 420.438 277.094ZM462.625 283.094C463.062 280.219 463.406 276.875 463.656 273.062C463.969 269.188 464.125 265.281 464.125 261.344C464.125 257.719 464 254.531 463.75 251.781C463.562 249.031 463.188 246.844 462.625 245.219C462.25 244.281 462.062 243.438 462.062 242.688C462.062 241.75 462.281 241 462.719 240.438C463.219 239.875 463.812 239.594 464.5 239.594C465.438 239.594 466.25 240.188 466.938 241.375C467.625 242.562 468.156 244.156 468.531 246.156C468.969 248.156 469.281 250.469 469.469 253.094C469.656 255.656 469.75 258.344 469.75 261.156C469.75 265.094 469.625 268.812 469.375 272.312C469.125 275.812 468.875 278.781 468.625 281.219C470.562 281.031 472.688 280.594 475 279.906C477.375 279.219 479.594 278.281 481.656 277.094C483.719 275.906 485.438 274.469 486.812 272.781C488.188 271.031 488.875 269 488.875 266.688C488.875 265 488.062 263.562 486.438 262.375C484.812 261.188 482.906 260.594 480.719 260.594C480.281 260.594 479.844 260.656 479.406 260.781C478.969 260.844 478.531 260.875 478.094 260.875C477.094 260.875 476.281 260.5 475.656 259.75C475.031 259 474.719 258.25 474.719 257.5C474.719 257.062 475.188 256.438 476.125 255.625C477.062 254.75 478.094 253.781 479.219 252.719C480.344 251.594 481.375 250.406 482.312 249.156C483.25 247.844 483.719 246.5 483.719 245.125C483.719 244.688 483.562 244.344 483.25 244.094C483 243.781 482.688 243.562 482.312 243.438C481.938 243.312 481.531 243.25 481.094 243.25C480.656 243.188 480.25 243.156 479.875 243.156C478.812 243.156 477.75 243.344 476.688 243.719C475.625 244.031 474.719 244.188 473.969 244.188C473.281 244.188 472.75 243.875 472.375 243.25C472 242.625 471.812 242 471.812 241.375C471.812 240.625 472.094 240 472.656 239.5C473.281 239 474.031 238.625 474.906 238.375C475.781 238.062 476.719 237.844 477.719 237.719C478.719 237.594 479.656 237.531 480.531 237.531C482.844 237.531 484.875 238.031 486.625 239.031C488.375 239.969 489.25 241.594 489.25 243.906C489.25 245.781 488.656 247.812 487.469 250C486.344 252.188 485 254.031 483.438 255.531C484.812 255.719 486.156 256.125 487.469 256.75C488.844 257.375 490.062 258.188 491.125 259.188C492.188 260.188 493.031 261.312 493.656 262.562C494.344 263.812 494.688 265.156 494.688 266.594C494.688 269.594 493.875 272.344 492.25 274.844C490.688 277.344 488.594 279.5 485.969 281.312C483.406 283.062 480.469 284.438 477.156 285.438C473.844 286.438 470.469 286.938 467.031 286.938C465.656 286.938 464.562 286.688 463.75 286.188C462.938 285.75 462.531 284.906 462.531 283.656C462.531 283.531 462.531 283.438 462.531 283.375C462.594 283.312 462.625 283.219 462.625 283.094ZM506.5 259.281C506.375 260.719 506.25 262.219 506.125 263.781C506.062 265.344 506.031 266.938 506.031 268.562C506.031 270.875 506.125 273.188 506.312 275.5C506.562 277.812 506.688 280.062 506.688 282.25C506.688 283.5 506.375 284.438 505.75 285.062C505.188 285.688 504.562 286 503.875 286C503.25 286 502.719 285.781 502.281 285.344C501.906 284.844 501.688 284.094 501.625 283.094C501.438 280.281 501.25 277.719 501.062 275.406C500.938 273.031 500.875 270.656 500.875 268.281C500.875 267.344 500.844 266.156 500.781 264.719C500.781 263.219 500.844 261.812 500.969 260.5C501.156 259.125 501.469 257.969 501.906 257.031C502.406 256.031 503.156 255.531 504.156 255.531C504.781 255.531 505.312 255.812 505.75 256.375C506.25 256.938 506.5 257.688 506.5 258.625V259.281ZM502 237.906C502.25 237.781 502.469 237.719 502.656 237.719C502.906 237.719 503.125 237.75 503.312 237.812C503.562 237.875 503.75 237.906 503.875 237.906C504.188 237.844 504.469 237.812 504.719 237.812C504.969 237.75 505.25 237.719 505.562 237.719C507.625 237.719 509.156 238.406 510.156 239.781C511.219 241.156 511.75 242.625 511.75 244.188C511.75 244.938 511.562 245.75 511.188 246.625C510.875 247.5 510.375 248.312 509.688 249.062C509.062 249.75 508.25 250.344 507.25 250.844C506.25 251.344 505.094 251.594 503.781 251.594C502.906 251.594 502.094 251.375 501.344 250.938C500.594 250.5 499.938 249.969 499.375 249.344C498.812 248.656 498.375 247.906 498.062 247.094C497.75 246.219 497.594 245.375 497.594 244.562C497.594 243.312 498 242 498.812 240.625C499.688 239.25 500.75 238.344 502 237.906ZM504.25 242.781H503.5C503.188 242.906 502.969 243.125 502.844 243.438C502.719 243.75 502.656 244.062 502.656 244.375C502.656 244.938 502.875 245.469 503.312 245.969C503.75 246.406 504.156 246.625 504.531 246.625C505.469 246.625 506.094 246.344 506.406 245.781C506.719 245.156 506.875 244.594 506.875 244.094C506.562 243.094 505.938 242.594 505 242.594C504.875 242.594 504.625 242.656 504.25 242.781ZM527.125 261.156C526 261.656 525.438 262.5 525.438 263.688C525.438 264.438 526 265.344 527.125 266.406C528.312 267.469 529.625 268.562 531.062 269.688C532.562 270.75 534 271.781 535.375 272.781C536.75 273.781 537.688 274.594 538.188 275.219C539.125 276.531 539.594 277.875 539.594 279.25C539.594 280.688 539.281 281.844 538.656 282.719C538.094 283.594 537.281 284.281 536.219 284.781C535.219 285.281 534.031 285.625 532.656 285.812C531.344 286 529.969 286.094 528.531 286.094C527.531 286.094 526.312 286.062 524.875 286C523.438 285.938 522.031 285.781 520.656 285.531C519.344 285.281 518.219 284.938 517.281 284.5C516.344 284 515.875 283.375 515.875 282.625C515.875 282 516.062 281.344 516.438 280.656C516.812 279.969 517.344 279.625 518.031 279.625C518.094 279.625 518.156 279.656 518.219 279.719C518.281 279.719 518.375 279.719 518.5 279.719C519.875 280.094 521.625 280.375 523.75 280.562C525.875 280.75 527.938 280.844 529.938 280.844C531 280.844 531.875 280.688 532.562 280.375C533.25 280 533.594 279.469 533.594 278.781C533.594 278.156 533.281 277.5 532.656 276.812C532.031 276.062 531.25 275.344 530.312 274.656C529.438 273.969 528.5 273.312 527.5 272.688C526.562 272.062 525.75 271.5 525.062 271C523.062 269.625 521.594 268.344 520.656 267.156C519.781 265.906 519.344 264.562 519.344 263.125C519.344 261.5 519.75 260.188 520.562 259.188C521.438 258.125 522.531 257.281 523.844 256.656C525.156 256.031 526.594 255.625 528.156 255.438C529.781 255.188 531.344 255.062 532.844 255.062C533.719 255.062 534.594 255.094 535.469 255.156C536.344 255.219 537.125 255.375 537.812 255.625C538.5 255.812 539.062 256.125 539.5 256.562C539.938 256.938 540.156 257.469 540.156 258.156C540.156 258.844 540 259.438 539.688 259.938C539.438 260.438 539 260.688 538.375 260.688C537.812 260.688 536.969 260.594 535.844 260.406C534.781 260.219 533.531 260.125 532.094 260.125C530.156 260.125 528.5 260.469 527.125 261.156ZM584.875 257.031C584.875 256.406 585.156 255.906 585.719 255.531C586.344 255.094 587.031 254.875 587.781 254.875C588.469 254.875 589.062 255.094 589.562 255.531C590.125 255.906 590.438 256.531 590.5 257.406C589.938 262.094 589.312 266.781 588.625 271.469C588 276.156 587.375 280.656 586.75 284.969C586.562 285.844 586.188 286.5 585.625 286.938C585.062 287.438 584.5 287.688 583.938 287.688C583.375 287.688 582.844 287.5 582.344 287.125C581.844 286.812 581.5 286.219 581.312 285.344C579.312 283.281 577.281 281.125 575.219 278.875C573.156 276.562 571.25 274.094 569.5 271.469C569.312 271.281 569.125 271.094 568.938 270.906C568.75 270.719 568.531 270.625 568.281 270.625C568.031 270.625 567.469 271.031 566.594 271.844C565.781 272.594 564.75 273.625 563.5 274.938C562.312 276.188 560.969 277.594 559.469 279.156C558.031 280.656 556.562 282.156 555.062 283.656C554.562 284.156 553.969 284.625 553.281 285.062C552.656 285.438 552.031 285.625 551.406 285.625C550.906 285.625 550.469 285.156 550.094 284.219C549.719 283.219 549.375 281.938 549.062 280.375C548.75 278.812 548.469 277.031 548.219 275.031C547.969 273.031 547.75 271 547.562 268.938C547.375 266.875 547.219 264.906 547.094 263.031C546.969 261.094 546.875 259.406 546.812 257.969C546.812 257.094 547.062 256.406 547.562 255.906C548.125 255.344 548.75 255.062 549.438 255.062C550.125 255.062 550.75 255.281 551.312 255.719C551.938 256.156 552.312 256.844 552.438 257.781C552.625 260.969 552.875 264.312 553.188 267.812C553.562 271.312 553.938 274.406 554.312 277.094L564.25 266.406C565.562 264.969 566.969 264.25 568.469 264.25C569.156 264.25 569.844 264.438 570.531 264.812C571.219 265.125 571.812 265.656 572.312 266.406C573.75 268.594 575.281 270.812 576.906 273.062C578.594 275.25 580.312 277.281 582.062 279.156C582.312 277.656 582.562 275.969 582.812 274.094C583.125 272.219 583.406 270.281 583.656 268.281C583.906 266.219 584.125 264.219 584.312 262.281C584.562 260.344 584.75 258.594 584.875 257.031ZM609.062 260.781H606.625C605.562 261.344 604.75 262.094 604.188 263.031C603.625 263.969 603.188 264.969 602.875 266.031C602.625 267.031 602.469 268 602.406 268.938C602.344 269.875 602.312 270.625 602.312 271.188C602.312 272.438 602.469 273.625 602.781 274.75C603.156 275.875 603.656 276.875 604.281 277.75C604.969 278.562 605.75 279.219 606.625 279.719C607.5 280.219 608.5 280.469 609.625 280.469C611.625 280.469 613.156 280.031 614.219 279.156C615.344 278.281 616.156 277.188 616.656 275.875C617.219 274.562 617.562 273.156 617.688 271.656C617.812 270.094 617.875 268.656 617.875 267.344C617.75 266.531 617.469 265.719 617.031 264.906C616.594 264.031 616.031 263.281 615.344 262.656C614.719 262.031 614 261.531 613.188 261.156C612.438 260.719 611.656 260.5 610.844 260.5C610.219 260.5 609.625 260.594 609.062 260.781ZM621.812 277.094C621.125 279.969 619.594 282.156 617.219 283.656C614.844 285.156 612.219 285.906 609.344 285.906C607.281 285.906 605.438 285.469 603.812 284.594C602.25 283.656 600.938 282.469 599.875 281.031C598.812 279.531 598 277.875 597.438 276.062C596.938 274.188 596.688 272.312 596.688 270.438C596.688 268.938 596.875 267.312 597.25 265.562C597.625 263.75 598.219 262.094 599.031 260.594C599.844 259.094 600.906 257.844 602.219 256.844C603.531 255.781 605.125 255.25 607 255.25C608 255.25 608.688 255.344 609.062 255.531C609.375 255.469 609.656 255.438 609.906 255.438C610.156 255.438 610.438 255.438 610.75 255.438C613.688 255.438 616 256.062 617.688 257.312C619.375 258.562 620.719 260.188 621.719 262.188C622.781 264.125 623.625 266.281 624.25 268.656C624.875 271.031 625.625 273.312 626.5 275.5C626.75 276.25 627.125 277.094 627.625 278.031C628.125 278.906 628.625 279.781 629.125 280.656C629.625 281.531 630.031 282.312 630.344 283C630.719 283.688 630.906 284.219 630.906 284.594C630.906 285.281 630.656 285.812 630.156 286.188C629.656 286.562 629.094 286.75 628.469 286.75C627.844 286.75 627.188 286.5 626.5 286C625.875 285.438 625.25 284.719 624.625 283.844C624.062 282.969 623.531 281.938 623.031 280.75C622.531 279.562 622.125 278.344 621.812 277.094ZM645.625 261.156C644.5 261.656 643.938 262.5 643.938 263.688C643.938 264.438 644.5 265.344 645.625 266.406C646.812 267.469 648.125 268.562 649.562 269.688C651.062 270.75 652.5 271.781 653.875 272.781C655.25 273.781 656.188 274.594 656.688 275.219C657.625 276.531 658.094 277.875 658.094 279.25C658.094 280.688 657.781 281.844 657.156 282.719C656.594 283.594 655.781 284.281 654.719 284.781C653.719 285.281 652.531 285.625 651.156 285.812C649.844 286 648.469 286.094 647.031 286.094C646.031 286.094 644.812 286.062 643.375 286C641.938 285.938 640.531 285.781 639.156 285.531C637.844 285.281 636.719 284.938 635.781 284.5C634.844 284 634.375 283.375 634.375 282.625C634.375 282 634.562 281.344 634.938 280.656C635.312 279.969 635.844 279.625 636.531 279.625C636.594 279.625 636.656 279.656 636.719 279.719C636.781 279.719 636.875 279.719 637 279.719C638.375 280.094 640.125 280.375 642.25 280.562C644.375 280.75 646.438 280.844 648.438 280.844C649.5 280.844 650.375 280.688 651.062 280.375C651.75 280 652.094 279.469 652.094 278.781C652.094 278.156 651.781 277.5 651.156 276.812C650.531 276.062 649.75 275.344 648.812 274.656C647.938 273.969 647 273.312 646 272.688C645.062 272.062 644.25 271.5 643.562 271C641.562 269.625 640.094 268.344 639.156 267.156C638.281 265.906 637.844 264.562 637.844 263.125C637.844 261.5 638.25 260.188 639.062 259.188C639.938 258.125 641.031 257.281 642.344 256.656C643.656 256.031 645.094 255.625 646.656 255.438C648.281 255.188 649.844 255.062 651.344 255.062C652.219 255.062 653.094 255.094 653.969 255.156C654.844 255.219 655.625 255.375 656.312 255.625C657 255.812 657.562 256.125 658 256.562C658.438 256.938 658.656 257.469 658.656 258.156C658.656 258.844 658.5 259.438 658.188 259.938C657.938 260.438 657.5 260.688 656.875 260.688C656.312 260.688 655.469 260.594 654.344 260.406C653.281 260.219 652.031 260.125 650.594 260.125C648.656 260.125 647 260.469 645.625 261.156Z" fill="white"/>
<path d="M169.139 320.5H167.29C167.18 319.968 166.989 319.501 166.716 319.098C166.447 318.695 166.119 318.357 165.731 318.084C165.348 317.805 164.923 317.597 164.456 317.457C163.989 317.318 163.501 317.249 162.994 317.249C162.07 317.249 161.232 317.482 160.481 317.95C159.735 318.417 159.141 319.105 158.699 320.015C158.261 320.925 158.043 322.041 158.043 323.364C158.043 324.686 158.261 325.802 158.699 326.712C159.141 327.622 159.735 328.31 160.481 328.778C161.232 329.245 162.07 329.479 162.994 329.479C163.501 329.479 163.989 329.409 164.456 329.27C164.923 329.131 165.348 328.924 165.731 328.651C166.119 328.373 166.447 328.032 166.716 327.629C166.989 327.222 167.18 326.754 167.29 326.227H169.139C169 327.008 168.746 327.706 168.379 328.323C168.011 328.939 167.553 329.464 167.006 329.896C166.46 330.324 165.846 330.65 165.164 330.873C164.488 331.097 163.765 331.209 162.994 331.209C161.692 331.209 160.533 330.891 159.519 330.254C158.505 329.618 157.707 328.713 157.125 327.54C156.544 326.366 156.253 324.974 156.253 323.364C156.253 321.753 156.544 320.361 157.125 319.188C157.707 318.014 158.505 317.109 159.519 316.473C160.533 315.837 161.692 315.518 162.994 315.518C163.765 315.518 164.488 315.63 165.164 315.854C165.846 316.078 166.46 316.406 167.006 316.838C167.553 317.266 168.011 317.788 168.379 318.404C168.746 319.016 169 319.714 169.139 320.5ZM180.48 319.545C180.391 318.79 180.028 318.203 179.391 317.786C178.755 317.368 177.974 317.159 177.05 317.159C176.373 317.159 175.782 317.268 175.275 317.487C174.773 317.706 174.38 318.007 174.097 318.39C173.818 318.772 173.679 319.207 173.679 319.695C173.679 320.102 173.776 320.453 173.97 320.746C174.169 321.034 174.422 321.276 174.73 321.469C175.039 321.658 175.362 321.815 175.7 321.939C176.038 322.059 176.349 322.156 176.632 322.23L178.183 322.648C178.581 322.752 179.023 322.896 179.511 323.08C180.003 323.264 180.473 323.515 180.92 323.833C181.372 324.147 181.745 324.549 182.039 325.042C182.332 325.534 182.479 326.138 182.479 326.854C182.479 327.679 182.262 328.425 181.83 329.091C181.402 329.757 180.776 330.287 179.951 330.679C179.13 331.072 178.133 331.268 176.96 331.268C175.866 331.268 174.919 331.092 174.119 330.739C173.323 330.386 172.697 329.894 172.24 329.262C171.787 328.631 171.531 327.898 171.472 327.062H173.381C173.43 327.639 173.624 328.116 173.962 328.494C174.305 328.867 174.738 329.146 175.26 329.33C175.787 329.509 176.354 329.598 176.96 329.598C177.666 329.598 178.3 329.484 178.862 329.255C179.424 329.021 179.869 328.698 180.197 328.286C180.525 327.868 180.689 327.381 180.689 326.824C180.689 326.317 180.547 325.904 180.264 325.586C179.98 325.268 179.608 325.009 179.145 324.81C178.683 324.612 178.183 324.437 177.646 324.288L175.767 323.751C174.574 323.408 173.629 322.919 172.933 322.282C172.237 321.646 171.889 320.813 171.889 319.784C171.889 318.929 172.12 318.183 172.583 317.547C173.05 316.906 173.676 316.408 174.462 316.055C175.252 315.697 176.135 315.518 177.109 315.518C178.094 315.518 178.969 315.695 179.734 316.048C180.5 316.396 181.106 316.873 181.554 317.48C182.006 318.086 182.245 318.775 182.27 319.545H180.48ZM185.519 331V315.727H194.737V317.368H187.369V322.528H194.259V324.169H187.369V329.359H194.856V331H185.519ZM213.999 315.727H215.849V325.839C215.849 326.884 215.602 327.816 215.11 328.636C214.623 329.451 213.934 330.095 213.045 330.567C212.155 331.035 211.111 331.268 209.912 331.268C208.714 331.268 207.67 331.035 206.78 330.567C205.89 330.095 205.199 329.451 204.707 328.636C204.22 327.816 203.976 326.884 203.976 325.839V315.727H205.826V325.69C205.826 326.436 205.99 327.1 206.318 327.681C206.646 328.258 207.113 328.713 207.72 329.046C208.331 329.374 209.062 329.538 209.912 329.538C210.763 329.538 211.493 329.374 212.105 329.046C212.716 328.713 213.184 328.258 213.507 327.681C213.835 327.1 213.999 326.436 213.999 325.69V315.727ZM221.063 324.109V331H219.303V319.545H221.003V321.335H221.153C221.421 320.754 221.829 320.286 222.376 319.933C222.922 319.575 223.628 319.396 224.494 319.396C225.269 319.396 225.948 319.555 226.529 319.874C227.111 320.187 227.563 320.664 227.887 321.305C228.21 321.942 228.371 322.747 228.371 323.722V331H226.611V323.841C226.611 322.941 226.378 322.24 225.91 321.738C225.443 321.231 224.802 320.977 223.986 320.977C223.425 320.977 222.922 321.099 222.48 321.343C222.043 321.586 221.697 321.942 221.443 322.409C221.19 322.876 221.063 323.443 221.063 324.109ZM235.913 331.239C234.958 331.239 234.115 330.998 233.385 330.515C232.654 330.028 232.082 329.342 231.669 328.457C231.257 327.567 231.05 326.516 231.05 325.303C231.05 324.099 231.257 323.055 231.669 322.17C232.082 321.286 232.656 320.602 233.392 320.12C234.128 319.637 234.978 319.396 235.942 319.396C236.688 319.396 237.277 319.521 237.71 319.769C238.147 320.013 238.48 320.291 238.709 320.604C238.943 320.913 239.124 321.166 239.254 321.365H239.403V315.727H241.163V331H239.462V329.24H239.254C239.124 329.449 238.94 329.712 238.702 330.031C238.463 330.344 238.123 330.625 237.68 330.873C237.238 331.117 236.648 331.239 235.913 331.239ZM236.151 329.658C236.857 329.658 237.454 329.474 237.941 329.106C238.428 328.733 238.799 328.218 239.052 327.562C239.306 326.901 239.433 326.138 239.433 325.273C239.433 324.418 239.308 323.669 239.06 323.028C238.811 322.382 238.443 321.88 237.956 321.522C237.469 321.159 236.867 320.977 236.151 320.977C235.406 320.977 234.784 321.169 234.287 321.551C233.795 321.929 233.424 322.444 233.176 323.095C232.932 323.741 232.81 324.467 232.81 325.273C232.81 326.088 232.935 326.829 233.183 327.495C233.437 328.156 233.81 328.683 234.302 329.076C234.799 329.464 235.415 329.658 236.151 329.658ZM249.433 331.239C248.329 331.239 247.377 330.995 246.577 330.508C245.781 330.016 245.167 329.33 244.735 328.45C244.307 327.565 244.093 326.536 244.093 325.362C244.093 324.189 244.307 323.155 244.735 322.26C245.167 321.36 245.769 320.659 246.539 320.157C247.315 319.65 248.22 319.396 249.254 319.396C249.85 319.396 250.44 319.496 251.021 319.695C251.603 319.893 252.132 320.217 252.61 320.664C253.087 321.107 253.467 321.693 253.751 322.424C254.034 323.155 254.176 324.055 254.176 325.124V325.869H245.346V324.348H252.386C252.386 323.702 252.257 323.125 251.998 322.618C251.745 322.111 251.382 321.711 250.909 321.417C250.442 321.124 249.89 320.977 249.254 320.977C248.553 320.977 247.946 321.151 247.434 321.499C246.927 321.842 246.537 322.29 246.263 322.842C245.99 323.393 245.853 323.985 245.853 324.616V325.631C245.853 326.496 246.002 327.229 246.301 327.831C246.604 328.427 247.024 328.882 247.561 329.195C248.098 329.504 248.722 329.658 249.433 329.658C249.895 329.658 250.313 329.593 250.686 329.464C251.064 329.33 251.389 329.131 251.663 328.867C251.936 328.599 252.147 328.266 252.297 327.868L253.997 328.345C253.818 328.922 253.517 329.429 253.094 329.866C252.672 330.299 252.15 330.637 251.528 330.881C250.907 331.119 250.208 331.239 249.433 331.239ZM256.853 331V319.545H258.553V321.276H258.673C258.881 320.709 259.259 320.249 259.806 319.896C260.353 319.543 260.969 319.366 261.656 319.366C261.785 319.366 261.946 319.369 262.14 319.374C262.334 319.379 262.481 319.386 262.58 319.396V321.186C262.521 321.171 262.384 321.149 262.17 321.119C261.961 321.084 261.74 321.067 261.506 321.067C260.95 321.067 260.452 321.184 260.015 321.417C259.582 321.646 259.239 321.964 258.986 322.372C258.737 322.775 258.613 323.234 258.613 323.751V331H256.853ZM268.941 335.534C268.091 335.534 267.36 335.425 266.749 335.206C266.137 334.992 265.628 334.709 265.22 334.356C264.817 334.008 264.497 333.635 264.258 333.237L265.66 332.253C265.819 332.462 266.021 332.7 266.264 332.969C266.508 333.242 266.841 333.478 267.263 333.677C267.691 333.881 268.25 333.983 268.941 333.983C269.866 333.983 270.629 333.759 271.231 333.312C271.832 332.864 272.133 332.163 272.133 331.209V328.882H271.984C271.855 329.091 271.671 329.349 271.432 329.658C271.199 329.961 270.86 330.232 270.418 330.471C269.98 330.704 269.389 330.821 268.643 330.821C267.718 330.821 266.888 330.602 266.152 330.165C265.422 329.727 264.842 329.091 264.415 328.256C263.992 327.42 263.781 326.406 263.781 325.213C263.781 324.04 263.987 323.018 264.4 322.148C264.813 321.273 265.387 320.597 266.123 320.12C266.858 319.637 267.708 319.396 268.673 319.396C269.419 319.396 270.01 319.521 270.448 319.769C270.89 320.013 271.228 320.291 271.462 320.604C271.701 320.913 271.885 321.166 272.014 321.365H272.193V319.545H273.893V331.328C273.893 332.312 273.669 333.113 273.222 333.729C272.779 334.351 272.183 334.806 271.432 335.094C270.686 335.387 269.856 335.534 268.941 335.534ZM268.882 329.24C269.588 329.24 270.184 329.078 270.672 328.755C271.159 328.432 271.529 327.967 271.783 327.361C272.036 326.754 272.163 326.028 272.163 325.183C272.163 324.358 272.039 323.63 271.79 322.998C271.542 322.367 271.174 321.872 270.686 321.514C270.199 321.156 269.598 320.977 268.882 320.977C268.136 320.977 267.515 321.166 267.017 321.544C266.525 321.922 266.155 322.429 265.906 323.065C265.663 323.702 265.541 324.408 265.541 325.183C265.541 325.979 265.665 326.682 265.914 327.294C266.167 327.9 266.54 328.377 267.032 328.725C267.529 329.069 268.146 329.24 268.882 329.24ZM277.115 331V319.545H278.815V321.276H278.934C279.143 320.709 279.521 320.249 280.068 319.896C280.615 319.543 281.231 319.366 281.917 319.366C282.047 319.366 282.208 319.369 282.402 319.374C282.596 319.379 282.743 319.386 282.842 319.396V321.186C282.782 321.171 282.646 321.149 282.432 321.119C282.223 321.084 282.002 321.067 281.768 321.067C281.211 321.067 280.714 321.184 280.277 321.417C279.844 321.646 279.501 321.964 279.248 322.372C278.999 322.775 278.875 323.234 278.875 323.751V331H277.115ZM288.299 331.268C287.573 331.268 286.914 331.132 286.323 330.858C285.731 330.58 285.261 330.18 284.913 329.658C284.565 329.131 284.391 328.494 284.391 327.749C284.391 327.092 284.521 326.56 284.779 326.153C285.038 325.74 285.383 325.417 285.816 325.183C286.248 324.95 286.725 324.776 287.247 324.661C287.774 324.542 288.304 324.447 288.836 324.378C289.532 324.288 290.096 324.221 290.529 324.176C290.966 324.127 291.284 324.045 291.483 323.93C291.687 323.816 291.789 323.617 291.789 323.334V323.274C291.789 322.538 291.588 321.967 291.185 321.559C290.787 321.151 290.183 320.947 289.373 320.947C288.533 320.947 287.874 321.131 287.397 321.499C286.919 321.867 286.584 322.26 286.39 322.678L284.719 322.081C285.018 321.385 285.415 320.843 285.913 320.455C286.415 320.062 286.962 319.789 287.553 319.635C288.15 319.476 288.736 319.396 289.313 319.396C289.681 319.396 290.104 319.441 290.581 319.531C291.063 319.615 291.528 319.792 291.975 320.06C292.428 320.328 292.803 320.734 293.101 321.276C293.4 321.817 293.549 322.543 293.549 323.453V331H291.789V329.449H291.699C291.58 329.697 291.381 329.963 291.103 330.247C290.824 330.53 290.454 330.771 289.992 330.97C289.529 331.169 288.965 331.268 288.299 331.268ZM288.567 329.688C289.263 329.688 289.85 329.551 290.327 329.277C290.81 329.004 291.172 328.651 291.416 328.218C291.665 327.786 291.789 327.331 291.789 326.854V325.243C291.714 325.332 291.55 325.414 291.297 325.489C291.048 325.559 290.76 325.621 290.432 325.675C290.109 325.725 289.793 325.77 289.485 325.81C289.181 325.844 288.935 325.874 288.746 325.899C288.289 325.959 287.861 326.056 287.464 326.19C287.071 326.319 286.753 326.516 286.509 326.779C286.271 327.038 286.151 327.391 286.151 327.838C286.151 328.45 286.377 328.912 286.83 329.225C287.287 329.533 287.866 329.688 288.567 329.688ZM301.086 331.239C300.132 331.239 299.289 330.998 298.558 330.515C297.828 330.028 297.256 329.342 296.843 328.457C296.431 327.567 296.224 326.516 296.224 325.303C296.224 324.099 296.431 323.055 296.843 322.17C297.256 321.286 297.83 320.602 298.566 320.12C299.302 319.637 300.152 319.396 301.116 319.396C301.862 319.396 302.451 319.521 302.884 319.769C303.321 320.013 303.654 320.291 303.883 320.604C304.117 320.913 304.298 321.166 304.427 321.365H304.577V315.727H306.336V331H304.636V329.24H304.427C304.298 329.449 304.114 329.712 303.876 330.031C303.637 330.344 303.296 330.625 302.854 330.873C302.411 331.117 301.822 331.239 301.086 331.239ZM301.325 329.658C302.031 329.658 302.628 329.474 303.115 329.106C303.602 328.733 303.972 328.218 304.226 327.562C304.48 326.901 304.606 326.138 304.606 325.273C304.606 324.418 304.482 323.669 304.233 323.028C303.985 322.382 303.617 321.88 303.13 321.522C302.643 321.159 302.041 320.977 301.325 320.977C300.579 320.977 299.958 321.169 299.461 321.551C298.969 321.929 298.598 322.444 298.35 323.095C298.106 323.741 297.984 324.467 297.984 325.273C297.984 326.088 298.108 326.829 298.357 327.495C298.611 328.156 298.983 328.683 299.476 329.076C299.973 329.464 300.589 329.658 301.325 329.658ZM318.276 310.805V335.922H316.784V310.805H318.276ZM328.725 331V315.727H337.883V317.368H330.575V322.528H337.197V324.169H330.575V331H328.725ZM347.313 326.317V319.545H349.073V331H347.313V329.061H347.194C346.925 329.643 346.508 330.137 345.941 330.545C345.374 330.948 344.658 331.149 343.793 331.149C343.077 331.149 342.441 330.993 341.884 330.679C341.327 330.361 340.89 329.884 340.571 329.248C340.253 328.606 340.094 327.798 340.094 326.824V319.545H341.854V326.705C341.854 327.54 342.088 328.206 342.555 328.703C343.027 329.2 343.629 329.449 344.36 329.449C344.797 329.449 345.242 329.337 345.695 329.113C346.152 328.89 346.535 328.547 346.843 328.084C347.156 327.622 347.313 327.033 347.313 326.317ZM354.056 315.727V331H352.296V315.727H354.056ZM359.04 315.727V331H357.28V315.727H359.04ZM376.76 319.545C376.671 318.79 376.308 318.203 375.672 317.786C375.035 317.368 374.255 317.159 373.33 317.159C372.654 317.159 372.062 317.268 371.555 317.487C371.053 317.706 370.66 318.007 370.377 318.39C370.098 318.772 369.959 319.207 369.959 319.695C369.959 320.102 370.056 320.453 370.25 320.746C370.449 321.034 370.702 321.276 371.011 321.469C371.319 321.658 371.642 321.815 371.98 321.939C372.318 322.059 372.629 322.156 372.912 322.23L374.463 322.648C374.861 322.752 375.304 322.896 375.791 323.08C376.283 323.264 376.753 323.515 377.2 323.833C377.653 324.147 378.026 324.549 378.319 325.042C378.612 325.534 378.759 326.138 378.759 326.854C378.759 327.679 378.543 328.425 378.11 329.091C377.683 329.757 377.056 330.287 376.231 330.679C375.411 331.072 374.414 331.268 373.24 331.268C372.147 331.268 371.2 331.092 370.399 330.739C369.604 330.386 368.977 329.894 368.52 329.262C368.067 328.631 367.811 327.898 367.752 327.062H369.661C369.711 327.639 369.904 328.116 370.243 328.494C370.586 328.867 371.018 329.146 371.54 329.33C372.067 329.509 372.634 329.598 373.24 329.598C373.946 329.598 374.58 329.484 375.142 329.255C375.704 329.021 376.149 328.698 376.477 328.286C376.805 327.868 376.969 327.381 376.969 326.824C376.969 326.317 376.827 325.904 376.544 325.586C376.261 325.268 375.888 325.009 375.425 324.81C374.963 324.612 374.463 324.437 373.926 324.288L372.047 323.751C370.854 323.408 369.909 322.919 369.213 322.282C368.517 321.646 368.169 320.813 368.169 319.784C368.169 318.929 368.401 318.183 368.863 317.547C369.33 316.906 369.957 316.408 370.742 316.055C371.533 315.697 372.415 315.518 373.39 315.518C374.374 315.518 375.249 315.695 376.015 316.048C376.78 316.396 377.387 316.873 377.834 317.48C378.287 318.086 378.525 318.775 378.55 319.545H376.76ZM386.543 319.545V321.037H380.606V319.545H386.543ZM382.337 316.801H384.097V327.719C384.097 328.216 384.169 328.589 384.313 328.837C384.462 329.081 384.651 329.245 384.88 329.33C385.113 329.409 385.359 329.449 385.618 329.449C385.812 329.449 385.971 329.439 386.095 329.419C386.219 329.394 386.319 329.374 386.393 329.359L386.751 330.94C386.632 330.985 386.465 331.03 386.252 331.075C386.038 331.124 385.767 331.149 385.439 331.149C384.942 331.149 384.454 331.042 383.977 330.828C383.505 330.615 383.112 330.289 382.799 329.852C382.491 329.414 382.337 328.862 382.337 328.196V316.801ZM392.561 331.268C391.835 331.268 391.176 331.132 390.584 330.858C389.993 330.58 389.523 330.18 389.175 329.658C388.827 329.131 388.653 328.494 388.653 327.749C388.653 327.092 388.782 326.56 389.041 326.153C389.299 325.74 389.645 325.417 390.077 325.183C390.51 324.95 390.987 324.776 391.509 324.661C392.036 324.542 392.566 324.447 393.098 324.378C393.794 324.288 394.358 324.221 394.79 324.176C395.228 324.127 395.546 324.045 395.745 323.93C395.949 323.816 396.051 323.617 396.051 323.334V323.274C396.051 322.538 395.849 321.967 395.447 321.559C395.049 321.151 394.445 320.947 393.634 320.947C392.794 320.947 392.136 321.131 391.658 321.499C391.181 321.867 390.845 322.26 390.652 322.678L388.981 322.081C389.279 321.385 389.677 320.843 390.174 320.455C390.676 320.062 391.223 319.789 391.815 319.635C392.411 319.476 392.998 319.396 393.575 319.396C393.943 319.396 394.365 319.441 394.843 319.531C395.325 319.615 395.79 319.792 396.237 320.06C396.69 320.328 397.065 320.734 397.363 321.276C397.661 321.817 397.811 322.543 397.811 323.453V331H396.051V329.449H395.961C395.842 329.697 395.643 329.963 395.365 330.247C395.086 330.53 394.716 330.771 394.253 330.97C393.791 331.169 393.227 331.268 392.561 331.268ZM392.829 329.688C393.525 329.688 394.112 329.551 394.589 329.277C395.071 329.004 395.434 328.651 395.678 328.218C395.926 327.786 396.051 327.331 396.051 326.854V325.243C395.976 325.332 395.812 325.414 395.559 325.489C395.31 325.559 395.022 325.621 394.693 325.675C394.37 325.725 394.055 325.77 393.746 325.81C393.443 325.844 393.197 325.874 393.008 325.899C392.551 325.959 392.123 326.056 391.725 326.19C391.333 326.319 391.014 326.516 390.771 326.779C390.532 327.038 390.413 327.391 390.413 327.838C390.413 328.45 390.639 328.912 391.092 329.225C391.549 329.533 392.128 329.688 392.829 329.688ZM405.676 331.239C404.602 331.239 403.678 330.985 402.902 330.478C402.127 329.971 401.53 329.272 401.112 328.382C400.695 327.493 400.486 326.476 400.486 325.332C400.486 324.169 400.7 323.142 401.127 322.252C401.56 321.358 402.161 320.659 402.932 320.157C403.708 319.65 404.612 319.396 405.646 319.396C406.452 319.396 407.178 319.545 407.824 319.844C408.47 320.142 409 320.56 409.412 321.097C409.825 321.634 410.081 322.26 410.181 322.976H408.421C408.286 322.454 407.988 321.991 407.526 321.589C407.068 321.181 406.452 320.977 405.676 320.977C404.99 320.977 404.389 321.156 403.872 321.514C403.36 321.867 402.959 322.367 402.671 323.013C402.388 323.654 402.246 324.408 402.246 325.273C402.246 326.158 402.385 326.928 402.664 327.585C402.947 328.241 403.345 328.75 403.857 329.113C404.374 329.476 404.98 329.658 405.676 329.658C406.134 329.658 406.549 329.578 406.922 329.419C407.295 329.26 407.61 329.031 407.869 328.733C408.127 328.435 408.311 328.077 408.421 327.659H410.181C410.081 328.335 409.835 328.944 409.442 329.486C409.055 330.023 408.54 330.451 407.899 330.769C407.262 331.082 406.521 331.239 405.676 331.239ZM414.394 326.824L414.364 324.646H414.722L419.733 319.545H421.911L416.572 324.945H416.422L414.394 326.824ZM412.753 331V315.727H414.513V331H412.753ZM420.032 331L415.557 325.332L416.81 324.109L422.269 331H420.032ZM435.034 331H430.321V315.727H435.243C436.725 315.727 437.992 316.033 439.046 316.645C440.1 317.251 440.908 318.124 441.47 319.262C442.032 320.396 442.313 321.753 442.313 323.334C442.313 324.925 442.029 326.294 441.462 327.443C440.896 328.586 440.07 329.466 438.987 330.083C437.903 330.694 436.585 331 435.034 331ZM432.171 329.359H434.915C436.178 329.359 437.224 329.116 438.054 328.629C438.885 328.141 439.504 327.448 439.911 326.548C440.319 325.648 440.523 324.577 440.523 323.334C440.523 322.101 440.321 321.039 439.919 320.15C439.516 319.255 438.915 318.569 438.114 318.091C437.314 317.609 436.317 317.368 435.124 317.368H432.171V329.359ZM449.979 331.239C448.875 331.239 447.923 330.995 447.123 330.508C446.327 330.016 445.713 329.33 445.281 328.45C444.853 327.565 444.639 326.536 444.639 325.362C444.639 324.189 444.853 323.155 445.281 322.26C445.713 321.36 446.315 320.659 447.085 320.157C447.861 319.65 448.766 319.396 449.8 319.396C450.396 319.396 450.986 319.496 451.567 319.695C452.149 319.893 452.678 320.217 453.156 320.664C453.633 321.107 454.013 321.693 454.297 322.424C454.58 323.155 454.722 324.055 454.722 325.124V325.869H445.892V324.348H452.932C452.932 323.702 452.803 323.125 452.544 322.618C452.291 322.111 451.928 321.711 451.455 321.417C450.988 321.124 450.436 320.977 449.8 320.977C449.099 320.977 448.492 321.151 447.98 321.499C447.473 321.842 447.083 322.29 446.809 322.842C446.536 323.393 446.399 323.985 446.399 324.616V325.631C446.399 326.496 446.548 327.229 446.847 327.831C447.15 328.427 447.57 328.882 448.107 329.195C448.644 329.504 449.268 329.658 449.979 329.658C450.441 329.658 450.859 329.593 451.232 329.464C451.609 329.33 451.935 329.131 452.209 328.867C452.482 328.599 452.693 328.266 452.842 327.868L454.543 328.345C454.364 328.922 454.063 329.429 453.64 329.866C453.218 330.299 452.696 330.637 452.074 330.881C451.453 331.119 450.754 331.239 449.979 331.239ZM466.417 319.545L462.181 331H460.391L456.155 319.545H458.064L461.226 328.673H461.346L464.508 319.545H466.417ZM473.132 331.239C472.028 331.239 471.076 330.995 470.276 330.508C469.48 330.016 468.866 329.33 468.434 328.45C468.006 327.565 467.793 326.536 467.793 325.362C467.793 324.189 468.006 323.155 468.434 322.26C468.866 321.36 469.468 320.659 470.239 320.157C471.014 319.65 471.919 319.396 472.953 319.396C473.55 319.396 474.139 319.496 474.721 319.695C475.302 319.893 475.832 320.217 476.309 320.664C476.786 321.107 477.167 321.693 477.45 322.424C477.733 323.155 477.875 324.055 477.875 325.124V325.869H469.045V324.348H476.085C476.085 323.702 475.956 323.125 475.697 322.618C475.444 322.111 475.081 321.711 474.609 321.417C474.141 321.124 473.589 320.977 472.953 320.977C472.252 320.977 471.646 321.151 471.134 321.499C470.626 321.842 470.236 322.29 469.963 322.842C469.689 323.393 469.553 323.985 469.553 324.616V325.631C469.553 326.496 469.702 327.229 470 327.831C470.303 328.427 470.723 328.882 471.26 329.195C471.797 329.504 472.421 329.658 473.132 329.658C473.594 329.658 474.012 329.593 474.385 329.464C474.763 329.33 475.088 329.131 475.362 328.867C475.635 328.599 475.847 328.266 475.996 327.868L477.696 328.345C477.517 328.922 477.216 329.429 476.794 329.866C476.371 330.299 475.849 330.637 475.228 330.881C474.606 331.119 473.908 331.239 473.132 331.239ZM482.312 315.727V331H480.552V315.727H482.312ZM490.189 331.239C489.155 331.239 488.248 330.993 487.467 330.5C486.691 330.008 486.085 329.32 485.647 328.435C485.215 327.55 484.999 326.516 484.999 325.332C484.999 324.139 485.215 323.098 485.647 322.208C486.085 321.318 486.691 320.627 487.467 320.135C488.248 319.642 489.155 319.396 490.189 319.396C491.223 319.396 492.128 319.642 492.903 320.135C493.684 320.627 494.291 321.318 494.723 322.208C495.161 323.098 495.379 324.139 495.379 325.332C495.379 326.516 495.161 327.55 494.723 328.435C494.291 329.32 493.684 330.008 492.903 330.5C492.128 330.993 491.223 331.239 490.189 331.239ZM490.189 329.658C490.975 329.658 491.621 329.456 492.128 329.054C492.635 328.651 493.01 328.121 493.254 327.465C493.498 326.809 493.619 326.098 493.619 325.332C493.619 324.567 493.498 323.853 493.254 323.192C493.01 322.531 492.635 321.996 492.128 321.589C491.621 321.181 490.975 320.977 490.189 320.977C489.403 320.977 488.757 321.181 488.25 321.589C487.743 321.996 487.368 322.531 487.124 323.192C486.88 323.853 486.759 324.567 486.759 325.332C486.759 326.098 486.88 326.809 487.124 327.465C487.368 328.121 487.743 328.651 488.25 329.054C488.757 329.456 489.403 329.658 490.189 329.658ZM498.066 335.295V319.545H499.766V321.365H499.975C500.104 321.166 500.283 320.913 500.512 320.604C500.746 320.291 501.079 320.013 501.511 319.769C501.949 319.521 502.54 319.396 503.286 319.396C504.251 319.396 505.101 319.637 505.836 320.12C506.572 320.602 507.146 321.286 507.559 322.17C507.972 323.055 508.178 324.099 508.178 325.303C508.178 326.516 507.972 327.567 507.559 328.457C507.146 329.342 506.575 330.028 505.844 330.515C505.113 330.998 504.27 331.239 503.316 331.239C502.58 331.239 501.991 331.117 501.548 330.873C501.106 330.625 500.765 330.344 500.527 330.031C500.288 329.712 500.104 329.449 499.975 329.24H499.826V335.295H498.066ZM499.796 325.273C499.796 326.138 499.923 326.901 500.176 327.562C500.43 328.218 500.8 328.733 501.287 329.106C501.775 329.474 502.371 329.658 503.077 329.658C503.813 329.658 504.427 329.464 504.919 329.076C505.416 328.683 505.789 328.156 506.038 327.495C506.291 326.829 506.418 326.088 506.418 325.273C506.418 324.467 506.294 323.741 506.045 323.095C505.802 322.444 505.431 321.929 504.934 321.551C504.442 321.169 503.823 320.977 503.077 320.977C502.361 320.977 501.76 321.159 501.273 321.522C500.785 321.88 500.417 322.382 500.169 323.028C499.92 323.669 499.796 324.418 499.796 325.273ZM515.665 331.239C514.562 331.239 513.61 330.995 512.809 330.508C512.014 330.016 511.4 329.33 510.967 328.45C510.54 327.565 510.326 326.536 510.326 325.362C510.326 324.189 510.54 323.155 510.967 322.26C511.4 321.36 512.001 320.659 512.772 320.157C513.547 319.65 514.452 319.396 515.486 319.396C516.083 319.396 516.672 319.496 517.254 319.695C517.835 319.893 518.365 320.217 518.842 320.664C519.319 321.107 519.7 321.693 519.983 322.424C520.267 323.155 520.408 324.055 520.408 325.124V325.869H511.579V324.348H518.618C518.618 323.702 518.489 323.125 518.231 322.618C517.977 322.111 517.614 321.711 517.142 321.417C516.675 321.124 516.123 320.977 515.486 320.977C514.785 320.977 514.179 321.151 513.667 321.499C513.16 321.842 512.769 322.29 512.496 322.842C512.222 323.393 512.086 323.985 512.086 324.616V325.631C512.086 326.496 512.235 327.229 512.533 327.831C512.836 328.427 513.257 328.882 513.794 329.195C514.33 329.504 514.954 329.658 515.665 329.658C516.128 329.658 516.545 329.593 516.918 329.464C517.296 329.33 517.622 329.131 517.895 328.867C518.169 328.599 518.38 328.266 518.529 327.868L520.229 328.345C520.05 328.922 519.749 329.429 519.327 329.866C518.904 330.299 518.382 330.637 517.761 330.881C517.139 331.119 516.441 331.239 515.665 331.239ZM523.085 331V319.545H524.786V321.276H524.905C525.114 320.709 525.492 320.249 526.039 319.896C526.585 319.543 527.202 319.366 527.888 319.366C528.017 319.366 528.179 319.369 528.373 319.374C528.567 319.379 528.713 319.386 528.813 319.396V321.186C528.753 321.171 528.616 321.149 528.403 321.119C528.194 321.084 527.972 321.067 527.739 321.067C527.182 321.067 526.685 321.184 526.247 321.417C525.815 321.646 525.472 321.964 525.218 322.372C524.97 322.775 524.845 323.234 524.845 323.751V331H523.085ZM539.37 310.805V335.922H537.879V310.805H539.37ZM548.985 317.368V315.727H560.439V317.368H555.637V331H553.787V317.368H548.985ZM566.197 331.239C565.093 331.239 564.141 330.995 563.34 330.508C562.545 330.016 561.931 329.33 561.498 328.45C561.071 327.565 560.857 326.536 560.857 325.362C560.857 324.189 561.071 323.155 561.498 322.26C561.931 321.36 562.532 320.659 563.303 320.157C564.079 319.65 564.983 319.396 566.018 319.396C566.614 319.396 567.203 319.496 567.785 319.695C568.367 319.893 568.896 320.217 569.373 320.664C569.851 321.107 570.231 321.693 570.514 322.424C570.798 323.155 570.939 324.055 570.939 325.124V325.869H562.11V324.348H569.15C569.15 323.702 569.02 323.125 568.762 322.618C568.508 322.111 568.145 321.711 567.673 321.417C567.206 321.124 566.654 320.977 566.018 320.977C565.317 320.977 564.71 321.151 564.198 321.499C563.691 321.842 563.301 322.29 563.027 322.842C562.754 323.393 562.617 323.985 562.617 324.616V325.631C562.617 326.496 562.766 327.229 563.064 327.831C563.368 328.427 563.788 328.882 564.325 329.195C564.862 329.504 565.486 329.658 566.197 329.658C566.659 329.658 567.077 329.593 567.449 329.464C567.827 329.33 568.153 329.131 568.426 328.867C568.7 328.599 568.911 328.266 569.06 327.868L570.76 328.345C570.581 328.922 570.281 329.429 569.858 329.866C569.436 330.299 568.914 330.637 568.292 330.881C567.671 331.119 566.972 331.239 566.197 331.239ZM578.27 331.239C577.196 331.239 576.271 330.985 575.496 330.478C574.72 329.971 574.124 329.272 573.706 328.382C573.289 327.493 573.08 326.476 573.08 325.332C573.08 324.169 573.294 323.142 573.721 322.252C574.154 321.358 574.755 320.659 575.526 320.157C576.301 319.65 577.206 319.396 578.24 319.396C579.046 319.396 579.771 319.545 580.418 319.844C581.064 320.142 581.594 320.56 582.006 321.097C582.419 321.634 582.675 322.26 582.774 322.976H581.014C580.88 322.454 580.582 321.991 580.119 321.589C579.662 321.181 579.046 320.977 578.27 320.977C577.584 320.977 576.982 321.156 576.465 321.514C575.953 321.867 575.553 322.367 575.265 323.013C574.981 323.654 574.84 324.408 574.84 325.273C574.84 326.158 574.979 326.928 575.257 327.585C575.541 328.241 575.938 328.75 576.45 329.113C576.968 329.476 577.574 329.658 578.27 329.658C578.727 329.658 579.143 329.578 579.515 329.419C579.888 329.26 580.204 329.031 580.463 328.733C580.721 328.435 580.905 328.077 581.014 327.659H582.774C582.675 328.335 582.429 328.944 582.036 329.486C581.648 330.023 581.134 330.451 580.492 330.769C579.856 331.082 579.115 331.239 578.27 331.239ZM587.107 324.109V331H585.347V315.727H587.107V321.335H587.256C587.525 320.744 587.927 320.274 588.464 319.926C589.006 319.573 589.727 319.396 590.627 319.396C591.407 319.396 592.091 319.553 592.678 319.866C593.264 320.174 593.719 320.649 594.042 321.29C594.371 321.927 594.535 322.737 594.535 323.722V331H592.775V323.841C592.775 322.931 592.539 322.228 592.066 321.73C591.599 321.228 590.95 320.977 590.12 320.977C589.543 320.977 589.026 321.099 588.569 321.343C588.116 321.586 587.758 321.942 587.495 322.409C587.236 322.876 587.107 323.443 587.107 324.109ZM603.899 331V315.727H613.117V317.368H605.749V322.528H612.639V324.169H605.749V329.359H613.236V331H603.899ZM617.524 319.545L620.268 324.229L623.013 319.545H625.041L621.342 325.273L625.041 331H623.013L620.268 326.555L617.524 331H615.495L619.135 325.273L615.495 319.545H617.524ZM627.552 335.295V319.545H629.252V321.365H629.461C629.591 321.166 629.77 320.913 629.998 320.604C630.232 320.291 630.565 320.013 630.998 319.769C631.435 319.521 632.027 319.396 632.772 319.396C633.737 319.396 634.587 319.637 635.323 320.12C636.059 320.602 636.633 321.286 637.045 322.17C637.458 323.055 637.664 324.099 637.664 325.303C637.664 326.516 637.458 327.567 637.045 328.457C636.633 329.342 636.061 330.028 635.33 330.515C634.599 330.998 633.757 331.239 632.802 331.239C632.066 331.239 631.477 331.117 631.035 330.873C630.592 330.625 630.252 330.344 630.013 330.031C629.775 329.712 629.591 329.449 629.461 329.24H629.312V335.295H627.552ZM629.282 325.273C629.282 326.138 629.409 326.901 629.663 327.562C629.916 328.218 630.287 328.733 630.774 329.106C631.261 329.474 631.858 329.658 632.564 329.658C633.299 329.658 633.913 329.464 634.406 329.076C634.903 328.683 635.276 328.156 635.524 327.495C635.778 326.829 635.904 326.088 635.904 325.273C635.904 324.467 635.78 323.741 635.532 323.095C635.288 322.444 634.918 321.929 634.42 321.551C633.928 321.169 633.309 320.977 632.564 320.977C631.848 320.977 631.246 321.159 630.759 321.522C630.272 321.88 629.904 322.382 629.655 323.028C629.407 323.669 629.282 324.418 629.282 325.273ZM642.109 315.727V331H640.349V315.727H642.109ZM649.986 331.239C648.952 331.239 648.044 330.993 647.264 330.5C646.488 330.008 645.882 329.32 645.444 328.435C645.012 327.55 644.796 326.516 644.796 325.332C644.796 324.139 645.012 323.098 645.444 322.208C645.882 321.318 646.488 320.627 647.264 320.135C648.044 319.642 648.952 319.396 649.986 319.396C651.02 319.396 651.925 319.642 652.7 320.135C653.481 320.627 654.087 321.318 654.52 322.208C654.957 323.098 655.176 324.139 655.176 325.332C655.176 326.516 654.957 327.55 654.52 328.435C654.087 329.32 653.481 330.008 652.7 330.5C651.925 330.993 651.02 331.239 649.986 331.239ZM649.986 329.658C650.771 329.658 651.418 329.456 651.925 329.054C652.432 328.651 652.807 328.121 653.051 327.465C653.294 326.809 653.416 326.098 653.416 325.332C653.416 324.567 653.294 323.853 653.051 323.192C652.807 322.531 652.432 321.996 651.925 321.589C651.418 321.181 650.771 320.977 649.986 320.977C649.2 320.977 648.554 321.181 648.047 321.589C647.54 321.996 647.165 322.531 646.921 323.192C646.677 323.853 646.555 324.567 646.555 325.332C646.555 326.098 646.677 326.809 646.921 327.465C647.165 328.121 647.54 328.651 648.047 329.054C648.554 329.456 649.2 329.658 649.986 329.658ZM657.863 331V319.545H659.563V321.276H659.682C659.891 320.709 660.269 320.249 660.816 319.896C661.363 319.543 661.979 319.366 662.665 319.366C662.795 319.366 662.956 319.369 663.15 319.374C663.344 319.379 663.491 319.386 663.59 319.396V321.186C663.53 321.171 663.394 321.149 663.18 321.119C662.971 321.084 662.75 321.067 662.516 321.067C661.959 321.067 661.462 321.184 661.025 321.417C660.592 321.646 660.249 321.964 659.996 322.372C659.747 322.775 659.623 323.234 659.623 323.751V331H657.863ZM670.13 331.239C669.026 331.239 668.074 330.995 667.274 330.508C666.479 330.016 665.865 329.33 665.432 328.45C665.004 327.565 664.791 326.536 664.791 325.362C664.791 324.189 665.004 323.155 665.432 322.26C665.865 321.36 666.466 320.659 667.237 320.157C668.012 319.65 668.917 319.396 669.951 319.396C670.548 319.396 671.137 319.496 671.719 319.695C672.3 319.893 672.83 320.217 673.307 320.664C673.784 321.107 674.165 321.693 674.448 322.424C674.731 323.155 674.873 324.055 674.873 325.124V325.869H666.044V324.348H673.083C673.083 323.702 672.954 323.125 672.695 322.618C672.442 322.111 672.079 321.711 671.607 321.417C671.139 321.124 670.588 320.977 669.951 320.977C669.25 320.977 668.644 321.151 668.132 321.499C667.624 321.842 667.234 322.29 666.961 322.842C666.687 323.393 666.551 323.985 666.551 324.616V325.631C666.551 326.496 666.7 327.229 666.998 327.831C667.301 328.427 667.721 328.882 668.258 329.195C668.795 329.504 669.419 329.658 670.13 329.658C670.593 329.658 671.01 329.593 671.383 329.464C671.761 329.33 672.086 329.131 672.36 328.867C672.633 328.599 672.845 328.266 672.994 327.868L674.694 328.345C674.515 328.922 674.214 329.429 673.792 329.866C673.369 330.299 672.847 330.637 672.226 330.881C671.604 331.119 670.906 331.239 670.13 331.239ZM677.55 331V319.545H679.251V321.276H679.37C679.579 320.709 679.956 320.249 680.503 319.896C681.05 319.543 681.667 319.366 682.353 319.366C682.482 319.366 682.644 319.369 682.838 319.374C683.031 319.379 683.178 319.386 683.278 319.396V321.186C683.218 321.171 683.081 321.149 682.867 321.119C682.659 321.084 682.437 321.067 682.204 321.067C681.647 321.067 681.15 321.184 680.712 321.417C680.28 321.646 679.937 321.964 679.683 322.372C679.434 322.775 679.31 323.234 679.31 323.751V331H677.55Z" fill="white"/>
</g>
<defs>
<clipPath id="clip0_1_4">
<rect width="1086" height="622" fill="white"/>
</clipPath>
</defs>
</svg>
