<svg width="93" height="103" viewBox="0 0 93 103" fill="none" xmlns="http://www.w3.org/2000/svg">
<path d="M81.375 54.8904C80.7654 62.1957 78.2899 69.1577 74.2382 74.9617C70.1864 80.7656 64.726 85.1716 58.4958 87.6639C52.2657 90.1563 45.5234 90.632 39.058 89.0353C32.5927 87.4387 26.6716 83.8358 21.9876 78.6481C17.3036 73.4605 14.0505 66.9027 12.6089 59.7422C11.1673 52.5816 11.5968 45.1144 13.8471 38.2143C16.0975 31.3142 20.0757 25.2666 25.3162 20.7792C30.5567 16.2918 36.8427 13.5501 43.4387 12.875C39.577 18.6613 37.7186 25.7906 38.2018 32.9661C38.6849 40.1416 41.4774 46.8867 46.0714 51.9747C50.6654 57.0626 56.7556 60.1554 63.2345 60.6905C69.7134 61.2256 76.1504 59.1675 81.375 54.8904Z" stroke="#F3F3F3" stroke-width="5.83333" stroke-linecap="round" stroke-linejoin="round"/>
</svg>
