<svg width="1086" height="622" viewBox="0 0 1086 622" fill="none" xmlns="http://www.w3.org/2000/svg">
<g clip-path="url(#clip0_1_4)">
<path d="M279.012 178.594C333.406 178.594 377.501 138.614 377.501 89.2969C377.501 39.9796 333.406 0 279.012 0C224.618 0 180.522 39.9796 180.522 89.2969C180.522 138.614 224.618 178.594 279.012 178.594Z" fill="#FF6584"/>
<path d="M1086 39.2558V274.123C1086 465.58 914.818 620.777 703.661 620.767H0V385.9C0 260.395 73.5689 150.458 183.752 89.6255C202.739 79.1328 222.706 70.1735 243.424 62.851C255.616 58.5325 268.048 54.7951 280.671 51.6542C280.917 51.5797 281.175 51.5159 281.422 51.4628C285.151 50.5412 288.904 49.6693 292.681 48.847C292.892 48.7938 293.091 48.7513 293.302 48.7088C316.577 43.6808 340.32 40.6441 364.22 39.6386C367.047 39.5216 369.873 39.4259 372.723 39.3728C373.744 39.3409 374.776 39.3196 375.819 39.3196C377.977 39.2771 380.147 39.2558 382.328 39.2558H1086Z" fill="#090814"/>
<path opacity="0.199" d="M1086 39.2558V274.123C1086 465.58 914.818 620.777 703.661 620.767H0V385.9C0 260.395 73.5689 150.458 183.752 89.6255C202.739 79.1328 222.706 70.1735 243.424 62.851C255.616 58.5325 268.048 54.7951 280.671 51.6542C280.917 51.5797 281.175 51.5159 281.422 51.4628C285.151 50.5412 288.904 49.6693 292.681 48.847C292.892 48.7938 293.091 48.7513 293.302 48.7088C316.577 43.6808 340.32 40.6441 364.22 39.6386C367.047 39.5216 369.873 39.4259 372.723 39.3728C373.744 39.3409 374.776 39.3196 375.819 39.3196C377.977 39.2771 380.147 39.2558 382.328 39.2558H1086Z" fill="#8B8989"/>
<path d="M494.927 495.227C222.161 495.227 0.939377 551.945 0.0117035 622H989.843C988.916 551.945 767.694 495.227 494.927 495.227Z" fill="#D6D6E3"/>
<g opacity="0.1">
<path d="M412.821 603.51C464.638 603.51 506.644 592.931 506.644 579.881C506.644 566.831 464.638 556.251 412.821 556.251C361.004 556.251 318.998 566.831 318.998 579.881C318.998 592.931 361.004 603.51 412.821 603.51Z" fill="black"/>
</g>
<g opacity="0.1">
<path d="M615.713 560.977C667.53 560.977 709.536 550.398 709.536 537.348C709.536 524.298 667.53 513.719 615.713 513.719C563.896 513.719 521.89 524.298 521.89 537.348C521.89 550.398 563.896 560.977 615.713 560.977Z" fill="black"/>
</g>
<g opacity="0.1">
<path d="M412.821 601.147C459.456 601.147 497.261 591.626 497.261 579.881C497.261 568.135 459.456 558.614 412.821 558.614C366.185 558.614 328.38 568.135 328.38 579.881C328.38 591.626 366.185 601.147 412.821 601.147Z" fill="black"/>
</g>
<g opacity="0.1">
<path d="M615.713 558.614C662.348 558.614 700.153 549.093 700.153 537.348C700.153 525.603 662.348 516.081 615.713 516.081C569.077 516.081 531.272 525.603 531.272 537.348C531.272 549.093 569.077 558.614 615.713 558.614Z" fill="black"/>
</g>
<path d="M161.845 141.377C166.378 141.377 170.054 138.045 170.054 133.934C170.054 129.823 166.378 126.491 161.845 126.491C157.311 126.491 153.635 129.823 153.635 133.934C153.635 138.045 157.311 141.377 161.845 141.377Z" fill="#F2F2F2"/>
<path d="M867.862 432.728C872.396 432.728 876.071 429.396 876.071 425.285C876.071 421.174 872.396 417.842 867.862 417.842C863.328 417.842 859.652 421.174 859.652 425.285C859.652 429.396 863.328 432.728 867.862 432.728Z" fill="#F2F2F2"/>
<path d="M480.842 193.48C485.376 193.48 489.052 190.148 489.052 186.037C489.052 181.926 485.376 178.594 480.842 178.594C476.308 178.594 472.633 181.926 472.633 186.037C472.633 190.148 476.308 193.48 480.842 193.48Z" fill="#F2F2F2"/>
<path d="M887.799 145.631C890.39 145.631 892.49 143.727 892.49 141.377C892.49 139.028 890.39 137.124 887.799 137.124C885.208 137.124 883.108 139.028 883.108 141.377C883.108 143.727 885.208 145.631 887.799 145.631Z" fill="#8B8989"/>
<path d="M180.609 358.296C183.2 358.296 185.3 356.391 185.3 354.042C185.3 351.693 183.2 349.789 180.609 349.789C178.018 349.789 175.918 351.693 175.918 354.042C175.918 356.391 178.018 358.296 180.609 358.296Z" fill="#8B8989"/>
<path d="M110.242 443.704H108.105V441.767H107.688V443.704H105.551V444.082H107.688V446.02H108.105V444.082H110.242V443.704Z" fill="#F2F2F2"/>
<path d="M796.322 286.332H794.185V284.395H793.768V286.332H791.631V286.71H793.768V288.648H794.185V286.71H796.322V286.332Z" fill="#F2F2F2"/>
<path d="M973.412 254.432H971.276V252.495H970.858V254.432H968.721V254.811H970.858V256.748H971.276V254.811H973.412V254.432Z" fill="#F2F2F2"/>
<path d="M592.257 339.498H590.12V337.561H589.703V339.498H587.566V339.877H589.703V341.814H590.12V339.877H592.257V339.498Z" fill="#F2F2F2"/>
<path d="M921.81 350.131H919.673V348.194H919.256V350.131H917.119V350.51H919.256V352.447H919.673V350.51H921.81V350.131Z" fill="#F2F2F2"/>
<path d="M524.235 395.854H522.099V393.917H521.681V395.854H519.544V396.233H521.681V398.17H522.099V396.233H524.235V395.854Z" fill="#F2F2F2"/>
<path d="M674.352 397.981H672.215V396.044H671.798V397.981H669.661V398.36H671.798V400.297H672.215V398.36H674.352V397.981Z" fill="#F2F2F2"/>
<path d="M112.587 217.216H110.451V215.279H110.033V217.216H107.896V217.594H110.033V219.532H110.451V217.594H112.587V217.216Z" fill="#F2F2F2"/>
<path d="M717.45 234.999L686.432 299.796L692.5 308.965L690.477 312.021L704.636 318.745V315.078L710.031 313.855L732.954 275.955L717.45 234.999Z" fill="#D6D6E3"/>
<path d="M693.178 311.41C693.178 311.41 670.254 343.809 695.875 348.699C721.496 353.589 700.594 314.466 700.594 314.466L693.178 311.41Z" fill="#D6D6E3"/>
<path d="M726.214 296.739L718.122 320.579L714.751 351.144L708.683 362.147L715.425 411.662L726.215 421.444L730.934 470.348V492.358L743.745 512.531L727.245 533.753C726.466 534.75 726.001 535.92 725.897 537.138C725.794 538.356 726.056 539.577 726.656 540.671C727.256 541.765 728.172 542.691 729.306 543.351C730.44 544.011 731.75 544.38 733.097 544.419C736.738 544.506 741.541 543.568 747.786 540.644C767.339 531.475 766.668 522.916 766.668 522.916C766.668 522.916 778.804 522.916 779.478 514.359C780.153 505.801 772.062 444.671 772.062 444.671L764.645 418.386V346.865H767.342L768.691 407.994L774.759 430.612L775.433 440.395L784.199 538.202C784.199 538.202 823.303 547.984 825.326 540.036C827.349 532.087 810.494 527.198 810.494 527.198L820.607 509.47V475.236L817.236 467.899L821.281 427.471V408.605L826.676 402.492V353.589L819.933 334.64L817.91 318.746L807.121 294.29C807.121 294.29 757.902 279.623 726.214 296.739Z" fill="#F2F2F2"/>
<path d="M813.862 158.587C813.862 165.94 811.937 173.188 808.246 179.735C804.555 186.281 799.202 191.94 792.628 196.246C786.055 200.552 778.448 203.381 770.433 204.502C762.418 205.623 754.225 205.003 746.526 202.694C738.826 200.384 731.842 196.45 726.146 191.216C720.451 185.982 716.207 179.597 713.763 172.586C711.32 165.575 710.746 158.139 712.09 150.888C713.434 143.637 716.657 136.779 721.495 130.877L721.509 130.864C727.936 123.026 736.924 117.223 747.197 114.281C757.47 111.34 768.504 111.409 778.731 114.478C788.958 117.548 797.857 123.463 804.164 131.381C810.471 139.299 813.865 148.819 813.863 158.586L813.862 158.587Z" fill="#8B8989"/>
<path d="M822.348 143.039L803.749 158.587C772.337 84.6576 722.371 130.071 721.507 130.865C726.671 124.57 733.509 119.562 741.384 116.31C749.259 113.057 757.914 111.666 766.542 112.266C784.081 113.486 814.123 128.939 822.342 143.039H822.348Z" fill="#F2F2F2"/>
<path d="M800.905 127.717L807.929 149.823C807.929 149.823 793.348 189.446 725.733 190.827L723.516 196.487L716.1 198.322L712.729 211.159L722.168 292.461C722.168 292.461 718.123 300.408 724.865 299.798C724.865 299.798 769.363 286.35 807.794 298.575C807.794 298.575 815.886 301.631 813.862 294.908C813.862 294.908 840.836 279.626 838.808 263.732C836.781 247.839 840.831 173.873 840.831 173.873C840.831 173.873 844.876 152.477 832.739 147.587C832.74 147.584 814.916 124.965 800.905 127.717Z" fill="#F2F2F2"/>
<path d="M786.119 282.181C786.119 282.181 743.877 286.027 755.57 307.266C767.263 328.504 788.085 289.347 788.085 289.347L786.119 282.181Z" fill="#D6D6E3"/>
<path d="M807.794 187.313C807.794 187.313 800.377 195.26 803.075 208.097C805.772 220.933 815.885 249.664 815.885 249.664L780.151 279.617L790.941 293.065L839.48 270.453L850.27 264.34C847.587 239.616 840.913 215.382 830.459 192.417L828.7 188.541C828.7 188.541 815.885 183.651 807.794 187.313Z" fill="#D6D6E3"/>
<path d="M564.11 200.203H561.973V198.265H561.556V200.203H559.419V200.581H561.556V202.519H561.973V200.581H564.11V200.203Z" fill="#F2F2F2"/>
<path d="M756.447 140.657H754.31V138.719H753.893V140.657H751.756V141.035H753.893V142.972H754.31V141.035H756.447V140.657Z" fill="#F2F2F2"/>
<path d="M735.337 158.733H733.2V156.796H732.783V158.733H730.646V159.112H732.783V161.049H733.2V159.112H735.337V158.733Z" fill="#F2F2F2"/>
<path d="M652.069 113.731C654.66 113.731 656.76 111.827 656.76 109.478C656.76 107.129 654.66 105.224 652.069 105.224C649.478 105.224 647.378 107.129 647.378 109.478C647.378 111.827 649.478 113.731 652.069 113.731Z" fill="#F2F2F2"/>
<path d="M992.189 39.2558H989.843C990.012 62.2866 1000.21 84.3236 1018.22 100.564C1036.24 116.805 1060.6 125.933 1086 125.959V123.833C1061.22 123.808 1037.45 114.905 1019.88 99.0624C1002.31 83.2202 992.356 61.7231 992.189 39.2558Z" fill="#8B8989"/>
<path d="M948.796 39.2558H946.45C946.628 72.7185 961.405 104.758 987.552 128.375C1013.7 151.992 1049.09 165.268 1086 165.302V163.176C1049.71 163.139 1014.92 150.086 989.213 126.868C963.507 103.651 948.976 72.1538 948.796 39.2558Z" fill="#8B8989"/>
<path d="M904.218 39.2558H901.873C902.166 131.084 984.648 205.709 1086 205.709V203.582C985.938 203.582 904.511 129.915 904.218 39.2558Z" fill="#8B8989"/>
<path d="M280.296 376.372C284.83 376.372 288.505 373.04 288.505 368.929C288.505 364.818 284.83 361.486 280.296 361.486C275.762 361.486 272.086 364.818 272.086 368.929C272.086 373.04 275.762 376.372 280.296 376.372Z" fill="#F2F2F2"/>
<path d="M391.711 215.468H389.574V217.405H389.156V215.468H387.019V215.089H389.156V213.152H389.574V215.089H391.711V215.468Z" fill="#F2F2F2"/>
<path d="M323.689 159.112H321.552V161.049H321.135V159.112H318.998V158.733H321.135V156.796H321.552V158.733H323.689V159.112Z" fill="#F2F2F2"/>
<path d="M363.564 354.763H361.427V356.701H361.009V354.763H358.873V354.385H361.009V352.447H361.427V354.385H363.564V354.763Z" fill="#F2F2F2"/>
<path d="M275.121 260.955C275.531 262.231 276.146 263.507 276.967 264.783C277.787 266.059 278.699 267.335 279.701 268.611C280.704 269.842 281.706 271.095 282.709 272.371C283.712 273.647 284.6 274.946 285.375 276.268C285.74 276.86 285.99 277.475 286.127 278.113C286.264 278.706 286.332 279.275 286.332 279.822C286.332 280.962 286.081 281.987 285.58 282.898C285.124 283.764 284.486 284.493 283.666 285.086C282.846 285.678 281.889 286.134 280.795 286.453C279.747 286.727 278.607 286.863 277.377 286.863C276.146 286.863 274.87 286.795 273.549 286.658C272.273 286.476 271.111 286.248 270.062 285.975C269.06 285.656 268.217 285.291 267.533 284.881C266.895 284.425 266.576 283.924 266.576 283.377C266.576 282.876 266.713 282.397 266.986 281.941C267.305 281.486 267.715 281.258 268.217 281.258C268.308 281.258 268.695 281.349 269.379 281.531C270.062 281.714 270.883 281.919 271.84 282.146C272.842 282.329 273.891 282.511 274.984 282.693C276.124 282.876 277.172 282.967 278.129 282.967C279.314 282.967 280.248 282.671 280.932 282.078C281.661 281.44 282.025 280.551 282.025 279.412C282.025 278.774 281.843 278.136 281.479 277.498C281.16 276.814 280.681 276.062 280.043 275.242C279.405 274.422 278.653 273.51 277.787 272.508C276.921 271.46 275.987 270.252 274.984 268.885C273.253 266.561 272.022 264.601 271.293 263.006C270.564 261.411 270.199 259.884 270.199 258.426C270.199 256.375 270.814 254.757 272.045 253.572C273.321 252.387 275.395 251.795 278.266 251.795C279.223 251.795 280.225 251.886 281.273 252.068C282.367 252.205 283.37 252.433 284.281 252.752C285.193 253.025 285.945 253.39 286.537 253.846C287.13 254.256 287.426 254.734 287.426 255.281C287.426 255.737 287.289 256.147 287.016 256.512C286.742 256.876 286.378 257.059 285.922 257.059C285.694 257.059 285.307 256.99 284.76 256.854C284.213 256.717 283.552 256.58 282.777 256.443C282.048 256.261 281.251 256.102 280.385 255.965C279.564 255.828 278.79 255.76 278.061 255.76C275.827 255.76 274.711 256.74 274.711 258.699C274.711 259.383 274.848 260.135 275.121 260.955ZM301.371 268.611H299.594C298.819 269.021 298.227 269.568 297.816 270.252C297.406 270.936 297.087 271.665 296.859 272.439C296.677 273.169 296.563 273.875 296.518 274.559C296.472 275.242 296.449 275.789 296.449 276.199C296.449 277.111 296.563 277.977 296.791 278.797C297.064 279.617 297.429 280.346 297.885 280.984C298.386 281.577 298.956 282.055 299.594 282.42C300.232 282.785 300.961 282.967 301.781 282.967C303.24 282.967 304.356 282.648 305.131 282.01C305.951 281.372 306.544 280.574 306.908 279.617C307.318 278.66 307.569 277.635 307.66 276.541C307.751 275.402 307.797 274.354 307.797 273.396C307.706 272.804 307.501 272.212 307.182 271.619C306.863 270.981 306.452 270.434 305.951 269.979C305.495 269.523 304.971 269.158 304.379 268.885C303.832 268.566 303.262 268.406 302.67 268.406C302.214 268.406 301.781 268.475 301.371 268.611ZM310.668 280.506C310.167 282.602 309.05 284.197 307.318 285.291C305.587 286.385 303.673 286.932 301.576 286.932C300.072 286.932 298.728 286.613 297.543 285.975C296.404 285.291 295.447 284.425 294.672 283.377C293.897 282.283 293.305 281.076 292.895 279.754C292.53 278.387 292.348 277.02 292.348 275.652C292.348 274.559 292.484 273.374 292.758 272.098C293.031 270.776 293.464 269.568 294.057 268.475C294.649 267.381 295.424 266.469 296.381 265.74C297.338 264.965 298.5 264.578 299.867 264.578C300.596 264.578 301.098 264.646 301.371 264.783C301.599 264.738 301.804 264.715 301.986 264.715C302.169 264.715 302.374 264.715 302.602 264.715C304.743 264.715 306.43 265.171 307.66 266.082C308.891 266.993 309.87 268.178 310.6 269.637C311.374 271.049 311.99 272.622 312.445 274.354C312.901 276.085 313.448 277.749 314.086 279.344C314.268 279.891 314.542 280.506 314.906 281.189C315.271 281.827 315.635 282.465 316 283.104C316.365 283.742 316.661 284.311 316.889 284.812C317.162 285.314 317.299 285.701 317.299 285.975C317.299 286.476 317.117 286.863 316.752 287.137C316.387 287.41 315.977 287.547 315.521 287.547C315.066 287.547 314.587 287.365 314.086 287C313.63 286.59 313.174 286.066 312.719 285.428C312.309 284.79 311.921 284.038 311.557 283.172C311.192 282.306 310.896 281.417 310.668 280.506ZM328.852 266.287C329.581 265.831 330.424 265.512 331.381 265.33C332.383 265.148 333.409 265.057 334.457 265.057C335.915 265.148 337.169 265.398 338.217 265.809C339.265 266.219 340.131 266.834 340.814 267.654C341.498 268.429 341.999 269.454 342.318 270.73C342.637 271.961 342.797 273.488 342.797 275.311C342.797 277.179 342.706 278.934 342.523 280.574C342.341 282.169 342.09 283.582 341.771 284.812C341.452 285.997 341.065 286.932 340.609 287.615C340.199 288.344 339.721 288.709 339.174 288.709C338.764 288.709 338.399 288.572 338.08 288.299C337.761 288.025 337.602 287.592 337.602 287C337.602 286.408 337.67 285.656 337.807 284.744C337.989 283.787 338.171 282.785 338.354 281.736C338.581 280.643 338.764 279.549 338.9 278.455C339.083 277.316 339.174 276.268 339.174 275.311C339.174 273.989 339.06 272.941 338.832 272.166C338.65 271.346 338.354 270.708 337.943 270.252C337.579 269.751 337.1 269.409 336.508 269.227C335.915 268.999 335.232 268.839 334.457 268.748C333.5 268.748 332.543 268.908 331.586 269.227C330.629 269.546 329.809 269.705 329.125 269.705C328.715 269.705 328.373 269.546 328.1 269.227C327.872 268.908 327.758 268.543 327.758 268.133C327.758 267.814 327.826 267.495 327.963 267.176C328.145 266.811 328.441 266.515 328.852 266.287ZM325.844 265.604C325.844 268.611 325.867 271.665 325.912 274.764C325.958 277.817 326.163 280.597 326.527 283.104V283.582C326.527 284.357 326.322 284.949 325.912 285.359C325.548 285.724 325.137 285.906 324.682 285.906C324.271 285.906 323.884 285.724 323.52 285.359C323.155 284.995 322.927 284.425 322.836 283.65C322.608 281.463 322.426 279.207 322.289 276.883C322.152 274.559 322.084 272.166 322.084 269.705C322.084 269.204 322.061 268.634 322.016 267.996C321.97 267.358 321.97 266.766 322.016 266.219C322.107 265.626 322.289 265.148 322.562 264.783C322.882 264.373 323.36 264.168 323.998 264.168C324.454 264.168 324.864 264.327 325.229 264.646C325.639 264.92 325.844 265.239 325.844 265.604ZM358.109 251.932C358.383 251.84 358.588 251.795 358.725 251.795C358.861 251.795 358.998 251.818 359.135 251.863C359.271 251.909 359.385 251.932 359.477 251.932C359.704 251.886 359.91 251.863 360.092 251.863C360.274 251.818 360.479 251.795 360.707 251.795C362.257 251.795 363.396 252.296 364.125 253.299C364.854 254.301 365.219 255.372 365.219 256.512C365.219 257.059 365.082 257.651 364.809 258.289C364.581 258.927 364.216 259.52 363.715 260.066C363.259 260.568 362.667 261.001 361.938 261.365C361.254 261.73 360.434 261.912 359.477 261.912C358.839 261.912 358.246 261.775 357.699 261.502C357.152 261.183 356.674 260.773 356.264 260.271C355.854 259.77 355.535 259.223 355.307 258.631C355.079 258.038 354.965 257.423 354.965 256.785C354.965 255.737 355.284 254.734 355.922 253.777C356.605 252.775 357.335 252.16 358.109 251.932ZM359.75 255.486H359.203C358.975 255.623 358.816 255.874 358.725 256.238C358.679 256.557 358.656 256.808 358.656 256.99C358.747 257.355 358.907 257.674 359.135 257.947C359.408 258.175 359.727 258.289 360.092 258.289C360.639 258.289 361.026 258.084 361.254 257.674C361.527 257.218 361.664 256.808 361.664 256.443C361.482 255.714 361.026 255.35 360.297 255.35C360.206 255.35 360.023 255.395 359.75 255.486ZM362.484 266.15C362.803 269.158 363.054 272.212 363.236 275.311C363.464 278.41 363.578 281.417 363.578 284.334C363.487 286.294 363.327 288.048 363.1 289.598C362.872 291.193 362.165 292.719 360.98 294.178C360.342 294.998 359.522 295.818 358.52 296.639C357.562 297.505 356.514 298.279 355.375 298.963C354.281 299.646 353.142 300.216 351.957 300.672C350.772 301.128 349.633 301.355 348.539 301.355C347.947 301.355 347.468 301.082 347.104 300.535C346.785 299.988 346.625 299.487 346.625 299.031C346.625 298.12 347.035 297.55 347.855 297.322C348.812 297.094 349.77 296.73 350.727 296.229C351.729 295.773 352.686 295.226 353.598 294.588C354.509 293.995 355.329 293.335 356.059 292.605C356.833 291.876 357.471 291.17 357.973 290.486C358.702 289.484 359.135 288.413 359.271 287.273C359.408 286.134 359.477 284.972 359.477 283.787C359.477 282.557 359.454 281.189 359.408 279.686C359.363 278.182 359.294 276.655 359.203 275.105C359.112 273.556 358.998 272.029 358.861 270.525C358.77 269.021 358.656 267.654 358.52 266.424C358.52 266.333 358.497 266.287 358.451 266.287C358.451 266.242 358.451 266.173 358.451 266.082C358.451 265.49 358.656 265.011 359.066 264.646C359.477 264.236 359.932 264.031 360.434 264.031C360.889 264.031 361.322 264.191 361.732 264.51C362.143 264.829 362.393 265.376 362.484 266.15ZM378.207 268.611H376.43C375.655 269.021 375.062 269.568 374.652 270.252C374.242 270.936 373.923 271.665 373.695 272.439C373.513 273.169 373.399 273.875 373.354 274.559C373.308 275.242 373.285 275.789 373.285 276.199C373.285 277.111 373.399 277.977 373.627 278.797C373.9 279.617 374.265 280.346 374.721 280.984C375.222 281.577 375.792 282.055 376.43 282.42C377.068 282.785 377.797 282.967 378.617 282.967C380.076 282.967 381.192 282.648 381.967 282.01C382.787 281.372 383.38 280.574 383.744 279.617C384.154 278.66 384.405 277.635 384.496 276.541C384.587 275.402 384.633 274.354 384.633 273.396C384.542 272.804 384.337 272.212 384.018 271.619C383.699 270.981 383.288 270.434 382.787 269.979C382.331 269.523 381.807 269.158 381.215 268.885C380.668 268.566 380.098 268.406 379.506 268.406C379.05 268.406 378.617 268.475 378.207 268.611ZM387.504 280.506C387.003 282.602 385.886 284.197 384.154 285.291C382.423 286.385 380.508 286.932 378.412 286.932C376.908 286.932 375.564 286.613 374.379 285.975C373.24 285.291 372.283 284.425 371.508 283.377C370.733 282.283 370.141 281.076 369.73 279.754C369.366 278.387 369.184 277.02 369.184 275.652C369.184 274.559 369.32 273.374 369.594 272.098C369.867 270.776 370.3 269.568 370.893 268.475C371.485 267.381 372.26 266.469 373.217 265.74C374.174 264.965 375.336 264.578 376.703 264.578C377.432 264.578 377.934 264.646 378.207 264.783C378.435 264.738 378.64 264.715 378.822 264.715C379.005 264.715 379.21 264.715 379.438 264.715C381.579 264.715 383.266 265.171 384.496 266.082C385.727 266.993 386.706 268.178 387.436 269.637C388.21 271.049 388.826 272.622 389.281 274.354C389.737 276.085 390.284 277.749 390.922 279.344C391.104 279.891 391.378 280.506 391.742 281.189C392.107 281.827 392.471 282.465 392.836 283.104C393.201 283.742 393.497 284.311 393.725 284.812C393.998 285.314 394.135 285.701 394.135 285.975C394.135 286.476 393.952 286.863 393.588 287.137C393.223 287.41 392.813 287.547 392.357 287.547C391.902 287.547 391.423 287.365 390.922 287C390.466 286.59 390.01 286.066 389.555 285.428C389.145 284.79 388.757 284.038 388.393 283.172C388.028 282.306 387.732 281.417 387.504 280.506ZM405.688 266.287C406.417 265.831 407.26 265.512 408.217 265.33C409.219 265.148 410.245 265.057 411.293 265.057C412.751 265.148 414.005 265.398 415.053 265.809C416.101 266.219 416.967 266.834 417.65 267.654C418.334 268.429 418.835 269.454 419.154 270.73C419.473 271.961 419.633 273.488 419.633 275.311C419.633 277.179 419.542 278.934 419.359 280.574C419.177 282.169 418.926 283.582 418.607 284.812C418.288 285.997 417.901 286.932 417.445 287.615C417.035 288.344 416.557 288.709 416.01 288.709C415.6 288.709 415.235 288.572 414.916 288.299C414.597 288.025 414.438 287.592 414.438 287C414.438 286.408 414.506 285.656 414.643 284.744C414.825 283.787 415.007 282.785 415.189 281.736C415.417 280.643 415.6 279.549 415.736 278.455C415.919 277.316 416.01 276.268 416.01 275.311C416.01 273.989 415.896 272.941 415.668 272.166C415.486 271.346 415.189 270.708 414.779 270.252C414.415 269.751 413.936 269.409 413.344 269.227C412.751 268.999 412.068 268.839 411.293 268.748C410.336 268.748 409.379 268.908 408.422 269.227C407.465 269.546 406.645 269.705 405.961 269.705C405.551 269.705 405.209 269.546 404.936 269.227C404.708 268.908 404.594 268.543 404.594 268.133C404.594 267.814 404.662 267.495 404.799 267.176C404.981 266.811 405.277 266.515 405.688 266.287ZM402.68 265.604C402.68 268.611 402.702 271.665 402.748 274.764C402.794 277.817 402.999 280.597 403.363 283.104V283.582C403.363 284.357 403.158 284.949 402.748 285.359C402.383 285.724 401.973 285.906 401.518 285.906C401.107 285.906 400.72 285.724 400.355 285.359C399.991 284.995 399.763 284.425 399.672 283.65C399.444 281.463 399.262 279.207 399.125 276.883C398.988 274.559 398.92 272.166 398.92 269.705C398.92 269.204 398.897 268.634 398.852 267.996C398.806 267.358 398.806 266.766 398.852 266.219C398.943 265.626 399.125 265.148 399.398 264.783C399.717 264.373 400.196 264.168 400.834 264.168C401.29 264.168 401.7 264.327 402.064 264.646C402.475 264.92 402.68 265.239 402.68 265.604ZM433.168 268.611H431.391C430.616 269.021 430.023 269.568 429.613 270.252C429.203 270.936 428.884 271.665 428.656 272.439C428.474 273.169 428.36 273.875 428.314 274.559C428.269 275.242 428.246 275.789 428.246 276.199C428.246 277.111 428.36 277.977 428.588 278.797C428.861 279.617 429.226 280.346 429.682 280.984C430.183 281.577 430.753 282.055 431.391 282.42C432.029 282.785 432.758 282.967 433.578 282.967C435.036 282.967 436.153 282.648 436.928 282.01C437.748 281.372 438.34 280.574 438.705 279.617C439.115 278.66 439.366 277.635 439.457 276.541C439.548 275.402 439.594 274.354 439.594 273.396C439.503 272.804 439.298 272.212 438.979 271.619C438.66 270.981 438.249 270.434 437.748 269.979C437.292 269.523 436.768 269.158 436.176 268.885C435.629 268.566 435.059 268.406 434.467 268.406C434.011 268.406 433.578 268.475 433.168 268.611ZM442.465 280.506C441.964 282.602 440.847 284.197 439.115 285.291C437.383 286.385 435.469 286.932 433.373 286.932C431.869 286.932 430.525 286.613 429.34 285.975C428.201 285.291 427.243 284.425 426.469 283.377C425.694 282.283 425.102 281.076 424.691 279.754C424.327 278.387 424.145 277.02 424.145 275.652C424.145 274.559 424.281 273.374 424.555 272.098C424.828 270.776 425.261 269.568 425.854 268.475C426.446 267.381 427.221 266.469 428.178 265.74C429.135 264.965 430.297 264.578 431.664 264.578C432.393 264.578 432.895 264.646 433.168 264.783C433.396 264.738 433.601 264.715 433.783 264.715C433.965 264.715 434.171 264.715 434.398 264.715C436.54 264.715 438.227 265.171 439.457 266.082C440.688 266.993 441.667 268.178 442.396 269.637C443.171 271.049 443.786 272.622 444.242 274.354C444.698 276.085 445.245 277.749 445.883 279.344C446.065 279.891 446.339 280.506 446.703 281.189C447.068 281.827 447.432 282.465 447.797 283.104C448.161 283.742 448.458 284.311 448.686 284.812C448.959 285.314 449.096 285.701 449.096 285.975C449.096 286.476 448.913 286.863 448.549 287.137C448.184 287.41 447.774 287.547 447.318 287.547C446.863 287.547 446.384 287.365 445.883 287C445.427 286.59 444.971 286.066 444.516 285.428C444.105 284.79 443.718 284.038 443.354 283.172C442.989 282.306 442.693 281.417 442.465 280.506ZM473.227 284.881C473.546 282.785 473.796 280.346 473.979 277.566C474.206 274.741 474.32 271.893 474.32 269.021C474.32 266.378 474.229 264.054 474.047 262.049C473.91 260.044 473.637 258.449 473.227 257.264C472.953 256.58 472.816 255.965 472.816 255.418C472.816 254.734 472.976 254.188 473.295 253.777C473.66 253.367 474.092 253.162 474.594 253.162C475.277 253.162 475.87 253.595 476.371 254.461C476.872 255.327 477.26 256.489 477.533 257.947C477.852 259.406 478.08 261.092 478.217 263.006C478.354 264.874 478.422 266.834 478.422 268.885C478.422 271.756 478.331 274.467 478.148 277.02C477.966 279.572 477.784 281.736 477.602 283.514C479.014 283.377 480.564 283.058 482.25 282.557C483.982 282.055 485.6 281.372 487.104 280.506C488.607 279.64 489.861 278.592 490.863 277.361C491.866 276.085 492.367 274.604 492.367 272.918C492.367 271.688 491.775 270.639 490.59 269.773C489.405 268.908 488.015 268.475 486.42 268.475C486.101 268.475 485.782 268.52 485.463 268.611C485.144 268.657 484.825 268.68 484.506 268.68C483.777 268.68 483.184 268.406 482.729 267.859C482.273 267.312 482.045 266.766 482.045 266.219C482.045 265.9 482.387 265.444 483.07 264.852C483.754 264.214 484.506 263.507 485.326 262.732C486.146 261.912 486.898 261.046 487.582 260.135C488.266 259.178 488.607 258.198 488.607 257.195C488.607 256.876 488.493 256.626 488.266 256.443C488.083 256.215 487.855 256.056 487.582 255.965C487.309 255.874 487.012 255.828 486.693 255.828C486.374 255.783 486.078 255.76 485.805 255.76C485.03 255.76 484.255 255.896 483.48 256.17C482.706 256.398 482.045 256.512 481.498 256.512C480.997 256.512 480.609 256.284 480.336 255.828C480.062 255.372 479.926 254.917 479.926 254.461C479.926 253.914 480.131 253.458 480.541 253.094C480.997 252.729 481.544 252.456 482.182 252.273C482.82 252.046 483.503 251.886 484.232 251.795C484.962 251.704 485.645 251.658 486.283 251.658C487.969 251.658 489.451 252.023 490.727 252.752C492.003 253.436 492.641 254.62 492.641 256.307C492.641 257.674 492.208 259.155 491.342 260.75C490.521 262.345 489.542 263.689 488.402 264.783C489.405 264.92 490.385 265.216 491.342 265.672C492.344 266.128 493.233 266.72 494.008 267.449C494.783 268.178 495.398 268.999 495.854 269.91C496.355 270.822 496.605 271.801 496.605 272.85C496.605 275.037 496.013 277.042 494.828 278.865C493.689 280.688 492.162 282.26 490.248 283.582C488.38 284.858 486.238 285.861 483.822 286.59C481.407 287.319 478.946 287.684 476.439 287.684C475.437 287.684 474.639 287.501 474.047 287.137C473.454 286.818 473.158 286.202 473.158 285.291C473.158 285.2 473.158 285.132 473.158 285.086C473.204 285.04 473.227 284.972 473.227 284.881ZM505.219 267.518C505.128 268.566 505.036 269.66 504.945 270.799C504.9 271.938 504.877 273.1 504.877 274.285C504.877 275.971 504.945 277.658 505.082 279.344C505.264 281.03 505.355 282.671 505.355 284.266C505.355 285.177 505.128 285.861 504.672 286.316C504.262 286.772 503.806 287 503.305 287C502.849 287 502.462 286.84 502.143 286.521C501.869 286.157 501.71 285.61 501.664 284.881C501.527 282.83 501.391 280.962 501.254 279.275C501.163 277.544 501.117 275.812 501.117 274.08C501.117 273.396 501.094 272.531 501.049 271.482C501.049 270.389 501.094 269.363 501.186 268.406C501.322 267.404 501.55 266.561 501.869 265.877C502.234 265.148 502.781 264.783 503.51 264.783C503.965 264.783 504.353 264.988 504.672 265.398C505.036 265.809 505.219 266.355 505.219 267.039V267.518ZM501.938 251.932C502.12 251.84 502.279 251.795 502.416 251.795C502.598 251.795 502.758 251.818 502.895 251.863C503.077 251.909 503.214 251.932 503.305 251.932C503.533 251.886 503.738 251.863 503.92 251.863C504.102 251.818 504.307 251.795 504.535 251.795C506.039 251.795 507.156 252.296 507.885 253.299C508.66 254.301 509.047 255.372 509.047 256.512C509.047 257.059 508.91 257.651 508.637 258.289C508.409 258.927 508.044 259.52 507.543 260.066C507.087 260.568 506.495 261.001 505.766 261.365C505.036 261.73 504.193 261.912 503.236 261.912C502.598 261.912 502.006 261.753 501.459 261.434C500.912 261.115 500.434 260.727 500.023 260.271C499.613 259.77 499.294 259.223 499.066 258.631C498.839 257.993 498.725 257.378 498.725 256.785C498.725 255.874 499.021 254.917 499.613 253.914C500.251 252.911 501.026 252.251 501.938 251.932ZM503.578 255.486H503.031C502.803 255.577 502.644 255.737 502.553 255.965C502.462 256.193 502.416 256.421 502.416 256.648C502.416 257.059 502.576 257.446 502.895 257.811C503.214 258.13 503.51 258.289 503.783 258.289C504.467 258.289 504.923 258.084 505.15 257.674C505.378 257.218 505.492 256.808 505.492 256.443C505.264 255.714 504.809 255.35 504.125 255.35C504.034 255.35 503.852 255.395 503.578 255.486ZM520.258 268.885C519.438 269.249 519.027 269.865 519.027 270.73C519.027 271.277 519.438 271.938 520.258 272.713C521.124 273.488 522.081 274.285 523.129 275.105C524.223 275.88 525.271 276.632 526.273 277.361C527.276 278.09 527.96 278.683 528.324 279.139C529.008 280.096 529.35 281.076 529.35 282.078C529.35 283.126 529.122 283.969 528.666 284.607C528.256 285.245 527.663 285.747 526.889 286.111C526.16 286.476 525.294 286.727 524.291 286.863C523.334 287 522.331 287.068 521.283 287.068C520.554 287.068 519.665 287.046 518.617 287C517.569 286.954 516.544 286.84 515.541 286.658C514.584 286.476 513.764 286.225 513.08 285.906C512.396 285.542 512.055 285.086 512.055 284.539C512.055 284.083 512.191 283.605 512.465 283.104C512.738 282.602 513.126 282.352 513.627 282.352C513.673 282.352 513.718 282.374 513.764 282.42C513.809 282.42 513.878 282.42 513.969 282.42C514.971 282.693 516.247 282.898 517.797 283.035C519.346 283.172 520.85 283.24 522.309 283.24C523.083 283.24 523.721 283.126 524.223 282.898C524.724 282.625 524.975 282.238 524.975 281.736C524.975 281.281 524.747 280.802 524.291 280.301C523.835 279.754 523.266 279.23 522.582 278.729C521.944 278.227 521.26 277.749 520.531 277.293C519.848 276.837 519.255 276.427 518.754 276.062C517.296 275.06 516.225 274.126 515.541 273.26C514.903 272.348 514.584 271.368 514.584 270.32C514.584 269.135 514.88 268.178 515.473 267.449C516.111 266.674 516.908 266.059 517.865 265.604C518.822 265.148 519.87 264.852 521.01 264.715C522.195 264.533 523.334 264.441 524.428 264.441C525.066 264.441 525.704 264.464 526.342 264.51C526.98 264.555 527.549 264.669 528.051 264.852C528.552 264.988 528.962 265.216 529.281 265.535C529.6 265.809 529.76 266.196 529.76 266.697C529.76 267.199 529.646 267.632 529.418 267.996C529.236 268.361 528.917 268.543 528.461 268.543C528.051 268.543 527.436 268.475 526.615 268.338C525.84 268.201 524.929 268.133 523.881 268.133C522.468 268.133 521.26 268.383 520.258 268.885ZM562.367 265.877C562.367 265.421 562.572 265.057 562.982 264.783C563.438 264.464 563.939 264.305 564.486 264.305C564.988 264.305 565.421 264.464 565.785 264.783C566.195 265.057 566.423 265.512 566.469 266.15C566.059 269.568 565.603 272.986 565.102 276.404C564.646 279.822 564.19 283.104 563.734 286.248C563.598 286.886 563.324 287.365 562.914 287.684C562.504 288.048 562.094 288.23 561.684 288.23C561.273 288.23 560.886 288.094 560.521 287.82C560.157 287.592 559.906 287.16 559.77 286.521C558.311 285.018 556.83 283.445 555.326 281.805C553.822 280.118 552.432 278.318 551.156 276.404C551.02 276.268 550.883 276.131 550.746 275.994C550.609 275.857 550.45 275.789 550.268 275.789C550.085 275.789 549.675 276.085 549.037 276.678C548.445 277.225 547.693 277.977 546.781 278.934C545.915 279.845 544.936 280.87 543.842 282.01C542.794 283.104 541.723 284.197 540.629 285.291C540.264 285.656 539.831 285.997 539.33 286.316C538.874 286.59 538.419 286.727 537.963 286.727C537.598 286.727 537.279 286.385 537.006 285.701C536.732 284.972 536.482 284.038 536.254 282.898C536.026 281.759 535.821 280.46 535.639 279.002C535.456 277.544 535.297 276.062 535.16 274.559C535.023 273.055 534.91 271.619 534.818 270.252C534.727 268.839 534.659 267.609 534.613 266.561C534.613 265.923 534.796 265.421 535.16 265.057C535.57 264.646 536.026 264.441 536.527 264.441C537.029 264.441 537.484 264.601 537.895 264.92C538.35 265.239 538.624 265.74 538.715 266.424C538.852 268.748 539.034 271.186 539.262 273.738C539.535 276.29 539.809 278.546 540.082 280.506L547.328 272.713C548.285 271.665 549.311 271.141 550.404 271.141C550.906 271.141 551.407 271.277 551.908 271.551C552.41 271.779 552.842 272.166 553.207 272.713C554.255 274.308 555.372 275.926 556.557 277.566C557.787 279.161 559.04 280.643 560.316 282.01C560.499 280.916 560.681 279.686 560.863 278.318C561.091 276.951 561.296 275.538 561.479 274.08C561.661 272.576 561.82 271.118 561.957 269.705C562.139 268.292 562.276 267.016 562.367 265.877ZM580.004 268.611H578.227C577.452 269.021 576.859 269.568 576.449 270.252C576.039 270.936 575.72 271.665 575.492 272.439C575.31 273.169 575.196 273.875 575.15 274.559C575.105 275.242 575.082 275.789 575.082 276.199C575.082 277.111 575.196 277.977 575.424 278.797C575.697 279.617 576.062 280.346 576.518 280.984C577.019 281.577 577.589 282.055 578.227 282.42C578.865 282.785 579.594 282.967 580.414 282.967C581.872 282.967 582.989 282.648 583.764 282.01C584.584 281.372 585.176 280.574 585.541 279.617C585.951 278.66 586.202 277.635 586.293 276.541C586.384 275.402 586.43 274.354 586.43 273.396C586.339 272.804 586.133 272.212 585.814 271.619C585.495 270.981 585.085 270.434 584.584 269.979C584.128 269.523 583.604 269.158 583.012 268.885C582.465 268.566 581.895 268.406 581.303 268.406C580.847 268.406 580.414 268.475 580.004 268.611ZM589.301 280.506C588.799 282.602 587.683 284.197 585.951 285.291C584.219 286.385 582.305 286.932 580.209 286.932C578.705 286.932 577.361 286.613 576.176 285.975C575.036 285.291 574.079 284.425 573.305 283.377C572.53 282.283 571.938 281.076 571.527 279.754C571.163 278.387 570.98 277.02 570.98 275.652C570.98 274.559 571.117 273.374 571.391 272.098C571.664 270.776 572.097 269.568 572.689 268.475C573.282 267.381 574.057 266.469 575.014 265.74C575.971 264.965 577.133 264.578 578.5 264.578C579.229 264.578 579.73 264.646 580.004 264.783C580.232 264.738 580.437 264.715 580.619 264.715C580.801 264.715 581.007 264.715 581.234 264.715C583.376 264.715 585.062 265.171 586.293 266.082C587.523 266.993 588.503 268.178 589.232 269.637C590.007 271.049 590.622 272.622 591.078 274.354C591.534 276.085 592.081 277.749 592.719 279.344C592.901 279.891 593.174 280.506 593.539 281.189C593.904 281.827 594.268 282.465 594.633 283.104C594.997 283.742 595.294 284.311 595.521 284.812C595.795 285.314 595.932 285.701 595.932 285.975C595.932 286.476 595.749 286.863 595.385 287.137C595.02 287.41 594.61 287.547 594.154 287.547C593.699 287.547 593.22 287.365 592.719 287C592.263 286.59 591.807 286.066 591.352 285.428C590.941 284.79 590.554 284.038 590.189 283.172C589.825 282.306 589.529 281.417 589.301 280.506ZM606.664 268.885C605.844 269.249 605.434 269.865 605.434 270.73C605.434 271.277 605.844 271.938 606.664 272.713C607.53 273.488 608.487 274.285 609.535 275.105C610.629 275.88 611.677 276.632 612.68 277.361C613.682 278.09 614.366 278.683 614.73 279.139C615.414 280.096 615.756 281.076 615.756 282.078C615.756 283.126 615.528 283.969 615.072 284.607C614.662 285.245 614.07 285.747 613.295 286.111C612.566 286.476 611.7 286.727 610.697 286.863C609.74 287 608.738 287.068 607.689 287.068C606.96 287.068 606.072 287.046 605.023 287C603.975 286.954 602.95 286.84 601.947 286.658C600.99 286.476 600.17 286.225 599.486 285.906C598.803 285.542 598.461 285.086 598.461 284.539C598.461 284.083 598.598 283.605 598.871 283.104C599.145 282.602 599.532 282.352 600.033 282.352C600.079 282.352 600.124 282.374 600.17 282.42C600.215 282.42 600.284 282.42 600.375 282.42C601.378 282.693 602.654 282.898 604.203 283.035C605.753 283.172 607.257 283.24 608.715 283.24C609.49 283.24 610.128 283.126 610.629 282.898C611.13 282.625 611.381 282.238 611.381 281.736C611.381 281.281 611.153 280.802 610.697 280.301C610.242 279.754 609.672 279.23 608.988 278.729C608.35 278.227 607.667 277.749 606.938 277.293C606.254 276.837 605.661 276.427 605.16 276.062C603.702 275.06 602.631 274.126 601.947 273.26C601.309 272.348 600.99 271.368 600.99 270.32C600.99 269.135 601.286 268.178 601.879 267.449C602.517 266.674 603.314 266.059 604.271 265.604C605.229 265.148 606.277 264.852 607.416 264.715C608.601 264.533 609.74 264.441 610.834 264.441C611.472 264.441 612.11 264.464 612.748 264.51C613.386 264.555 613.956 264.669 614.457 264.852C614.958 264.988 615.368 265.216 615.688 265.535C616.007 265.809 616.166 266.196 616.166 266.697C616.166 267.199 616.052 267.632 615.824 267.996C615.642 268.361 615.323 268.543 614.867 268.543C614.457 268.543 613.842 268.475 613.021 268.338C612.247 268.201 611.335 268.133 610.287 268.133C608.874 268.133 607.667 268.383 606.664 268.885Z" fill="white"/>
<path d="M249.375 244.89C248.765 252.196 246.29 259.158 242.238 264.962C238.186 270.766 232.726 275.172 226.496 277.664C220.266 280.156 213.523 280.632 207.058 279.035C200.593 277.439 194.672 273.836 189.988 268.648C185.304 263.461 182.05 256.903 180.609 249.742C179.167 242.582 179.597 235.114 181.847 228.214C184.098 221.314 188.076 215.267 193.316 210.779C198.557 206.292 204.843 203.55 211.439 202.875C207.577 208.661 205.719 215.791 206.202 222.966C206.685 230.142 209.477 236.887 214.071 241.975C218.665 247.063 224.756 250.155 231.235 250.69C237.713 251.226 244.15 249.167 249.375 244.89Z" stroke="#F3F3F3" stroke-width="5.83333" stroke-linecap="round" stroke-linejoin="round"/>
<path d="M181.466 322H179.705C179.6 321.493 179.418 321.048 179.158 320.665C178.902 320.281 178.589 319.959 178.22 319.699C177.856 319.434 177.451 319.235 177.006 319.102C176.561 318.97 176.097 318.903 175.614 318.903C174.733 318.903 173.935 319.126 173.22 319.571C172.51 320.016 171.944 320.672 171.523 321.538C171.106 322.405 170.898 323.468 170.898 324.727C170.898 325.987 171.106 327.05 171.523 327.916C171.944 328.783 172.51 329.438 173.22 329.884C173.935 330.329 174.733 330.551 175.614 330.551C176.097 330.551 176.561 330.485 177.006 330.352C177.451 330.22 177.856 330.023 178.22 329.763C178.589 329.498 178.902 329.173 179.158 328.79C179.418 328.402 179.6 327.956 179.705 327.455H181.466C181.333 328.198 181.092 328.863 180.741 329.45C180.391 330.037 179.955 330.537 179.435 330.949C178.914 331.356 178.329 331.666 177.68 331.879C177.036 332.092 176.348 332.199 175.614 332.199C174.373 332.199 173.27 331.896 172.304 331.29C171.338 330.684 170.578 329.822 170.024 328.705C169.47 327.587 169.193 326.261 169.193 324.727C169.193 323.193 169.47 321.867 170.024 320.75C170.578 319.633 171.338 318.771 172.304 318.165C173.27 317.559 174.373 317.256 175.614 317.256C176.348 317.256 177.036 317.362 177.68 317.575C178.329 317.788 178.914 318.101 179.435 318.513C179.955 318.92 180.391 319.417 180.741 320.004C181.092 320.587 181.333 321.252 181.466 322ZM192.267 321.091C192.181 320.371 191.836 319.812 191.23 319.415C190.624 319.017 189.88 318.818 189 318.818C188.356 318.818 187.792 318.922 187.309 319.131C186.831 319.339 186.457 319.625 186.187 319.99C185.922 320.355 185.789 320.769 185.789 321.233C185.789 321.621 185.882 321.955 186.066 322.234C186.256 322.509 186.497 322.739 186.791 322.923C187.084 323.103 187.392 323.252 187.714 323.371C188.036 323.484 188.332 323.577 188.602 323.648L190.079 324.045C190.458 324.145 190.879 324.282 191.343 324.457C191.812 324.633 192.26 324.872 192.686 325.175C193.117 325.473 193.472 325.857 193.751 326.325C194.03 326.794 194.17 327.369 194.17 328.051C194.17 328.837 193.964 329.547 193.552 330.182C193.145 330.816 192.548 331.321 191.762 331.695C190.981 332.069 190.032 332.256 188.914 332.256C187.873 332.256 186.971 332.088 186.208 331.751C185.451 331.415 184.854 330.946 184.419 330.345C183.988 329.744 183.744 329.045 183.687 328.25H185.505C185.553 328.799 185.737 329.254 186.059 329.614C186.386 329.969 186.798 330.234 187.295 330.409C187.797 330.58 188.337 330.665 188.914 330.665C189.587 330.665 190.19 330.556 190.725 330.338C191.261 330.116 191.684 329.808 191.997 329.415C192.309 329.017 192.466 328.553 192.466 328.023C192.466 327.54 192.331 327.147 192.061 326.844C191.791 326.541 191.436 326.295 190.995 326.105C190.555 325.916 190.079 325.75 189.568 325.608L187.778 325.097C186.642 324.77 185.742 324.304 185.079 323.697C184.416 323.091 184.085 322.298 184.085 321.318C184.085 320.504 184.305 319.794 184.745 319.188C185.19 318.577 185.787 318.103 186.535 317.767C187.288 317.426 188.128 317.256 189.056 317.256C189.994 317.256 190.827 317.424 191.556 317.76C192.286 318.091 192.863 318.546 193.289 319.124C193.72 319.701 193.948 320.357 193.971 321.091H192.267ZM197.066 332V317.455H205.844V319.017H198.827V323.932H205.39V325.494H198.827V330.438H205.958V332H197.066ZM224.19 317.455H225.951V327.085C225.951 328.08 225.717 328.967 225.248 329.749C224.784 330.525 224.128 331.138 223.281 331.588C222.433 332.033 221.439 332.256 220.298 332.256C219.156 332.256 218.162 332.033 217.315 331.588C216.467 331.138 215.809 330.525 215.34 329.749C214.876 328.967 214.644 328.08 214.644 327.085V317.455H216.406V326.943C216.406 327.653 216.562 328.286 216.874 328.839C217.187 329.389 217.632 329.822 218.21 330.139C218.792 330.452 219.488 330.608 220.298 330.608C221.107 330.608 221.803 330.452 222.386 330.139C222.968 329.822 223.413 329.389 223.721 328.839C224.033 328.286 224.19 327.653 224.19 326.943V317.455ZM230.917 325.438V332H229.241V321.091H230.86V322.795H231.002C231.258 322.241 231.646 321.796 232.167 321.46C232.688 321.119 233.36 320.949 234.184 320.949C234.923 320.949 235.569 321.1 236.123 321.403C236.677 321.702 237.108 322.156 237.416 322.767C237.724 323.373 237.877 324.14 237.877 325.068V332H236.201V325.182C236.201 324.325 235.979 323.657 235.534 323.179C235.089 322.696 234.478 322.455 233.701 322.455C233.166 322.455 232.688 322.571 232.267 322.803C231.85 323.035 231.521 323.373 231.279 323.818C231.038 324.263 230.917 324.803 230.917 325.438ZM245.06 332.227C244.151 332.227 243.348 331.998 242.652 331.538C241.956 331.074 241.411 330.421 241.018 329.578C240.625 328.731 240.429 327.729 240.429 326.574C240.429 325.428 240.625 324.434 241.018 323.591C241.411 322.748 241.958 322.097 242.659 321.638C243.36 321.179 244.17 320.949 245.088 320.949C245.798 320.949 246.359 321.067 246.771 321.304C247.188 321.536 247.505 321.801 247.723 322.099C247.946 322.393 248.118 322.634 248.241 322.824H248.384V317.455H250.06V332H248.44V330.324H248.241C248.118 330.523 247.943 330.774 247.716 331.077C247.489 331.375 247.164 331.643 246.743 331.879C246.321 332.111 245.76 332.227 245.06 332.227ZM245.287 330.722C245.959 330.722 246.527 330.546 246.991 330.196C247.455 329.841 247.808 329.351 248.05 328.726C248.291 328.096 248.412 327.369 248.412 326.545C248.412 325.731 248.294 325.018 248.057 324.408C247.82 323.792 247.47 323.314 247.006 322.973C246.542 322.627 245.969 322.455 245.287 322.455C244.577 322.455 243.985 322.637 243.511 323.001C243.043 323.361 242.69 323.851 242.453 324.472C242.221 325.087 242.105 325.778 242.105 326.545C242.105 327.322 242.223 328.027 242.46 328.662C242.702 329.292 243.057 329.794 243.526 330.168C243.999 330.537 244.586 330.722 245.287 330.722ZM257.936 332.227C256.885 332.227 255.978 331.995 255.216 331.531C254.458 331.062 253.874 330.409 253.462 329.571C253.054 328.728 252.851 327.748 252.851 326.631C252.851 325.513 253.054 324.528 253.462 323.676C253.874 322.819 254.446 322.152 255.18 321.673C255.919 321.19 256.781 320.949 257.766 320.949C258.334 320.949 258.895 321.044 259.449 321.233C260.003 321.422 260.507 321.73 260.962 322.156C261.416 322.578 261.778 323.136 262.048 323.832C262.318 324.528 262.453 325.385 262.453 326.403V327.114H254.044V325.665H260.749C260.749 325.049 260.625 324.5 260.379 324.017C260.138 323.534 259.792 323.153 259.342 322.874C258.897 322.594 258.372 322.455 257.766 322.455C257.098 322.455 256.52 322.62 256.033 322.952C255.55 323.278 255.178 323.705 254.918 324.23C254.657 324.756 254.527 325.319 254.527 325.92V326.886C254.527 327.71 254.669 328.409 254.953 328.982C255.242 329.55 255.642 329.983 256.153 330.281C256.665 330.575 257.259 330.722 257.936 330.722C258.376 330.722 258.774 330.66 259.129 330.537C259.489 330.409 259.799 330.22 260.06 329.969C260.32 329.713 260.521 329.396 260.663 329.017L262.283 329.472C262.112 330.021 261.826 330.504 261.423 330.92C261.021 331.332 260.524 331.654 259.932 331.886C259.34 332.114 258.675 332.227 257.936 332.227ZM265.003 332V321.091H266.622V322.739H266.736C266.935 322.199 267.295 321.761 267.815 321.425C268.336 321.089 268.923 320.92 269.577 320.92C269.7 320.92 269.854 320.923 270.038 320.928C270.223 320.932 270.363 320.939 270.457 320.949V322.653C270.401 322.639 270.27 322.618 270.067 322.589C269.868 322.556 269.657 322.54 269.435 322.54C268.904 322.54 268.431 322.651 268.014 322.874C267.602 323.091 267.276 323.394 267.034 323.783C266.797 324.166 266.679 324.604 266.679 325.097V332H265.003ZM276.516 336.318C275.706 336.318 275.01 336.214 274.428 336.006C273.845 335.802 273.36 335.532 272.972 335.196C272.588 334.865 272.283 334.509 272.055 334.131L273.391 333.193C273.542 333.392 273.734 333.619 273.966 333.875C274.198 334.135 274.515 334.36 274.918 334.55C275.325 334.744 275.857 334.841 276.516 334.841C277.396 334.841 278.123 334.628 278.696 334.202C279.269 333.776 279.555 333.108 279.555 332.199V329.983H279.413C279.29 330.182 279.115 330.428 278.888 330.722C278.665 331.01 278.343 331.268 277.922 331.496C277.505 331.718 276.942 331.83 276.232 331.83C275.351 331.83 274.56 331.621 273.859 331.205C273.163 330.788 272.612 330.182 272.205 329.386C271.802 328.591 271.601 327.625 271.601 326.489C271.601 325.371 271.797 324.398 272.19 323.57C272.583 322.736 273.13 322.092 273.831 321.638C274.532 321.179 275.341 320.949 276.26 320.949C276.97 320.949 277.534 321.067 277.95 321.304C278.372 321.536 278.694 321.801 278.916 322.099C279.143 322.393 279.319 322.634 279.442 322.824H279.612V321.091H281.232V332.312C281.232 333.25 281.018 334.012 280.592 334.599C280.171 335.191 279.603 335.625 278.888 335.899C278.178 336.179 277.387 336.318 276.516 336.318ZM276.459 330.324C277.131 330.324 277.699 330.17 278.163 329.862C278.627 329.554 278.98 329.112 279.222 328.534C279.463 327.956 279.584 327.265 279.584 326.46C279.584 325.674 279.465 324.981 279.229 324.379C278.992 323.778 278.642 323.307 278.178 322.966C277.714 322.625 277.141 322.455 276.459 322.455C275.749 322.455 275.157 322.634 274.683 322.994C274.214 323.354 273.862 323.837 273.625 324.443C273.393 325.049 273.277 325.722 273.277 326.46C273.277 327.218 273.395 327.888 273.632 328.47C273.874 329.048 274.229 329.502 274.697 329.834C275.171 330.161 275.758 330.324 276.459 330.324ZM284.3 332V321.091H285.919V322.739H286.033C286.232 322.199 286.591 321.761 287.112 321.425C287.633 321.089 288.22 320.92 288.874 320.92C288.997 320.92 289.151 320.923 289.335 320.928C289.52 320.932 289.66 320.939 289.754 320.949V322.653C289.697 322.639 289.567 322.618 289.364 322.589C289.165 322.556 288.954 322.54 288.732 322.54C288.201 322.54 287.728 322.651 287.311 322.874C286.899 323.091 286.572 323.394 286.331 323.783C286.094 324.166 285.976 324.604 285.976 325.097V332H284.3ZM294.951 332.256C294.26 332.256 293.633 332.125 293.069 331.865C292.506 331.6 292.058 331.219 291.727 330.722C291.395 330.22 291.23 329.614 291.23 328.903C291.23 328.278 291.353 327.772 291.599 327.384C291.845 326.991 292.174 326.683 292.586 326.46C292.998 326.238 293.453 326.072 293.95 325.963C294.452 325.849 294.956 325.759 295.463 325.693C296.126 325.608 296.663 325.544 297.075 325.501C297.492 325.454 297.795 325.376 297.984 325.267C298.178 325.158 298.275 324.969 298.275 324.699V324.642C298.275 323.941 298.083 323.397 297.7 323.009C297.321 322.62 296.746 322.426 295.974 322.426C295.174 322.426 294.547 322.601 294.092 322.952C293.637 323.302 293.318 323.676 293.133 324.074L291.542 323.506C291.826 322.843 292.205 322.327 292.679 321.957C293.157 321.583 293.678 321.323 294.241 321.176C294.809 321.025 295.368 320.949 295.917 320.949C296.268 320.949 296.67 320.991 297.125 321.077C297.584 321.157 298.027 321.325 298.453 321.581C298.884 321.837 299.241 322.223 299.525 322.739C299.809 323.255 299.951 323.946 299.951 324.812V332H298.275V330.523H298.19C298.076 330.759 297.887 331.013 297.622 331.283C297.357 331.553 297.004 331.782 296.564 331.972C296.123 332.161 295.586 332.256 294.951 332.256ZM295.207 330.75C295.87 330.75 296.429 330.62 296.883 330.359C297.342 330.099 297.688 329.763 297.92 329.351C298.157 328.939 298.275 328.506 298.275 328.051V326.517C298.204 326.602 298.048 326.68 297.806 326.751C297.57 326.818 297.295 326.877 296.983 326.929C296.675 326.976 296.374 327.019 296.081 327.057C295.792 327.09 295.557 327.118 295.377 327.142C294.942 327.199 294.535 327.291 294.156 327.419C293.782 327.542 293.479 327.729 293.247 327.98C293.02 328.226 292.906 328.562 292.906 328.989C292.906 329.571 293.121 330.011 293.552 330.31C293.988 330.603 294.539 330.75 295.207 330.75ZM307.13 332.227C306.221 332.227 305.418 331.998 304.722 331.538C304.026 331.074 303.482 330.421 303.089 329.578C302.696 328.731 302.499 327.729 302.499 326.574C302.499 325.428 302.696 324.434 303.089 323.591C303.482 322.748 304.029 322.097 304.729 321.638C305.43 321.179 306.24 320.949 307.158 320.949C307.869 320.949 308.43 321.067 308.842 321.304C309.258 321.536 309.576 321.801 309.793 322.099C310.016 322.393 310.189 322.634 310.312 322.824H310.454V317.455H312.13V332H310.511V330.324H310.312C310.189 330.523 310.013 330.774 309.786 331.077C309.559 331.375 309.235 331.643 308.813 331.879C308.392 332.111 307.831 332.227 307.13 332.227ZM307.357 330.722C308.03 330.722 308.598 330.546 309.062 330.196C309.526 329.841 309.879 329.351 310.12 328.726C310.362 328.096 310.482 327.369 310.482 326.545C310.482 325.731 310.364 325.018 310.127 324.408C309.89 323.792 309.54 323.314 309.076 322.973C308.612 322.627 308.039 322.455 307.357 322.455C306.647 322.455 306.055 322.637 305.582 323.001C305.113 323.361 304.76 323.851 304.523 324.472C304.291 325.087 304.175 325.778 304.175 326.545C304.175 327.322 304.294 328.027 304.531 328.662C304.772 329.292 305.127 329.794 305.596 330.168C306.069 330.537 306.656 330.722 307.357 330.722ZM323.501 312.767V336.688H322.08V312.767H323.501ZM333.453 332V317.455H342.174V319.017H335.214V323.932H341.521V325.494H335.214V332H333.453ZM351.155 327.54V321.091H352.831V332H351.155V330.153H351.042C350.786 330.707 350.388 331.179 349.848 331.567C349.309 331.95 348.627 332.142 347.803 332.142C347.121 332.142 346.515 331.993 345.985 331.695C345.454 331.392 345.038 330.937 344.735 330.331C344.432 329.72 344.28 328.951 344.28 328.023V321.091H345.956V327.909C345.956 328.705 346.179 329.339 346.624 329.812C347.074 330.286 347.647 330.523 348.343 330.523C348.759 330.523 349.183 330.416 349.614 330.203C350.05 329.99 350.414 329.663 350.708 329.223C351.006 328.783 351.155 328.222 351.155 327.54ZM357.577 317.455V332H355.901V317.455H357.577ZM362.324 317.455V332H360.647V317.455H362.324ZM379.2 321.091C379.115 320.371 378.769 319.812 378.163 319.415C377.557 319.017 376.814 318.818 375.933 318.818C375.289 318.818 374.726 318.922 374.243 319.131C373.765 319.339 373.391 319.625 373.121 319.99C372.856 320.355 372.723 320.769 372.723 321.233C372.723 321.621 372.815 321.955 373 322.234C373.189 322.509 373.431 322.739 373.724 322.923C374.018 323.103 374.326 323.252 374.648 323.371C374.97 323.484 375.266 323.577 375.536 323.648L377.013 324.045C377.392 324.145 377.813 324.282 378.277 324.457C378.746 324.633 379.193 324.872 379.619 325.175C380.05 325.473 380.405 325.857 380.685 326.325C380.964 326.794 381.104 327.369 381.104 328.051C381.104 328.837 380.898 329.547 380.486 330.182C380.079 330.816 379.482 331.321 378.696 331.695C377.915 332.069 376.965 332.256 375.848 332.256C374.806 332.256 373.904 332.088 373.142 331.751C372.384 331.415 371.788 330.946 371.352 330.345C370.921 329.744 370.678 329.045 370.621 328.25H372.439C372.486 328.799 372.671 329.254 372.993 329.614C373.32 329.969 373.732 330.234 374.229 330.409C374.731 330.58 375.27 330.665 375.848 330.665C376.52 330.665 377.124 330.556 377.659 330.338C378.194 330.116 378.618 329.808 378.93 329.415C379.243 329.017 379.399 328.553 379.399 328.023C379.399 327.54 379.264 327.147 378.994 326.844C378.724 326.541 378.369 326.295 377.929 326.105C377.489 325.916 377.013 325.75 376.501 325.608L374.712 325.097C373.575 324.77 372.676 324.304 372.013 323.697C371.35 323.091 371.018 322.298 371.018 321.318C371.018 320.504 371.239 319.794 371.679 319.188C372.124 318.577 372.721 318.103 373.469 317.767C374.222 317.426 375.062 317.256 375.99 317.256C376.928 317.256 377.761 317.424 378.49 317.76C379.219 318.091 379.797 318.546 380.223 319.124C380.654 319.701 380.881 320.357 380.905 321.091H379.2ZM388.517 321.091V322.511H382.863V321.091H388.517ZM384.511 318.477H386.187V328.875C386.187 329.348 386.256 329.704 386.393 329.94C386.535 330.172 386.715 330.329 386.933 330.409C387.155 330.485 387.39 330.523 387.636 330.523C387.821 330.523 387.972 330.513 388.091 330.494C388.209 330.471 388.304 330.452 388.375 330.438L388.716 331.943C388.602 331.986 388.443 332.028 388.24 332.071C388.036 332.118 387.778 332.142 387.466 332.142C386.992 332.142 386.528 332.04 386.074 331.837C385.624 331.633 385.25 331.323 384.951 330.906C384.658 330.49 384.511 329.964 384.511 329.33V318.477ZM394.248 332.256C393.557 332.256 392.93 332.125 392.366 331.865C391.803 331.6 391.355 331.219 391.024 330.722C390.692 330.22 390.527 329.614 390.527 328.903C390.527 328.278 390.65 327.772 390.896 327.384C391.142 326.991 391.471 326.683 391.883 326.46C392.295 326.238 392.75 326.072 393.247 325.963C393.749 325.849 394.253 325.759 394.76 325.693C395.422 325.608 395.96 325.544 396.372 325.501C396.788 325.454 397.092 325.376 397.281 325.267C397.475 325.158 397.572 324.969 397.572 324.699V324.642C397.572 323.941 397.38 323.397 396.997 323.009C396.618 322.62 396.043 322.426 395.271 322.426C394.471 322.426 393.843 322.601 393.389 322.952C392.934 323.302 392.615 323.676 392.43 324.074L390.839 323.506C391.123 322.843 391.502 322.327 391.975 321.957C392.454 321.583 392.975 321.323 393.538 321.176C394.106 321.025 394.665 320.949 395.214 320.949C395.565 320.949 395.967 320.991 396.422 321.077C396.881 321.157 397.324 321.325 397.75 321.581C398.181 321.837 398.538 322.223 398.822 322.739C399.106 323.255 399.248 323.946 399.248 324.812V332H397.572V330.523H397.487C397.373 330.759 397.184 331.013 396.919 331.283C396.654 331.553 396.301 331.782 395.86 331.972C395.42 332.161 394.883 332.256 394.248 332.256ZM394.504 330.75C395.167 330.75 395.725 330.62 396.18 330.359C396.639 330.099 396.985 329.763 397.217 329.351C397.454 328.939 397.572 328.506 397.572 328.051V326.517C397.501 326.602 397.345 326.68 397.103 326.751C396.867 326.818 396.592 326.877 396.279 326.929C395.972 326.976 395.671 327.019 395.377 327.057C395.089 327.09 394.854 327.118 394.674 327.142C394.239 327.199 393.832 327.291 393.453 327.419C393.079 327.542 392.776 327.729 392.544 327.98C392.316 328.226 392.203 328.562 392.203 328.989C392.203 329.571 392.418 330.011 392.849 330.31C393.285 330.603 393.836 330.75 394.504 330.75ZM406.739 332.227C405.717 332.227 404.836 331.986 404.097 331.503C403.359 331.02 402.79 330.355 402.393 329.507C401.995 328.66 401.796 327.691 401.796 326.602C401.796 325.494 402 324.517 402.407 323.669C402.819 322.817 403.392 322.152 404.126 321.673C404.864 321.19 405.726 320.949 406.711 320.949C407.478 320.949 408.169 321.091 408.785 321.375C409.4 321.659 409.905 322.057 410.298 322.568C410.691 323.08 410.934 323.676 411.029 324.358H409.353C409.225 323.861 408.941 323.42 408.501 323.037C408.065 322.649 407.478 322.455 406.739 322.455C406.086 322.455 405.513 322.625 405.021 322.966C404.533 323.302 404.152 323.778 403.877 324.393C403.607 325.004 403.472 325.722 403.472 326.545C403.472 327.388 403.605 328.122 403.87 328.747C404.14 329.372 404.519 329.857 405.006 330.203C405.499 330.549 406.076 330.722 406.739 330.722C407.175 330.722 407.57 330.646 407.925 330.494C408.281 330.343 408.581 330.125 408.827 329.841C409.074 329.557 409.249 329.216 409.353 328.818H411.029C410.934 329.462 410.7 330.042 410.326 330.558C409.957 331.07 409.467 331.477 408.856 331.78C408.25 332.078 407.544 332.227 406.739 332.227ZM415.042 328.023L415.013 325.949H415.354L420.127 321.091H422.201L417.116 326.233H416.974L415.042 328.023ZM413.479 332V317.455H415.156V332H413.479ZM420.411 332L416.15 326.602L417.343 325.438L422.542 332H420.411ZM434.699 332H430.211V317.455H434.898C436.309 317.455 437.516 317.746 438.52 318.328C439.524 318.906 440.293 319.737 440.828 320.821C441.364 321.901 441.631 323.193 441.631 324.699C441.631 326.214 441.361 327.518 440.821 328.612C440.282 329.701 439.496 330.539 438.463 331.126C437.431 331.709 436.176 332 434.699 332ZM431.972 330.438H434.586C435.788 330.438 436.785 330.205 437.576 329.741C438.366 329.277 438.956 328.617 439.344 327.76C439.732 326.903 439.926 325.883 439.926 324.699C439.926 323.525 439.735 322.514 439.351 321.666C438.968 320.814 438.395 320.161 437.632 319.706C436.87 319.247 435.921 319.017 434.784 319.017H431.972V330.438ZM448.932 332.227C447.881 332.227 446.974 331.995 446.212 331.531C445.454 331.062 444.87 330.409 444.458 329.571C444.051 328.728 443.847 327.748 443.847 326.631C443.847 325.513 444.051 324.528 444.458 323.676C444.87 322.819 445.443 322.152 446.176 321.673C446.915 321.19 447.777 320.949 448.762 320.949C449.33 320.949 449.891 321.044 450.445 321.233C450.999 321.422 451.503 321.73 451.958 322.156C452.412 322.578 452.775 323.136 453.044 323.832C453.314 324.528 453.449 325.385 453.449 326.403V327.114H445.04V325.665H451.745C451.745 325.049 451.622 324.5 451.375 324.017C451.134 323.534 450.788 323.153 450.338 322.874C449.893 322.594 449.368 322.455 448.762 322.455C448.094 322.455 447.516 322.62 447.029 322.952C446.546 323.278 446.174 323.705 445.914 324.23C445.653 324.756 445.523 325.319 445.523 325.92V326.886C445.523 327.71 445.665 328.409 445.949 328.982C446.238 329.55 446.638 329.983 447.15 330.281C447.661 330.575 448.255 330.722 448.932 330.722C449.373 330.722 449.77 330.66 450.125 330.537C450.485 330.409 450.795 330.22 451.056 329.969C451.316 329.713 451.517 329.396 451.659 329.017L453.279 329.472C453.108 330.021 452.822 330.504 452.419 330.92C452.017 331.332 451.52 331.654 450.928 331.886C450.336 332.114 449.671 332.227 448.932 332.227ZM464.587 321.091L460.553 332H458.849L454.815 321.091H456.633L459.644 329.784H459.758L462.769 321.091H464.587ZM470.983 332.227C469.932 332.227 469.025 331.995 468.263 331.531C467.505 331.062 466.92 330.409 466.509 329.571C466.101 328.728 465.898 327.748 465.898 326.631C465.898 325.513 466.101 324.528 466.509 323.676C466.92 322.819 467.493 322.152 468.227 321.673C468.966 321.19 469.828 320.949 470.812 320.949C471.381 320.949 471.942 321.044 472.496 321.233C473.05 321.422 473.554 321.73 474.009 322.156C474.463 322.578 474.825 323.136 475.095 323.832C475.365 324.528 475.5 325.385 475.5 326.403V327.114H467.091V325.665H473.795C473.795 325.049 473.672 324.5 473.426 324.017C473.185 323.534 472.839 323.153 472.389 322.874C471.944 322.594 471.419 322.455 470.812 322.455C470.145 322.455 469.567 322.62 469.08 322.952C468.597 323.278 468.225 323.705 467.964 324.23C467.704 324.756 467.574 325.319 467.574 325.92V326.886C467.574 327.71 467.716 328.409 468 328.982C468.289 329.55 468.689 329.983 469.2 330.281C469.712 330.575 470.306 330.722 470.983 330.722C471.423 330.722 471.821 330.66 472.176 330.537C472.536 330.409 472.846 330.22 473.107 329.969C473.367 329.713 473.568 329.396 473.71 329.017L475.33 329.472C475.159 330.021 474.873 330.504 474.47 330.92C474.068 331.332 473.571 331.654 472.979 331.886C472.387 332.114 471.722 332.227 470.983 332.227ZM479.726 317.455V332H478.05V317.455H479.726ZM487.228 332.227C486.243 332.227 485.379 331.993 484.635 331.524C483.897 331.055 483.319 330.4 482.902 329.557C482.49 328.714 482.284 327.729 482.284 326.602C482.284 325.466 482.49 324.474 482.902 323.626C483.319 322.779 483.897 322.121 484.635 321.652C485.379 321.183 486.243 320.949 487.228 320.949C488.212 320.949 489.074 321.183 489.813 321.652C490.556 322.121 491.134 322.779 491.546 323.626C491.962 324.474 492.171 325.466 492.171 326.602C492.171 327.729 491.962 328.714 491.546 329.557C491.134 330.4 490.556 331.055 489.813 331.524C489.074 331.993 488.212 332.227 487.228 332.227ZM487.228 330.722C487.976 330.722 488.591 330.53 489.074 330.146C489.557 329.763 489.915 329.259 490.147 328.634C490.379 328.009 490.495 327.331 490.495 326.602C490.495 325.873 490.379 325.194 490.147 324.564C489.915 323.934 489.557 323.425 489.074 323.037C488.591 322.649 487.976 322.455 487.228 322.455C486.48 322.455 485.864 322.649 485.381 323.037C484.898 323.425 484.541 323.934 484.309 324.564C484.077 325.194 483.961 325.873 483.961 326.602C483.961 327.331 484.077 328.009 484.309 328.634C484.541 329.259 484.898 329.763 485.381 330.146C485.864 330.53 486.48 330.722 487.228 330.722ZM494.729 336.091V321.091H496.349V322.824H496.548C496.671 322.634 496.841 322.393 497.059 322.099C497.281 321.801 497.599 321.536 498.011 321.304C498.427 321.067 498.991 320.949 499.701 320.949C500.62 320.949 501.429 321.179 502.13 321.638C502.831 322.097 503.378 322.748 503.771 323.591C504.164 324.434 504.36 325.428 504.36 326.574C504.36 327.729 504.164 328.731 503.771 329.578C503.378 330.421 502.833 331.074 502.137 331.538C501.441 331.998 500.638 332.227 499.729 332.227C499.029 332.227 498.468 332.111 498.046 331.879C497.625 331.643 497.3 331.375 497.073 331.077C496.846 330.774 496.671 330.523 496.548 330.324H496.406V336.091H494.729ZM496.377 326.545C496.377 327.369 496.498 328.096 496.739 328.726C496.981 329.351 497.334 329.841 497.798 330.196C498.262 330.546 498.83 330.722 499.502 330.722C500.203 330.722 500.788 330.537 501.256 330.168C501.73 329.794 502.085 329.292 502.322 328.662C502.563 328.027 502.684 327.322 502.684 326.545C502.684 325.778 502.566 325.087 502.329 324.472C502.097 323.851 501.744 323.361 501.271 323.001C500.802 322.637 500.212 322.455 499.502 322.455C498.82 322.455 498.247 322.627 497.783 322.973C497.319 323.314 496.969 323.792 496.732 324.408C496.496 325.018 496.377 325.731 496.377 326.545ZM511.491 332.227C510.44 332.227 509.533 331.995 508.771 331.531C508.013 331.062 507.428 330.409 507.016 329.571C506.609 328.728 506.406 327.748 506.406 326.631C506.406 325.513 506.609 324.528 507.016 323.676C507.428 322.819 508.001 322.152 508.735 321.673C509.474 321.19 510.335 320.949 511.32 320.949C511.888 320.949 512.45 321.044 513.004 321.233C513.558 321.422 514.062 321.73 514.516 322.156C514.971 322.578 515.333 323.136 515.603 323.832C515.873 324.528 516.008 325.385 516.008 326.403V327.114H507.599V325.665H514.303C514.303 325.049 514.18 324.5 513.934 324.017C513.692 323.534 513.347 323.153 512.897 322.874C512.452 322.594 511.926 322.455 511.32 322.455C510.653 322.455 510.075 322.62 509.587 322.952C509.104 323.278 508.733 323.705 508.472 324.23C508.212 324.756 508.082 325.319 508.082 325.92V326.886C508.082 327.71 508.224 328.409 508.508 328.982C508.797 329.55 509.197 329.983 509.708 330.281C510.219 330.575 510.814 330.722 511.491 330.722C511.931 330.722 512.329 330.66 512.684 330.537C513.044 330.409 513.354 330.22 513.614 329.969C513.875 329.713 514.076 329.396 514.218 329.017L515.837 329.472C515.667 330.021 515.38 330.504 514.978 330.92C514.576 331.332 514.078 331.654 513.487 331.886C512.895 332.114 512.229 332.227 511.491 332.227ZM518.558 332V321.091H520.177V322.739H520.29C520.489 322.199 520.849 321.761 521.37 321.425C521.891 321.089 522.478 320.92 523.131 320.92C523.254 320.92 523.408 320.923 523.593 320.928C523.778 320.932 523.917 320.939 524.012 320.949V322.653C523.955 322.639 523.825 322.618 523.621 322.589C523.423 322.556 523.212 322.54 522.989 322.54C522.459 322.54 521.986 322.651 521.569 322.874C521.157 323.091 520.83 323.394 520.589 323.783C520.352 324.166 520.234 324.604 520.234 325.097V332H518.558ZM534.067 312.767V336.688H532.647V312.767H534.067ZM543.224 319.017V317.455H554.133V319.017H549.559V332H547.798V319.017H543.224ZM559.616 332.227C558.565 332.227 557.658 331.995 556.896 331.531C556.138 331.062 555.553 330.409 555.141 329.571C554.734 328.728 554.531 327.748 554.531 326.631C554.531 325.513 554.734 324.528 555.141 323.676C555.553 322.819 556.126 322.152 556.86 321.673C557.599 321.19 558.46 320.949 559.445 320.949C560.013 320.949 560.575 321.044 561.129 321.233C561.683 321.422 562.187 321.73 562.641 322.156C563.096 322.578 563.458 323.136 563.728 323.832C563.998 324.528 564.133 325.385 564.133 326.403V327.114H555.724V325.665H562.428C562.428 325.049 562.305 324.5 562.059 324.017C561.817 323.534 561.472 323.153 561.022 322.874C560.577 322.594 560.051 322.455 559.445 322.455C558.778 322.455 558.2 322.62 557.712 322.952C557.229 323.278 556.858 323.705 556.597 324.23C556.337 324.756 556.207 325.319 556.207 325.92V326.886C556.207 327.71 556.349 328.409 556.633 328.982C556.922 329.55 557.322 329.983 557.833 330.281C558.344 330.575 558.939 330.722 559.616 330.722C560.056 330.722 560.454 330.66 560.809 330.537C561.169 330.409 561.479 330.22 561.739 329.969C562 329.713 562.201 329.396 562.343 329.017L563.962 329.472C563.792 330.021 563.505 330.504 563.103 330.92C562.701 331.332 562.203 331.654 561.612 331.886C561.02 332.114 560.354 332.227 559.616 332.227ZM571.114 332.227C570.092 332.227 569.211 331.986 568.472 331.503C567.734 331.02 567.165 330.355 566.768 329.507C566.37 328.66 566.171 327.691 566.171 326.602C566.171 325.494 566.375 324.517 566.782 323.669C567.194 322.817 567.767 322.152 568.501 321.673C569.239 321.19 570.101 320.949 571.086 320.949C571.853 320.949 572.544 321.091 573.16 321.375C573.775 321.659 574.28 322.057 574.673 322.568C575.066 323.08 575.309 323.676 575.404 324.358H573.728C573.6 323.861 573.316 323.42 572.876 323.037C572.44 322.649 571.853 322.455 571.114 322.455C570.461 322.455 569.888 322.625 569.396 322.966C568.908 323.302 568.527 323.778 568.252 324.393C567.982 325.004 567.847 325.722 567.847 326.545C567.847 327.388 567.98 328.122 568.245 328.747C568.515 329.372 568.894 329.857 569.381 330.203C569.874 330.549 570.451 330.722 571.114 330.722C571.55 330.722 571.945 330.646 572.3 330.494C572.656 330.343 572.956 330.125 573.202 329.841C573.449 329.557 573.624 329.216 573.728 328.818H575.404C575.309 329.462 575.075 330.042 574.701 330.558C574.332 331.07 573.842 331.477 573.231 331.78C572.625 332.078 571.919 332.227 571.114 332.227ZM579.531 325.438V332H577.854V317.455H579.531V322.795H579.673C579.928 322.232 580.312 321.785 580.823 321.453C581.339 321.117 582.026 320.949 582.883 320.949C583.626 320.949 584.277 321.098 584.836 321.396C585.395 321.69 585.828 322.142 586.136 322.753C586.448 323.359 586.604 324.131 586.604 325.068V332H584.928V325.182C584.928 324.315 584.703 323.645 584.254 323.172C583.808 322.694 583.191 322.455 582.4 322.455C581.851 322.455 581.358 322.571 580.923 322.803C580.492 323.035 580.151 323.373 579.9 323.818C579.654 324.263 579.531 324.803 579.531 325.438ZM595.523 332V317.455H604.301V319.017H597.284V323.932H603.847V325.494H597.284V330.438H604.415V332H595.523ZM608.499 321.091L611.113 325.551L613.726 321.091H615.658L612.135 326.545L615.658 332H613.726L611.113 327.767L608.499 332H606.567L610.033 326.545L606.567 321.091H608.499ZM618.05 336.091V321.091H619.669V322.824H619.868C619.991 322.634 620.161 322.393 620.379 322.099C620.602 321.801 620.919 321.536 621.331 321.304C621.748 321.067 622.311 320.949 623.021 320.949C623.94 320.949 624.75 321.179 625.45 321.638C626.151 322.097 626.698 322.748 627.091 323.591C627.484 324.434 627.68 325.428 627.68 326.574C627.68 327.729 627.484 328.731 627.091 329.578C626.698 330.421 626.153 331.074 625.457 331.538C624.761 331.998 623.959 332.227 623.05 332.227C622.349 332.227 621.788 332.111 621.366 331.879C620.945 331.643 620.621 331.375 620.393 331.077C620.166 330.774 619.991 330.523 619.868 330.324H619.726V336.091H618.05ZM619.697 326.545C619.697 327.369 619.818 328.096 620.06 328.726C620.301 329.351 620.654 329.841 621.118 330.196C621.582 330.546 622.15 330.722 622.822 330.722C623.523 330.722 624.108 330.537 624.577 330.168C625.05 329.794 625.405 329.292 625.642 328.662C625.884 328.027 626.004 327.322 626.004 326.545C626.004 325.778 625.886 325.087 625.649 324.472C625.417 323.851 625.064 323.361 624.591 323.001C624.122 322.637 623.533 322.455 622.822 322.455C622.141 322.455 621.568 322.627 621.104 322.973C620.64 323.314 620.289 323.792 620.053 324.408C619.816 325.018 619.697 325.731 619.697 326.545ZM631.913 317.455V332H630.237V317.455H631.913ZM639.415 332.227C638.43 332.227 637.566 331.993 636.823 331.524C636.084 331.055 635.507 330.4 635.09 329.557C634.678 328.714 634.472 327.729 634.472 326.602C634.472 325.466 634.678 324.474 635.09 323.626C635.507 322.779 636.084 322.121 636.823 321.652C637.566 321.183 638.43 320.949 639.415 320.949C640.4 320.949 641.262 321.183 642 321.652C642.744 322.121 643.321 322.779 643.733 323.626C644.15 324.474 644.358 325.466 644.358 326.602C644.358 327.729 644.15 328.714 643.733 329.557C643.321 330.4 642.744 331.055 642 331.524C641.262 331.993 640.4 332.227 639.415 332.227ZM639.415 330.722C640.163 330.722 640.779 330.53 641.262 330.146C641.745 329.763 642.102 329.259 642.334 328.634C642.566 328.009 642.682 327.331 642.682 326.602C642.682 325.873 642.566 325.194 642.334 324.564C642.102 323.934 641.745 323.425 641.262 323.037C640.779 322.649 640.163 322.455 639.415 322.455C638.667 322.455 638.051 322.649 637.569 323.037C637.086 323.425 636.728 323.934 636.496 324.564C636.264 325.194 636.148 325.873 636.148 326.602C636.148 327.331 636.264 328.009 636.496 328.634C636.728 329.259 637.086 329.763 637.569 330.146C638.051 330.53 638.667 330.722 639.415 330.722ZM646.917 332V321.091H648.536V322.739H648.65C648.849 322.199 649.209 321.761 649.729 321.425C650.25 321.089 650.837 320.92 651.491 320.92C651.614 320.92 651.768 320.923 651.952 320.928C652.137 320.932 652.277 320.939 652.371 320.949V322.653C652.315 322.639 652.184 322.618 651.981 322.589C651.782 322.556 651.571 322.54 651.349 322.54C650.818 322.54 650.345 322.651 649.928 322.874C649.516 323.091 649.19 323.394 648.948 323.783C648.711 324.166 648.593 324.604 648.593 325.097V332H646.917ZM658.6 332.227C657.549 332.227 656.642 331.995 655.88 331.531C655.122 331.062 654.538 330.409 654.126 329.571C653.719 328.728 653.515 327.748 653.515 326.631C653.515 325.513 653.719 324.528 654.126 323.676C654.538 322.819 655.111 322.152 655.844 321.673C656.583 321.19 657.445 320.949 658.43 320.949C658.998 320.949 659.559 321.044 660.113 321.233C660.667 321.422 661.171 321.73 661.626 322.156C662.08 322.578 662.442 323.136 662.712 323.832C662.982 324.528 663.117 325.385 663.117 326.403V327.114H654.708V325.665H661.413C661.413 325.049 661.29 324.5 661.043 324.017C660.802 323.534 660.456 323.153 660.006 322.874C659.561 322.594 659.036 322.455 658.43 322.455C657.762 322.455 657.184 322.62 656.697 322.952C656.214 323.278 655.842 323.705 655.582 324.23C655.321 324.756 655.191 325.319 655.191 325.92V326.886C655.191 327.71 655.333 328.409 655.617 328.982C655.906 329.55 656.306 329.983 656.817 330.281C657.329 330.575 657.923 330.722 658.6 330.722C659.04 330.722 659.438 330.66 659.793 330.537C660.153 330.409 660.463 330.22 660.724 329.969C660.984 329.713 661.185 329.396 661.327 329.017L662.947 329.472C662.776 330.021 662.49 330.504 662.087 330.92C661.685 331.332 661.188 331.654 660.596 331.886C660.004 332.114 659.339 332.227 658.6 332.227ZM665.667 332V321.091H667.286V322.739H667.4C667.599 322.199 667.959 321.761 668.479 321.425C669 321.089 669.587 320.92 670.241 320.92C670.364 320.92 670.518 320.923 670.702 320.928C670.887 320.932 671.027 320.939 671.121 320.949V322.653C671.065 322.639 670.934 322.618 670.731 322.589C670.532 322.556 670.321 322.54 670.099 322.54C669.568 322.54 669.095 322.651 668.678 322.874C668.266 323.091 667.94 323.394 667.698 323.783C667.461 324.166 667.343 324.604 667.343 325.097V332H665.667Z" fill="white"/>
</g>
<defs>
<clipPath id="clip0_1_4">
<rect width="1086" height="622" fill="white"/>
</clipPath>
</defs>
</svg>
