<svg width="1086" height="622" viewBox="0 0 1086 622" fill="none" xmlns="http://www.w3.org/2000/svg">
<g clip-path="url(#clip0_1_4)">
<path d="M279.012 178.594C333.406 178.594 377.501 138.614 377.501 89.2969C377.501 39.9796 333.406 0 279.012 0C224.618 0 180.522 39.9796 180.522 89.2969C180.522 138.614 224.618 178.594 279.012 178.594Z" fill="#FF6584"/>
<path d="M1086 39.2558V274.123C1086 465.58 914.818 620.777 703.661 620.767H0V385.9C0 260.395 73.5689 150.458 183.752 89.6255C202.739 79.1328 222.706 70.1735 243.424 62.851C255.616 58.5325 268.048 54.7951 280.671 51.6542C280.917 51.5797 281.175 51.5159 281.422 51.4628C285.151 50.5412 288.904 49.6693 292.681 48.847C292.892 48.7938 293.091 48.7513 293.302 48.7088C316.577 43.6808 340.32 40.6441 364.22 39.6386C367.047 39.5216 369.873 39.4259 372.723 39.3728C373.744 39.3409 374.776 39.3196 375.819 39.3196C377.977 39.2771 380.147 39.2558 382.328 39.2558H1086Z" fill="#090814"/>
<path opacity="0.199" d="M1086 39.2558V274.123C1086 465.58 914.818 620.777 703.661 620.767H0V385.9C0 260.395 73.5689 150.458 183.752 89.6255C202.739 79.1328 222.706 70.1735 243.424 62.851C255.616 58.5325 268.048 54.7951 280.671 51.6542C280.917 51.5797 281.175 51.5159 281.422 51.4628C285.151 50.5412 288.904 49.6693 292.681 48.847C292.892 48.7938 293.091 48.7513 293.302 48.7088C316.577 43.6808 340.32 40.6441 364.22 39.6386C367.047 39.5216 369.873 39.4259 372.723 39.3728C373.744 39.3409 374.776 39.3196 375.819 39.3196C377.977 39.2771 380.147 39.2558 382.328 39.2558H1086Z" fill="#8B8989"/>
<path d="M494.927 495.227C222.161 495.227 0.939377 551.945 0.0117035 622H989.843C988.916 551.945 767.694 495.227 494.927 495.227Z" fill="#D6D6E3"/>
<g opacity="0.1">
<path d="M412.821 603.51C464.638 603.51 506.644 592.931 506.644 579.881C506.644 566.831 464.638 556.251 412.821 556.251C361.004 556.251 318.998 566.831 318.998 579.881C318.998 592.931 361.004 603.51 412.821 603.51Z" fill="black"/>
</g>
<g opacity="0.1">
<path d="M615.713 560.977C667.53 560.977 709.536 550.398 709.536 537.348C709.536 524.298 667.53 513.719 615.713 513.719C563.896 513.719 521.89 524.298 521.89 537.348C521.89 550.398 563.896 560.977 615.713 560.977Z" fill="black"/>
</g>
<g opacity="0.1">
<path d="M412.821 601.147C459.456 601.147 497.261 591.626 497.261 579.881C497.261 568.135 459.456 558.614 412.821 558.614C366.186 558.614 328.38 568.135 328.38 579.881C328.38 591.626 366.186 601.147 412.821 601.147Z" fill="black"/>
</g>
<g opacity="0.1">
<path d="M615.713 558.614C662.348 558.614 700.153 549.093 700.153 537.348C700.153 525.603 662.348 516.081 615.713 516.081C569.077 516.081 531.272 525.603 531.272 537.348C531.272 549.093 569.077 558.614 615.713 558.614Z" fill="black"/>
</g>
<path d="M161.845 141.377C166.378 141.377 170.054 138.045 170.054 133.934C170.054 129.823 166.378 126.491 161.845 126.491C157.311 126.491 153.635 129.823 153.635 133.934C153.635 138.045 157.311 141.377 161.845 141.377Z" fill="#F2F2F2"/>
<path d="M867.862 432.728C872.396 432.728 876.071 429.396 876.071 425.285C876.071 421.174 872.396 417.842 867.862 417.842C863.328 417.842 859.652 421.174 859.652 425.285C859.652 429.396 863.328 432.728 867.862 432.728Z" fill="#F2F2F2"/>
<path d="M480.842 193.48C485.376 193.48 489.052 190.148 489.052 186.037C489.052 181.926 485.376 178.594 480.842 178.594C476.308 178.594 472.633 181.926 472.633 186.037C472.633 190.148 476.308 193.48 480.842 193.48Z" fill="#F2F2F2"/>
<path d="M887.799 145.631C890.39 145.631 892.49 143.727 892.49 141.377C892.49 139.028 890.39 137.124 887.799 137.124C885.208 137.124 883.108 139.028 883.108 141.377C883.108 143.727 885.208 145.631 887.799 145.631Z" fill="#8B8989"/>
<path d="M180.609 358.296C183.2 358.296 185.3 356.391 185.3 354.042C185.3 351.693 183.2 349.789 180.609 349.789C178.018 349.789 175.918 351.693 175.918 354.042C175.918 356.391 178.018 358.296 180.609 358.296Z" fill="#8B8989"/>
<path d="M110.242 443.704H108.105V441.767H107.688V443.704H105.551V444.082H107.688V446.02H108.105V444.082H110.242V443.704Z" fill="#F2F2F2"/>
<path d="M796.322 286.332H794.185V284.395H793.768V286.332H791.631V286.71H793.768V288.648H794.185V286.71H796.322V286.332Z" fill="#F2F2F2"/>
<path d="M973.412 254.432H971.276V252.495H970.858V254.432H968.721V254.811H970.858V256.748H971.276V254.811H973.412V254.432Z" fill="#F2F2F2"/>
<path d="M592.257 339.498H590.12V337.561H589.703V339.498H587.566V339.877H589.703V341.814H590.12V339.877H592.257V339.498Z" fill="#F2F2F2"/>
<path d="M921.81 350.131H919.673V348.194H919.256V350.131H917.119V350.51H919.256V352.447H919.673V350.51H921.81V350.131Z" fill="#F2F2F2"/>
<path d="M524.235 395.854H522.099V393.917H521.681V395.854H519.544V396.233H521.681V398.17H522.099V396.233H524.235V395.854Z" fill="#F2F2F2"/>
<path d="M674.352 397.981H672.215V396.044H671.798V397.981H669.661V398.36H671.798V400.297H672.215V398.36H674.352V397.981Z" fill="#F2F2F2"/>
<path d="M112.587 217.216H110.451V215.279H110.033V217.216H107.896V217.594H110.033V219.532H110.451V217.594H112.587V217.216Z" fill="#F2F2F2"/>
<path d="M717.45 234.999L686.432 299.796L692.5 308.965L690.477 312.021L704.636 318.745V315.078L710.031 313.855L732.954 275.955L717.45 234.999Z" fill="#D6D6E3"/>
<path d="M693.178 311.41C693.178 311.41 670.254 343.809 695.875 348.699C721.496 353.589 700.594 314.466 700.594 314.466L693.178 311.41Z" fill="#D6D6E3"/>
<path d="M726.214 296.739L718.122 320.579L714.751 351.144L708.683 362.147L715.425 411.662L726.215 421.444L730.934 470.348V492.358L743.745 512.531L727.245 533.753C726.466 534.75 726.001 535.92 725.897 537.138C725.794 538.356 726.056 539.577 726.656 540.671C727.256 541.765 728.172 542.691 729.306 543.351C730.44 544.011 731.75 544.38 733.097 544.419C736.738 544.506 741.541 543.568 747.786 540.644C767.339 531.475 766.668 522.916 766.668 522.916C766.668 522.916 778.804 522.916 779.478 514.359C780.153 505.801 772.062 444.671 772.062 444.671L764.645 418.386V346.865H767.342L768.691 407.994L774.759 430.612L775.433 440.395L784.199 538.202C784.199 538.202 823.303 547.984 825.326 540.036C827.349 532.087 810.494 527.198 810.494 527.198L820.607 509.47V475.236L817.236 467.899L821.281 427.471V408.605L826.676 402.492V353.589L819.933 334.64L817.91 318.746L807.121 294.29C807.121 294.29 757.902 279.623 726.214 296.739Z" fill="#F2F2F2"/>
<path d="M813.862 158.587C813.862 165.94 811.937 173.188 808.246 179.735C804.555 186.281 799.202 191.94 792.628 196.246C786.055 200.552 778.448 203.381 770.433 204.502C762.418 205.623 754.225 205.003 746.526 202.694C738.826 200.384 731.842 196.45 726.146 191.216C720.451 185.982 716.207 179.597 713.763 172.586C711.32 165.575 710.746 158.139 712.09 150.888C713.434 143.637 716.657 136.779 721.495 130.877L721.509 130.864C727.936 123.026 736.924 117.223 747.197 114.281C757.47 111.34 768.504 111.409 778.731 114.478C788.958 117.548 797.857 123.463 804.164 131.381C810.471 139.299 813.865 148.819 813.863 158.586L813.862 158.587Z" fill="#8B8989"/>
<path d="M822.348 143.039L803.749 158.587C772.337 84.6576 722.371 130.071 721.507 130.865C726.671 124.57 733.509 119.562 741.384 116.31C749.259 113.057 757.914 111.666 766.542 112.266C784.081 113.486 814.123 128.939 822.342 143.039H822.348Z" fill="#F2F2F2"/>
<path d="M800.905 127.717L807.929 149.823C807.929 149.823 793.348 189.446 725.733 190.827L723.516 196.487L716.1 198.322L712.729 211.159L722.168 292.461C722.168 292.461 718.123 300.408 724.865 299.798C724.865 299.798 769.363 286.35 807.794 298.575C807.794 298.575 815.886 301.631 813.862 294.908C813.862 294.908 840.836 279.626 838.808 263.732C836.781 247.839 840.831 173.873 840.831 173.873C840.831 173.873 844.876 152.477 832.739 147.587C832.74 147.584 814.916 124.965 800.905 127.717Z" fill="#F2F2F2"/>
<path d="M786.119 282.181C786.119 282.181 743.877 286.027 755.57 307.266C767.263 328.504 788.085 289.347 788.085 289.347L786.119 282.181Z" fill="#D6D6E3"/>
<path d="M807.794 187.313C807.794 187.313 800.377 195.26 803.075 208.097C805.772 220.933 815.885 249.664 815.885 249.664L780.151 279.617L790.941 293.065L839.48 270.453L850.27 264.34C847.587 239.616 840.913 215.382 830.459 192.417L828.7 188.541C828.7 188.541 815.885 183.651 807.794 187.313Z" fill="#D6D6E3"/>
<path d="M564.11 200.203H561.973V198.265H561.556V200.203H559.419V200.581H561.556V202.519H561.973V200.581H564.11V200.203Z" fill="#F2F2F2"/>
<path d="M756.447 140.657H754.31V138.719H753.893V140.657H751.756V141.035H753.893V142.972H754.31V141.035H756.447V140.657Z" fill="#F2F2F2"/>
<path d="M735.337 158.733H733.2V156.796H732.783V158.733H730.646V159.112H732.783V161.049H733.2V159.112H735.337V158.733Z" fill="#F2F2F2"/>
<path d="M652.069 113.731C654.66 113.731 656.76 111.827 656.76 109.478C656.76 107.129 654.66 105.224 652.069 105.224C649.478 105.224 647.378 107.129 647.378 109.478C647.378 111.827 649.478 113.731 652.069 113.731Z" fill="#F2F2F2"/>
<path d="M992.189 39.2558H989.843C990.012 62.2866 1000.21 84.3236 1018.22 100.564C1036.24 116.805 1060.6 125.933 1086 125.959V123.833C1061.22 123.808 1037.45 114.905 1019.88 99.0624C1002.31 83.2202 992.356 61.7231 992.189 39.2558Z" fill="#8B8989"/>
<path d="M948.796 39.2558H946.45C946.628 72.7185 961.405 104.758 987.552 128.375C1013.7 151.992 1049.09 165.268 1086 165.302V163.176C1049.71 163.139 1014.92 150.086 989.213 126.868C963.507 103.651 948.976 72.1538 948.796 39.2558Z" fill="#8B8989"/>
<path d="M904.218 39.2558H901.873C902.166 131.084 984.648 205.709 1086 205.709V203.582C985.938 203.582 904.511 129.915 904.218 39.2558Z" fill="#8B8989"/>
<path d="M280.296 376.372C284.83 376.372 288.505 373.04 288.505 368.929C288.505 364.818 284.83 361.486 280.296 361.486C275.762 361.486 272.086 364.818 272.086 368.929C272.086 373.04 275.762 376.372 280.296 376.372Z" fill="#F2F2F2"/>
<path d="M391.711 215.468H389.574V217.405H389.156V215.468H387.019V215.089H389.156V213.152H389.574V215.089H391.711V215.468Z" fill="#F2F2F2"/>
<path d="M323.689 159.112H321.552V161.049H321.135V159.112H318.998V158.733H321.135V156.796H321.552V158.733H323.689V159.112Z" fill="#F2F2F2"/>
<path d="M363.564 354.763H361.427V356.701H361.009V354.763H358.873V354.385H361.009V352.447H361.427V354.385H363.564V354.763Z" fill="#F2F2F2"/>
<path d="M210 265.9H280V195.9H210V265.9ZM308.574 234.955C308.984 236.231 309.6 237.507 310.42 238.783C311.24 240.059 312.152 241.335 313.154 242.611C314.157 243.842 315.16 245.095 316.162 246.371C317.165 247.647 318.053 248.946 318.828 250.268C319.193 250.86 319.443 251.475 319.58 252.113C319.717 252.706 319.785 253.275 319.785 253.822C319.785 254.962 319.535 255.987 319.033 256.898C318.577 257.764 317.939 258.493 317.119 259.086C316.299 259.678 315.342 260.134 314.248 260.453C313.2 260.727 312.061 260.863 310.83 260.863C309.6 260.863 308.324 260.795 307.002 260.658C305.726 260.476 304.564 260.248 303.516 259.975C302.513 259.656 301.67 259.291 300.986 258.881C300.348 258.425 300.029 257.924 300.029 257.377C300.029 256.876 300.166 256.397 300.439 255.941C300.758 255.486 301.169 255.258 301.67 255.258C301.761 255.258 302.148 255.349 302.832 255.531C303.516 255.714 304.336 255.919 305.293 256.146C306.296 256.329 307.344 256.511 308.438 256.693C309.577 256.876 310.625 256.967 311.582 256.967C312.767 256.967 313.701 256.671 314.385 256.078C315.114 255.44 315.479 254.551 315.479 253.412C315.479 252.774 315.296 252.136 314.932 251.498C314.613 250.814 314.134 250.062 313.496 249.242C312.858 248.422 312.106 247.51 311.24 246.508C310.374 245.46 309.44 244.252 308.438 242.885C306.706 240.561 305.475 238.601 304.746 237.006C304.017 235.411 303.652 233.884 303.652 232.426C303.652 230.375 304.268 228.757 305.498 227.572C306.774 226.387 308.848 225.795 311.719 225.795C312.676 225.795 313.678 225.886 314.727 226.068C315.82 226.205 316.823 226.433 317.734 226.752C318.646 227.025 319.398 227.39 319.99 227.846C320.583 228.256 320.879 228.734 320.879 229.281C320.879 229.737 320.742 230.147 320.469 230.512C320.195 230.876 319.831 231.059 319.375 231.059C319.147 231.059 318.76 230.99 318.213 230.854C317.666 230.717 317.005 230.58 316.23 230.443C315.501 230.261 314.704 230.102 313.838 229.965C313.018 229.828 312.243 229.76 311.514 229.76C309.281 229.76 308.164 230.74 308.164 232.699C308.164 233.383 308.301 234.135 308.574 234.955ZM334.824 242.611H333.047C332.272 243.021 331.68 243.568 331.27 244.252C330.859 244.936 330.54 245.665 330.312 246.439C330.13 247.169 330.016 247.875 329.971 248.559C329.925 249.242 329.902 249.789 329.902 250.199C329.902 251.111 330.016 251.977 330.244 252.797C330.518 253.617 330.882 254.346 331.338 254.984C331.839 255.577 332.409 256.055 333.047 256.42C333.685 256.785 334.414 256.967 335.234 256.967C336.693 256.967 337.809 256.648 338.584 256.01C339.404 255.372 339.997 254.574 340.361 253.617C340.771 252.66 341.022 251.635 341.113 250.541C341.204 249.402 341.25 248.354 341.25 247.396C341.159 246.804 340.954 246.212 340.635 245.619C340.316 244.981 339.906 244.434 339.404 243.979C338.949 243.523 338.424 243.158 337.832 242.885C337.285 242.566 336.715 242.406 336.123 242.406C335.667 242.406 335.234 242.475 334.824 242.611ZM344.121 254.506C343.62 256.602 342.503 258.197 340.771 259.291C339.04 260.385 337.126 260.932 335.029 260.932C333.525 260.932 332.181 260.613 330.996 259.975C329.857 259.291 328.9 258.425 328.125 257.377C327.35 256.283 326.758 255.076 326.348 253.754C325.983 252.387 325.801 251.02 325.801 249.652C325.801 248.559 325.938 247.374 326.211 246.098C326.484 244.776 326.917 243.568 327.51 242.475C328.102 241.381 328.877 240.469 329.834 239.74C330.791 238.965 331.953 238.578 333.32 238.578C334.049 238.578 334.551 238.646 334.824 238.783C335.052 238.738 335.257 238.715 335.439 238.715C335.622 238.715 335.827 238.715 336.055 238.715C338.197 238.715 339.883 239.171 341.113 240.082C342.344 240.993 343.324 242.178 344.053 243.637C344.827 245.049 345.443 246.622 345.898 248.354C346.354 250.085 346.901 251.749 347.539 253.344C347.721 253.891 347.995 254.506 348.359 255.189C348.724 255.827 349.089 256.465 349.453 257.104C349.818 257.742 350.114 258.311 350.342 258.812C350.615 259.314 350.752 259.701 350.752 259.975C350.752 260.476 350.57 260.863 350.205 261.137C349.84 261.41 349.43 261.547 348.975 261.547C348.519 261.547 348.04 261.365 347.539 261C347.083 260.59 346.628 260.066 346.172 259.428C345.762 258.79 345.374 258.038 345.01 257.172C344.645 256.306 344.349 255.417 344.121 254.506ZM362.305 240.287C363.034 239.831 363.877 239.512 364.834 239.33C365.837 239.148 366.862 239.057 367.91 239.057C369.368 239.148 370.622 239.398 371.67 239.809C372.718 240.219 373.584 240.834 374.268 241.654C374.951 242.429 375.452 243.454 375.771 244.73C376.09 245.961 376.25 247.488 376.25 249.311C376.25 251.179 376.159 252.934 375.977 254.574C375.794 256.169 375.544 257.582 375.225 258.812C374.906 259.997 374.518 260.932 374.062 261.615C373.652 262.344 373.174 262.709 372.627 262.709C372.217 262.709 371.852 262.572 371.533 262.299C371.214 262.025 371.055 261.592 371.055 261C371.055 260.408 371.123 259.656 371.26 258.744C371.442 257.787 371.624 256.785 371.807 255.736C372.035 254.643 372.217 253.549 372.354 252.455C372.536 251.316 372.627 250.268 372.627 249.311C372.627 247.989 372.513 246.941 372.285 246.166C372.103 245.346 371.807 244.708 371.396 244.252C371.032 243.751 370.553 243.409 369.961 243.227C369.368 242.999 368.685 242.839 367.91 242.748C366.953 242.748 365.996 242.908 365.039 243.227C364.082 243.546 363.262 243.705 362.578 243.705C362.168 243.705 361.826 243.546 361.553 243.227C361.325 242.908 361.211 242.543 361.211 242.133C361.211 241.814 361.279 241.495 361.416 241.176C361.598 240.811 361.895 240.515 362.305 240.287ZM359.297 239.604C359.297 242.611 359.32 245.665 359.365 248.764C359.411 251.817 359.616 254.597 359.98 257.104V257.582C359.98 258.357 359.775 258.949 359.365 259.359C359.001 259.724 358.59 259.906 358.135 259.906C357.725 259.906 357.337 259.724 356.973 259.359C356.608 258.995 356.38 258.425 356.289 257.65C356.061 255.463 355.879 253.207 355.742 250.883C355.605 248.559 355.537 246.166 355.537 243.705C355.537 243.204 355.514 242.634 355.469 241.996C355.423 241.358 355.423 240.766 355.469 240.219C355.56 239.626 355.742 239.148 356.016 238.783C356.335 238.373 356.813 238.168 357.451 238.168C357.907 238.168 358.317 238.327 358.682 238.646C359.092 238.92 359.297 239.239 359.297 239.604ZM391.562 225.932C391.836 225.84 392.041 225.795 392.178 225.795C392.314 225.795 392.451 225.818 392.588 225.863C392.725 225.909 392.839 225.932 392.93 225.932C393.158 225.886 393.363 225.863 393.545 225.863C393.727 225.818 393.932 225.795 394.16 225.795C395.71 225.795 396.849 226.296 397.578 227.299C398.307 228.301 398.672 229.372 398.672 230.512C398.672 231.059 398.535 231.651 398.262 232.289C398.034 232.927 397.669 233.52 397.168 234.066C396.712 234.568 396.12 235.001 395.391 235.365C394.707 235.73 393.887 235.912 392.93 235.912C392.292 235.912 391.699 235.775 391.152 235.502C390.605 235.183 390.127 234.773 389.717 234.271C389.307 233.77 388.988 233.223 388.76 232.631C388.532 232.038 388.418 231.423 388.418 230.785C388.418 229.737 388.737 228.734 389.375 227.777C390.059 226.775 390.788 226.16 391.562 225.932ZM393.203 229.486H392.656C392.428 229.623 392.269 229.874 392.178 230.238C392.132 230.557 392.109 230.808 392.109 230.99C392.201 231.355 392.36 231.674 392.588 231.947C392.861 232.175 393.18 232.289 393.545 232.289C394.092 232.289 394.479 232.084 394.707 231.674C394.98 231.218 395.117 230.808 395.117 230.443C394.935 229.714 394.479 229.35 393.75 229.35C393.659 229.35 393.477 229.395 393.203 229.486ZM395.938 240.15C396.257 243.158 396.507 246.212 396.689 249.311C396.917 252.41 397.031 255.417 397.031 258.334C396.94 260.294 396.781 262.048 396.553 263.598C396.325 265.193 395.618 266.719 394.434 268.178C393.796 268.998 392.975 269.818 391.973 270.639C391.016 271.505 389.967 272.279 388.828 272.963C387.734 273.646 386.595 274.216 385.41 274.672C384.225 275.128 383.086 275.355 381.992 275.355C381.4 275.355 380.921 275.082 380.557 274.535C380.238 273.988 380.078 273.487 380.078 273.031C380.078 272.12 380.488 271.55 381.309 271.322C382.266 271.094 383.223 270.73 384.18 270.229C385.182 269.773 386.139 269.226 387.051 268.588C387.962 267.995 388.783 267.335 389.512 266.605C390.286 265.876 390.924 265.17 391.426 264.486C392.155 263.484 392.588 262.413 392.725 261.273C392.861 260.134 392.93 258.972 392.93 257.787C392.93 256.557 392.907 255.189 392.861 253.686C392.816 252.182 392.747 250.655 392.656 249.105C392.565 247.556 392.451 246.029 392.314 244.525C392.223 243.021 392.109 241.654 391.973 240.424C391.973 240.333 391.95 240.287 391.904 240.287C391.904 240.242 391.904 240.173 391.904 240.082C391.904 239.49 392.109 239.011 392.52 238.646C392.93 238.236 393.385 238.031 393.887 238.031C394.342 238.031 394.775 238.191 395.186 238.51C395.596 238.829 395.846 239.376 395.938 240.15ZM411.66 242.611H409.883C409.108 243.021 408.516 243.568 408.105 244.252C407.695 244.936 407.376 245.665 407.148 246.439C406.966 247.169 406.852 247.875 406.807 248.559C406.761 249.242 406.738 249.789 406.738 250.199C406.738 251.111 406.852 251.977 407.08 252.797C407.354 253.617 407.718 254.346 408.174 254.984C408.675 255.577 409.245 256.055 409.883 256.42C410.521 256.785 411.25 256.967 412.07 256.967C413.529 256.967 414.645 256.648 415.42 256.01C416.24 255.372 416.833 254.574 417.197 253.617C417.607 252.66 417.858 251.635 417.949 250.541C418.04 249.402 418.086 248.354 418.086 247.396C417.995 246.804 417.79 246.212 417.471 245.619C417.152 244.981 416.742 244.434 416.24 243.979C415.785 243.523 415.26 243.158 414.668 242.885C414.121 242.566 413.551 242.406 412.959 242.406C412.503 242.406 412.07 242.475 411.66 242.611ZM420.957 254.506C420.456 256.602 419.339 258.197 417.607 259.291C415.876 260.385 413.962 260.932 411.865 260.932C410.361 260.932 409.017 260.613 407.832 259.975C406.693 259.291 405.736 258.425 404.961 257.377C404.186 256.283 403.594 255.076 403.184 253.754C402.819 252.387 402.637 251.02 402.637 249.652C402.637 248.559 402.773 247.374 403.047 246.098C403.32 244.776 403.753 243.568 404.346 242.475C404.938 241.381 405.713 240.469 406.67 239.74C407.627 238.965 408.789 238.578 410.156 238.578C410.885 238.578 411.387 238.646 411.66 238.783C411.888 238.738 412.093 238.715 412.275 238.715C412.458 238.715 412.663 238.715 412.891 238.715C415.033 238.715 416.719 239.171 417.949 240.082C419.18 240.993 420.16 242.178 420.889 243.637C421.663 245.049 422.279 246.622 422.734 248.354C423.19 250.085 423.737 251.749 424.375 253.344C424.557 253.891 424.831 254.506 425.195 255.189C425.56 255.827 425.924 256.465 426.289 257.104C426.654 257.742 426.95 258.311 427.178 258.812C427.451 259.314 427.588 259.701 427.588 259.975C427.588 260.476 427.406 260.863 427.041 261.137C426.676 261.41 426.266 261.547 425.811 261.547C425.355 261.547 424.876 261.365 424.375 261C423.919 260.59 423.464 260.066 423.008 259.428C422.598 258.79 422.21 258.038 421.846 257.172C421.481 256.306 421.185 255.417 420.957 254.506ZM439.141 240.287C439.87 239.831 440.713 239.512 441.67 239.33C442.673 239.148 443.698 239.057 444.746 239.057C446.204 239.148 447.458 239.398 448.506 239.809C449.554 240.219 450.42 240.834 451.104 241.654C451.787 242.429 452.288 243.454 452.607 244.73C452.926 245.961 453.086 247.488 453.086 249.311C453.086 251.179 452.995 252.934 452.812 254.574C452.63 256.169 452.38 257.582 452.061 258.812C451.742 259.997 451.354 260.932 450.898 261.615C450.488 262.344 450.01 262.709 449.463 262.709C449.053 262.709 448.688 262.572 448.369 262.299C448.05 262.025 447.891 261.592 447.891 261C447.891 260.408 447.959 259.656 448.096 258.744C448.278 257.787 448.46 256.785 448.643 255.736C448.87 254.643 449.053 253.549 449.189 252.455C449.372 251.316 449.463 250.268 449.463 249.311C449.463 247.989 449.349 246.941 449.121 246.166C448.939 245.346 448.643 244.708 448.232 244.252C447.868 243.751 447.389 243.409 446.797 243.227C446.204 242.999 445.521 242.839 444.746 242.748C443.789 242.748 442.832 242.908 441.875 243.227C440.918 243.546 440.098 243.705 439.414 243.705C439.004 243.705 438.662 243.546 438.389 243.227C438.161 242.908 438.047 242.543 438.047 242.133C438.047 241.814 438.115 241.495 438.252 241.176C438.434 240.811 438.73 240.515 439.141 240.287ZM436.133 239.604C436.133 242.611 436.156 245.665 436.201 248.764C436.247 251.817 436.452 254.597 436.816 257.104V257.582C436.816 258.357 436.611 258.949 436.201 259.359C435.837 259.724 435.426 259.906 434.971 259.906C434.561 259.906 434.173 259.724 433.809 259.359C433.444 258.995 433.216 258.425 433.125 257.65C432.897 255.463 432.715 253.207 432.578 250.883C432.441 248.559 432.373 246.166 432.373 243.705C432.373 243.204 432.35 242.634 432.305 241.996C432.259 241.358 432.259 240.766 432.305 240.219C432.396 239.626 432.578 239.148 432.852 238.783C433.171 238.373 433.649 238.168 434.287 238.168C434.743 238.168 435.153 238.327 435.518 238.646C435.928 238.92 436.133 239.239 436.133 239.604ZM466.621 242.611H464.844C464.069 243.021 463.477 243.568 463.066 244.252C462.656 244.936 462.337 245.665 462.109 246.439C461.927 247.169 461.813 247.875 461.768 248.559C461.722 249.242 461.699 249.789 461.699 250.199C461.699 251.111 461.813 251.977 462.041 252.797C462.314 253.617 462.679 254.346 463.135 254.984C463.636 255.577 464.206 256.055 464.844 256.42C465.482 256.785 466.211 256.967 467.031 256.967C468.49 256.967 469.606 256.648 470.381 256.01C471.201 255.372 471.794 254.574 472.158 253.617C472.568 252.66 472.819 251.635 472.91 250.541C473.001 249.402 473.047 248.354 473.047 247.396C472.956 246.804 472.751 246.212 472.432 245.619C472.113 244.981 471.702 244.434 471.201 243.979C470.745 243.523 470.221 243.158 469.629 242.885C469.082 242.566 468.512 242.406 467.92 242.406C467.464 242.406 467.031 242.475 466.621 242.611ZM475.918 254.506C475.417 256.602 474.3 258.197 472.568 259.291C470.837 260.385 468.923 260.932 466.826 260.932C465.322 260.932 463.978 260.613 462.793 259.975C461.654 259.291 460.697 258.425 459.922 257.377C459.147 256.283 458.555 255.076 458.145 253.754C457.78 252.387 457.598 251.02 457.598 249.652C457.598 248.559 457.734 247.374 458.008 246.098C458.281 244.776 458.714 243.568 459.307 242.475C459.899 241.381 460.674 240.469 461.631 239.74C462.588 238.965 463.75 238.578 465.117 238.578C465.846 238.578 466.348 238.646 466.621 238.783C466.849 238.738 467.054 238.715 467.236 238.715C467.419 238.715 467.624 238.715 467.852 238.715C469.993 238.715 471.68 239.171 472.91 240.082C474.141 240.993 475.12 242.178 475.85 243.637C476.624 245.049 477.24 246.622 477.695 248.354C478.151 250.085 478.698 251.749 479.336 253.344C479.518 253.891 479.792 254.506 480.156 255.189C480.521 255.827 480.885 256.465 481.25 257.104C481.615 257.742 481.911 258.311 482.139 258.812C482.412 259.314 482.549 259.701 482.549 259.975C482.549 260.476 482.367 260.863 482.002 261.137C481.637 261.41 481.227 261.547 480.771 261.547C480.316 261.547 479.837 261.365 479.336 261C478.88 260.59 478.424 260.066 477.969 259.428C477.559 258.79 477.171 258.038 476.807 257.172C476.442 256.306 476.146 255.417 475.918 254.506ZM506.68 258.881C506.999 256.785 507.249 254.346 507.432 251.566C507.66 248.741 507.773 245.893 507.773 243.021C507.773 240.378 507.682 238.054 507.5 236.049C507.363 234.044 507.09 232.449 506.68 231.264C506.406 230.58 506.27 229.965 506.27 229.418C506.27 228.734 506.429 228.188 506.748 227.777C507.113 227.367 507.546 227.162 508.047 227.162C508.73 227.162 509.323 227.595 509.824 228.461C510.326 229.327 510.713 230.489 510.986 231.947C511.305 233.406 511.533 235.092 511.67 237.006C511.807 238.874 511.875 240.834 511.875 242.885C511.875 245.756 511.784 248.467 511.602 251.02C511.419 253.572 511.237 255.736 511.055 257.514C512.467 257.377 514.017 257.058 515.703 256.557C517.435 256.055 519.053 255.372 520.557 254.506C522.061 253.64 523.314 252.592 524.316 251.361C525.319 250.085 525.82 248.604 525.82 246.918C525.82 245.688 525.228 244.639 524.043 243.773C522.858 242.908 521.468 242.475 519.873 242.475C519.554 242.475 519.235 242.52 518.916 242.611C518.597 242.657 518.278 242.68 517.959 242.68C517.23 242.68 516.637 242.406 516.182 241.859C515.726 241.312 515.498 240.766 515.498 240.219C515.498 239.9 515.84 239.444 516.523 238.852C517.207 238.214 517.959 237.507 518.779 236.732C519.6 235.912 520.352 235.046 521.035 234.135C521.719 233.178 522.061 232.198 522.061 231.195C522.061 230.876 521.947 230.626 521.719 230.443C521.536 230.215 521.309 230.056 521.035 229.965C520.762 229.874 520.465 229.828 520.146 229.828C519.827 229.783 519.531 229.76 519.258 229.76C518.483 229.76 517.708 229.896 516.934 230.17C516.159 230.398 515.498 230.512 514.951 230.512C514.45 230.512 514.062 230.284 513.789 229.828C513.516 229.372 513.379 228.917 513.379 228.461C513.379 227.914 513.584 227.458 513.994 227.094C514.45 226.729 514.997 226.456 515.635 226.273C516.273 226.046 516.956 225.886 517.686 225.795C518.415 225.704 519.098 225.658 519.736 225.658C521.423 225.658 522.904 226.023 524.18 226.752C525.456 227.436 526.094 228.62 526.094 230.307C526.094 231.674 525.661 233.155 524.795 234.75C523.975 236.345 522.995 237.689 521.855 238.783C522.858 238.92 523.838 239.216 524.795 239.672C525.798 240.128 526.686 240.72 527.461 241.449C528.236 242.178 528.851 242.999 529.307 243.91C529.808 244.822 530.059 245.801 530.059 246.85C530.059 249.037 529.466 251.042 528.281 252.865C527.142 254.688 525.615 256.26 523.701 257.582C521.833 258.858 519.691 259.861 517.275 260.59C514.86 261.319 512.399 261.684 509.893 261.684C508.89 261.684 508.092 261.501 507.5 261.137C506.908 260.818 506.611 260.202 506.611 259.291C506.611 259.2 506.611 259.132 506.611 259.086C506.657 259.04 506.68 258.972 506.68 258.881ZM538.672 241.518C538.581 242.566 538.49 243.66 538.398 244.799C538.353 245.938 538.33 247.1 538.33 248.285C538.33 249.971 538.398 251.658 538.535 253.344C538.717 255.03 538.809 256.671 538.809 258.266C538.809 259.177 538.581 259.861 538.125 260.316C537.715 260.772 537.259 261 536.758 261C536.302 261 535.915 260.84 535.596 260.521C535.322 260.157 535.163 259.61 535.117 258.881C534.98 256.83 534.844 254.962 534.707 253.275C534.616 251.544 534.57 249.812 534.57 248.08C534.57 247.396 534.548 246.531 534.502 245.482C534.502 244.389 534.548 243.363 534.639 242.406C534.775 241.404 535.003 240.561 535.322 239.877C535.687 239.148 536.234 238.783 536.963 238.783C537.419 238.783 537.806 238.988 538.125 239.398C538.49 239.809 538.672 240.355 538.672 241.039V241.518ZM535.391 225.932C535.573 225.84 535.732 225.795 535.869 225.795C536.051 225.795 536.211 225.818 536.348 225.863C536.53 225.909 536.667 225.932 536.758 225.932C536.986 225.886 537.191 225.863 537.373 225.863C537.555 225.818 537.76 225.795 537.988 225.795C539.492 225.795 540.609 226.296 541.338 227.299C542.113 228.301 542.5 229.372 542.5 230.512C542.5 231.059 542.363 231.651 542.09 232.289C541.862 232.927 541.497 233.52 540.996 234.066C540.54 234.568 539.948 235.001 539.219 235.365C538.49 235.73 537.646 235.912 536.689 235.912C536.051 235.912 535.459 235.753 534.912 235.434C534.365 235.115 533.887 234.727 533.477 234.271C533.066 233.77 532.747 233.223 532.52 232.631C532.292 231.993 532.178 231.378 532.178 230.785C532.178 229.874 532.474 228.917 533.066 227.914C533.704 226.911 534.479 226.251 535.391 225.932ZM537.031 229.486H536.484C536.257 229.577 536.097 229.737 536.006 229.965C535.915 230.193 535.869 230.421 535.869 230.648C535.869 231.059 536.029 231.446 536.348 231.811C536.667 232.13 536.963 232.289 537.236 232.289C537.92 232.289 538.376 232.084 538.604 231.674C538.831 231.218 538.945 230.808 538.945 230.443C538.717 229.714 538.262 229.35 537.578 229.35C537.487 229.35 537.305 229.395 537.031 229.486ZM553.711 242.885C552.891 243.249 552.48 243.865 552.48 244.73C552.48 245.277 552.891 245.938 553.711 246.713C554.577 247.488 555.534 248.285 556.582 249.105C557.676 249.88 558.724 250.632 559.727 251.361C560.729 252.09 561.413 252.683 561.777 253.139C562.461 254.096 562.803 255.076 562.803 256.078C562.803 257.126 562.575 257.969 562.119 258.607C561.709 259.245 561.117 259.747 560.342 260.111C559.613 260.476 558.747 260.727 557.744 260.863C556.787 261 555.785 261.068 554.736 261.068C554.007 261.068 553.118 261.046 552.07 261C551.022 260.954 549.997 260.84 548.994 260.658C548.037 260.476 547.217 260.225 546.533 259.906C545.85 259.542 545.508 259.086 545.508 258.539C545.508 258.083 545.645 257.605 545.918 257.104C546.191 256.602 546.579 256.352 547.08 256.352C547.126 256.352 547.171 256.374 547.217 256.42C547.262 256.42 547.331 256.42 547.422 256.42C548.424 256.693 549.701 256.898 551.25 257.035C552.799 257.172 554.303 257.24 555.762 257.24C556.536 257.24 557.174 257.126 557.676 256.898C558.177 256.625 558.428 256.238 558.428 255.736C558.428 255.281 558.2 254.802 557.744 254.301C557.288 253.754 556.719 253.23 556.035 252.729C555.397 252.227 554.714 251.749 553.984 251.293C553.301 250.837 552.708 250.427 552.207 250.062C550.749 249.06 549.678 248.126 548.994 247.26C548.356 246.348 548.037 245.368 548.037 244.32C548.037 243.135 548.333 242.178 548.926 241.449C549.564 240.674 550.361 240.059 551.318 239.604C552.275 239.148 553.324 238.852 554.463 238.715C555.648 238.533 556.787 238.441 557.881 238.441C558.519 238.441 559.157 238.464 559.795 238.51C560.433 238.555 561.003 238.669 561.504 238.852C562.005 238.988 562.415 239.216 562.734 239.535C563.053 239.809 563.213 240.196 563.213 240.697C563.213 241.199 563.099 241.632 562.871 241.996C562.689 242.361 562.37 242.543 561.914 242.543C561.504 242.543 560.889 242.475 560.068 242.338C559.294 242.201 558.382 242.133 557.334 242.133C555.921 242.133 554.714 242.383 553.711 242.885ZM595.82 239.877C595.82 239.421 596.025 239.057 596.436 238.783C596.891 238.464 597.393 238.305 597.939 238.305C598.441 238.305 598.874 238.464 599.238 238.783C599.648 239.057 599.876 239.512 599.922 240.15C599.512 243.568 599.056 246.986 598.555 250.404C598.099 253.822 597.643 257.104 597.188 260.248C597.051 260.886 596.777 261.365 596.367 261.684C595.957 262.048 595.547 262.23 595.137 262.23C594.727 262.23 594.339 262.094 593.975 261.82C593.61 261.592 593.359 261.16 593.223 260.521C591.764 259.018 590.283 257.445 588.779 255.805C587.275 254.118 585.885 252.318 584.609 250.404C584.473 250.268 584.336 250.131 584.199 249.994C584.062 249.857 583.903 249.789 583.721 249.789C583.538 249.789 583.128 250.085 582.49 250.678C581.898 251.225 581.146 251.977 580.234 252.934C579.368 253.845 578.389 254.87 577.295 256.01C576.247 257.104 575.176 258.197 574.082 259.291C573.717 259.656 573.285 259.997 572.783 260.316C572.327 260.59 571.872 260.727 571.416 260.727C571.051 260.727 570.732 260.385 570.459 259.701C570.186 258.972 569.935 258.038 569.707 256.898C569.479 255.759 569.274 254.46 569.092 253.002C568.91 251.544 568.75 250.062 568.613 248.559C568.477 247.055 568.363 245.619 568.271 244.252C568.18 242.839 568.112 241.609 568.066 240.561C568.066 239.923 568.249 239.421 568.613 239.057C569.023 238.646 569.479 238.441 569.98 238.441C570.482 238.441 570.938 238.601 571.348 238.92C571.803 239.239 572.077 239.74 572.168 240.424C572.305 242.748 572.487 245.186 572.715 247.738C572.988 250.29 573.262 252.546 573.535 254.506L580.781 246.713C581.738 245.665 582.764 245.141 583.857 245.141C584.359 245.141 584.86 245.277 585.361 245.551C585.863 245.779 586.296 246.166 586.66 246.713C587.708 248.308 588.825 249.926 590.01 251.566C591.24 253.161 592.493 254.643 593.77 256.01C593.952 254.916 594.134 253.686 594.316 252.318C594.544 250.951 594.749 249.538 594.932 248.08C595.114 246.576 595.273 245.118 595.41 243.705C595.592 242.292 595.729 241.016 595.82 239.877ZM613.457 242.611H611.68C610.905 243.021 610.312 243.568 609.902 244.252C609.492 244.936 609.173 245.665 608.945 246.439C608.763 247.169 608.649 247.875 608.604 248.559C608.558 249.242 608.535 249.789 608.535 250.199C608.535 251.111 608.649 251.977 608.877 252.797C609.15 253.617 609.515 254.346 609.971 254.984C610.472 255.577 611.042 256.055 611.68 256.42C612.318 256.785 613.047 256.967 613.867 256.967C615.326 256.967 616.442 256.648 617.217 256.01C618.037 255.372 618.63 254.574 618.994 253.617C619.404 252.66 619.655 251.635 619.746 250.541C619.837 249.402 619.883 248.354 619.883 247.396C619.792 246.804 619.587 246.212 619.268 245.619C618.949 244.981 618.538 244.434 618.037 243.979C617.581 243.523 617.057 243.158 616.465 242.885C615.918 242.566 615.348 242.406 614.756 242.406C614.3 242.406 613.867 242.475 613.457 242.611ZM622.754 254.506C622.253 256.602 621.136 258.197 619.404 259.291C617.673 260.385 615.758 260.932 613.662 260.932C612.158 260.932 610.814 260.613 609.629 259.975C608.49 259.291 607.533 258.425 606.758 257.377C605.983 256.283 605.391 255.076 604.98 253.754C604.616 252.387 604.434 251.02 604.434 249.652C604.434 248.559 604.57 247.374 604.844 246.098C605.117 244.776 605.55 243.568 606.143 242.475C606.735 241.381 607.51 240.469 608.467 239.74C609.424 238.965 610.586 238.578 611.953 238.578C612.682 238.578 613.184 238.646 613.457 238.783C613.685 238.738 613.89 238.715 614.072 238.715C614.255 238.715 614.46 238.715 614.688 238.715C616.829 238.715 618.516 239.171 619.746 240.082C620.977 240.993 621.956 242.178 622.686 243.637C623.46 245.049 624.076 246.622 624.531 248.354C624.987 250.085 625.534 251.749 626.172 253.344C626.354 253.891 626.628 254.506 626.992 255.189C627.357 255.827 627.721 256.465 628.086 257.104C628.451 257.742 628.747 258.311 628.975 258.812C629.248 259.314 629.385 259.701 629.385 259.975C629.385 260.476 629.202 260.863 628.838 261.137C628.473 261.41 628.063 261.547 627.607 261.547C627.152 261.547 626.673 261.365 626.172 261C625.716 260.59 625.26 260.066 624.805 259.428C624.395 258.79 624.007 258.038 623.643 257.172C623.278 256.306 622.982 255.417 622.754 254.506ZM640.117 242.885C639.297 243.249 638.887 243.865 638.887 244.73C638.887 245.277 639.297 245.938 640.117 246.713C640.983 247.488 641.94 248.285 642.988 249.105C644.082 249.88 645.13 250.632 646.133 251.361C647.135 252.09 647.819 252.683 648.184 253.139C648.867 254.096 649.209 255.076 649.209 256.078C649.209 257.126 648.981 257.969 648.525 258.607C648.115 259.245 647.523 259.747 646.748 260.111C646.019 260.476 645.153 260.727 644.15 260.863C643.193 261 642.191 261.068 641.143 261.068C640.413 261.068 639.525 261.046 638.477 261C637.428 260.954 636.403 260.84 635.4 260.658C634.443 260.476 633.623 260.225 632.939 259.906C632.256 259.542 631.914 259.086 631.914 258.539C631.914 258.083 632.051 257.605 632.324 257.104C632.598 256.602 632.985 256.352 633.486 256.352C633.532 256.352 633.577 256.374 633.623 256.42C633.669 256.42 633.737 256.42 633.828 256.42C634.831 256.693 636.107 256.898 637.656 257.035C639.206 257.172 640.71 257.24 642.168 257.24C642.943 257.24 643.581 257.126 644.082 256.898C644.583 256.625 644.834 256.238 644.834 255.736C644.834 255.281 644.606 254.802 644.15 254.301C643.695 253.754 643.125 253.23 642.441 252.729C641.803 252.227 641.12 251.749 640.391 251.293C639.707 250.837 639.115 250.427 638.613 250.062C637.155 249.06 636.084 248.126 635.4 247.26C634.762 246.348 634.443 245.368 634.443 244.32C634.443 243.135 634.74 242.178 635.332 241.449C635.97 240.674 636.768 240.059 637.725 239.604C638.682 239.148 639.73 238.852 640.869 238.715C642.054 238.533 643.193 238.441 644.287 238.441C644.925 238.441 645.563 238.464 646.201 238.51C646.839 238.555 647.409 238.669 647.91 238.852C648.411 238.988 648.822 239.216 649.141 239.535C649.46 239.809 649.619 240.196 649.619 240.697C649.619 241.199 649.505 241.632 649.277 241.996C649.095 242.361 648.776 242.543 648.32 242.543C647.91 242.543 647.295 242.475 646.475 242.338C645.7 242.201 644.788 242.133 643.74 242.133C642.327 242.133 641.12 242.383 640.117 242.885Z" fill="white"/>
<path d="M254.773 303H253.364C253.28 302.595 253.134 302.239 252.926 301.932C252.722 301.625 252.472 301.367 252.176 301.159C251.884 300.947 251.561 300.788 251.205 300.682C250.848 300.576 250.477 300.523 250.091 300.523C249.386 300.523 248.748 300.701 248.176 301.057C247.608 301.413 247.155 301.938 246.818 302.631C246.485 303.324 246.318 304.174 246.318 305.182C246.318 306.189 246.485 307.04 246.818 307.733C247.155 308.426 247.608 308.951 248.176 309.307C248.748 309.663 249.386 309.841 250.091 309.841C250.477 309.841 250.848 309.788 251.205 309.682C251.561 309.576 251.884 309.419 252.176 309.21C252.472 308.998 252.722 308.739 252.926 308.432C253.134 308.121 253.28 307.765 253.364 307.364H254.773C254.667 307.958 254.473 308.491 254.193 308.96C253.913 309.43 253.564 309.83 253.148 310.159C252.731 310.485 252.263 310.733 251.744 310.903C251.229 311.074 250.678 311.159 250.091 311.159C249.098 311.159 248.216 310.917 247.443 310.432C246.67 309.947 246.063 309.258 245.619 308.364C245.176 307.47 244.955 306.409 244.955 305.182C244.955 303.955 245.176 302.894 245.619 302C246.063 301.106 246.67 300.417 247.443 299.932C248.216 299.447 249.098 299.205 250.091 299.205C250.678 299.205 251.229 299.29 251.744 299.46C252.263 299.631 252.731 299.881 253.148 300.21C253.564 300.536 253.913 300.934 254.193 301.403C254.473 301.869 254.667 302.402 254.773 303ZM263.413 302.273C263.345 301.697 263.069 301.25 262.584 300.932C262.099 300.614 261.504 300.455 260.8 300.455C260.285 300.455 259.834 300.538 259.447 300.705C259.065 300.871 258.766 301.1 258.55 301.392C258.338 301.684 258.232 302.015 258.232 302.386C258.232 302.697 258.305 302.964 258.453 303.188C258.605 303.407 258.798 303.591 259.033 303.739C259.268 303.883 259.514 304.002 259.771 304.097C260.029 304.187 260.266 304.261 260.482 304.318L261.663 304.636C261.966 304.716 262.304 304.826 262.675 304.966C263.05 305.106 263.408 305.297 263.749 305.54C264.093 305.778 264.377 306.085 264.601 306.46C264.824 306.835 264.936 307.295 264.936 307.841C264.936 308.47 264.771 309.038 264.442 309.545C264.116 310.053 263.639 310.456 263.01 310.756C262.385 311.055 261.625 311.205 260.732 311.205C259.898 311.205 259.177 311.07 258.567 310.801C257.961 310.532 257.483 310.157 257.135 309.676C256.79 309.195 256.595 308.636 256.55 308H258.004C258.042 308.439 258.19 308.803 258.447 309.091C258.709 309.375 259.038 309.587 259.436 309.727C259.838 309.864 260.269 309.932 260.732 309.932C261.269 309.932 261.752 309.845 262.18 309.67C262.608 309.492 262.947 309.246 263.197 308.932C263.447 308.614 263.572 308.242 263.572 307.818C263.572 307.432 263.464 307.117 263.249 306.875C263.033 306.633 262.749 306.436 262.396 306.284C262.044 306.133 261.663 306 261.254 305.886L259.822 305.477C258.913 305.216 258.194 304.843 257.663 304.358C257.133 303.873 256.868 303.239 256.868 302.455C256.868 301.803 257.044 301.235 257.396 300.75C257.752 300.261 258.23 299.883 258.828 299.614C259.43 299.341 260.103 299.205 260.845 299.205C261.595 299.205 262.262 299.339 262.845 299.608C263.429 299.873 263.891 300.237 264.232 300.699C264.576 301.161 264.758 301.686 264.777 302.273H263.413ZM267.253 311V299.364H274.276V300.614H268.662V304.545H273.912V305.795H268.662V309.75H274.366V311H267.253ZM288.952 299.364H290.361V307.068C290.361 307.864 290.173 308.574 289.798 309.199C289.427 309.82 288.902 310.311 288.224 310.67C287.546 311.027 286.751 311.205 285.838 311.205C284.925 311.205 284.13 311.027 283.452 310.67C282.774 310.311 282.247 309.82 281.872 309.199C281.501 308.574 281.315 307.864 281.315 307.068V299.364H282.724V306.955C282.724 307.523 282.849 308.028 283.099 308.472C283.349 308.911 283.705 309.258 284.168 309.511C284.634 309.761 285.19 309.886 285.838 309.886C286.486 309.886 287.043 309.761 287.509 309.511C287.974 309.258 288.33 308.911 288.577 308.472C288.827 308.028 288.952 307.523 288.952 306.955V299.364ZM294.334 305.75V311H292.993V302.273H294.288V303.636H294.402C294.607 303.193 294.917 302.837 295.334 302.568C295.75 302.295 296.288 302.159 296.947 302.159C297.538 302.159 298.055 302.28 298.499 302.523C298.942 302.761 299.286 303.125 299.533 303.614C299.779 304.098 299.902 304.712 299.902 305.455V311H298.561V305.545C298.561 304.86 298.383 304.326 298.027 303.943C297.671 303.557 297.182 303.364 296.561 303.364C296.133 303.364 295.75 303.456 295.413 303.642C295.08 303.828 294.817 304.098 294.624 304.455C294.43 304.811 294.334 305.242 294.334 305.75ZM305.648 311.182C304.92 311.182 304.278 310.998 303.722 310.631C303.165 310.259 302.729 309.737 302.415 309.062C302.1 308.384 301.943 307.583 301.943 306.659C301.943 305.742 302.1 304.947 302.415 304.273C302.729 303.598 303.167 303.078 303.727 302.71C304.288 302.343 304.936 302.159 305.67 302.159C306.239 302.159 306.688 302.254 307.017 302.443C307.35 302.629 307.604 302.841 307.778 303.08C307.956 303.314 308.095 303.508 308.193 303.659H308.307V299.364H309.648V311H308.352V309.659H308.193C308.095 309.818 307.955 310.019 307.773 310.261C307.591 310.5 307.331 310.714 306.994 310.903C306.657 311.089 306.208 311.182 305.648 311.182ZM305.83 309.977C306.367 309.977 306.822 309.837 307.193 309.557C307.564 309.273 307.847 308.881 308.04 308.381C308.233 307.877 308.33 307.295 308.33 306.636C308.33 305.985 308.235 305.415 308.045 304.926C307.856 304.434 307.576 304.051 307.205 303.778C306.833 303.502 306.375 303.364 305.83 303.364C305.261 303.364 304.788 303.509 304.409 303.801C304.034 304.089 303.752 304.481 303.562 304.977C303.377 305.47 303.284 306.023 303.284 306.636C303.284 307.258 303.379 307.822 303.568 308.33C303.761 308.833 304.045 309.235 304.42 309.534C304.799 309.83 305.269 309.977 305.83 309.977ZM315.949 311.182C315.108 311.182 314.383 310.996 313.773 310.625C313.167 310.25 312.699 309.727 312.369 309.057C312.044 308.383 311.881 307.598 311.881 306.705C311.881 305.811 312.044 305.023 312.369 304.341C312.699 303.655 313.157 303.121 313.744 302.739C314.335 302.352 315.025 302.159 315.812 302.159C316.267 302.159 316.716 302.235 317.159 302.386C317.602 302.538 318.006 302.784 318.369 303.125C318.733 303.462 319.023 303.909 319.239 304.466C319.455 305.023 319.562 305.708 319.562 306.523V307.091H312.835V305.932H318.199C318.199 305.439 318.1 305 317.903 304.614C317.71 304.227 317.434 303.922 317.074 303.699C316.718 303.475 316.297 303.364 315.812 303.364C315.278 303.364 314.816 303.496 314.426 303.761C314.04 304.023 313.742 304.364 313.534 304.784C313.326 305.205 313.222 305.655 313.222 306.136V306.909C313.222 307.568 313.335 308.127 313.562 308.585C313.794 309.04 314.114 309.386 314.523 309.625C314.932 309.86 315.407 309.977 315.949 309.977C316.301 309.977 316.619 309.928 316.903 309.83C317.191 309.727 317.439 309.576 317.648 309.375C317.856 309.17 318.017 308.917 318.131 308.614L319.426 308.977C319.29 309.417 319.061 309.803 318.739 310.136C318.417 310.466 318.019 310.723 317.545 310.909C317.072 311.091 316.54 311.182 315.949 311.182ZM321.602 311V302.273H322.898V303.591H322.989C323.148 303.159 323.436 302.809 323.852 302.54C324.269 302.271 324.739 302.136 325.261 302.136C325.36 302.136 325.483 302.138 325.631 302.142C325.778 302.146 325.89 302.152 325.966 302.159V303.523C325.92 303.511 325.816 303.494 325.653 303.472C325.494 303.445 325.326 303.432 325.148 303.432C324.723 303.432 324.345 303.521 324.011 303.699C323.682 303.873 323.42 304.116 323.227 304.426C323.038 304.733 322.943 305.083 322.943 305.477V311H321.602ZM330.812 314.455C330.165 314.455 329.608 314.371 329.142 314.205C328.676 314.042 328.288 313.826 327.977 313.557C327.67 313.292 327.426 313.008 327.244 312.705L328.312 311.955C328.434 312.114 328.587 312.295 328.773 312.5C328.958 312.708 329.212 312.888 329.534 313.04C329.86 313.195 330.286 313.273 330.812 313.273C331.517 313.273 332.098 313.102 332.557 312.761C333.015 312.42 333.244 311.886 333.244 311.159V309.386H333.131C333.032 309.545 332.892 309.742 332.71 309.977C332.532 310.208 332.275 310.415 331.938 310.597C331.604 310.775 331.153 310.864 330.585 310.864C329.881 310.864 329.248 310.697 328.688 310.364C328.131 310.03 327.689 309.545 327.364 308.909C327.042 308.273 326.881 307.5 326.881 306.591C326.881 305.697 327.038 304.919 327.352 304.256C327.667 303.589 328.104 303.074 328.665 302.71C329.225 302.343 329.873 302.159 330.608 302.159C331.176 302.159 331.627 302.254 331.96 302.443C332.297 302.629 332.555 302.841 332.733 303.08C332.915 303.314 333.055 303.508 333.153 303.659H333.29V302.273H334.585V311.25C334.585 312 334.415 312.61 334.074 313.08C333.737 313.553 333.282 313.9 332.71 314.119C332.142 314.343 331.509 314.455 330.812 314.455ZM330.767 309.659C331.305 309.659 331.759 309.536 332.131 309.29C332.502 309.044 332.784 308.689 332.977 308.227C333.17 307.765 333.267 307.212 333.267 306.568C333.267 305.939 333.172 305.384 332.983 304.903C332.794 304.422 332.513 304.045 332.142 303.773C331.771 303.5 331.313 303.364 330.767 303.364C330.199 303.364 329.725 303.508 329.347 303.795C328.972 304.083 328.689 304.47 328.5 304.955C328.314 305.439 328.222 305.977 328.222 306.568C328.222 307.174 328.316 307.71 328.506 308.176C328.699 308.638 328.983 309.002 329.358 309.267C329.737 309.528 330.206 309.659 330.767 309.659ZM337.04 311V302.273H338.335V303.591H338.426C338.585 303.159 338.873 302.809 339.29 302.54C339.706 302.271 340.176 302.136 340.699 302.136C340.797 302.136 340.92 302.138 341.068 302.142C341.216 302.146 341.328 302.152 341.403 302.159V303.523C341.358 303.511 341.254 303.494 341.091 303.472C340.932 303.445 340.763 303.432 340.585 303.432C340.161 303.432 339.782 303.521 339.449 303.699C339.119 303.873 338.858 304.116 338.665 304.426C338.475 304.733 338.381 305.083 338.381 305.477V311H337.04ZM345.561 311.205C345.008 311.205 344.506 311.1 344.055 310.892C343.605 310.68 343.247 310.375 342.982 309.977C342.716 309.576 342.584 309.091 342.584 308.523C342.584 308.023 342.682 307.617 342.879 307.307C343.076 306.992 343.339 306.746 343.669 306.568C343.999 306.39 344.362 306.258 344.76 306.17C345.161 306.08 345.565 306.008 345.97 305.955C346.5 305.886 346.93 305.835 347.26 305.801C347.593 305.763 347.836 305.701 347.987 305.614C348.143 305.527 348.22 305.375 348.22 305.159V305.114C348.22 304.553 348.067 304.117 347.76 303.807C347.457 303.496 346.997 303.341 346.379 303.341C345.739 303.341 345.237 303.481 344.874 303.761C344.51 304.042 344.254 304.341 344.107 304.659L342.834 304.205C343.061 303.674 343.364 303.261 343.743 302.966C344.125 302.667 344.542 302.458 344.993 302.341C345.447 302.22 345.894 302.159 346.334 302.159C346.614 302.159 346.936 302.193 347.3 302.261C347.667 302.326 348.021 302.46 348.362 302.665C348.707 302.869 348.993 303.178 349.22 303.591C349.447 304.004 349.561 304.557 349.561 305.25V311H348.22V309.818H348.152C348.061 310.008 347.91 310.21 347.697 310.426C347.485 310.642 347.203 310.826 346.851 310.977C346.499 311.129 346.069 311.205 345.561 311.205ZM345.766 310C346.296 310 346.743 309.896 347.107 309.688C347.474 309.479 347.75 309.21 347.936 308.881C348.125 308.551 348.22 308.205 348.22 307.841V306.614C348.163 306.682 348.038 306.744 347.845 306.801C347.656 306.854 347.436 306.902 347.186 306.943C346.94 306.981 346.699 307.015 346.464 307.045C346.233 307.072 346.046 307.095 345.902 307.114C345.554 307.159 345.228 307.233 344.925 307.335C344.625 307.434 344.383 307.583 344.197 307.784C344.016 307.981 343.925 308.25 343.925 308.591C343.925 309.057 344.097 309.409 344.442 309.648C344.79 309.883 345.232 310 345.766 310ZM355.304 311.182C354.577 311.182 353.935 310.998 353.378 310.631C352.821 310.259 352.385 309.737 352.071 309.062C351.757 308.384 351.599 307.583 351.599 306.659C351.599 305.742 351.757 304.947 352.071 304.273C352.385 303.598 352.823 303.078 353.384 302.71C353.944 302.343 354.592 302.159 355.327 302.159C355.895 302.159 356.344 302.254 356.673 302.443C357.007 302.629 357.26 302.841 357.435 303.08C357.613 303.314 357.751 303.508 357.849 303.659H357.963V299.364H359.304V311H358.009V309.659H357.849C357.751 309.818 357.611 310.019 357.429 310.261C357.247 310.5 356.988 310.714 356.651 310.903C356.313 311.089 355.865 311.182 355.304 311.182ZM355.486 309.977C356.024 309.977 356.478 309.837 356.849 309.557C357.221 309.273 357.503 308.881 357.696 308.381C357.889 307.877 357.986 307.295 357.986 306.636C357.986 305.985 357.891 305.415 357.702 304.926C357.512 304.434 357.232 304.051 356.861 303.778C356.49 303.502 356.031 303.364 355.486 303.364C354.918 303.364 354.444 303.509 354.065 303.801C353.69 304.089 353.408 304.481 353.219 304.977C353.033 305.47 352.94 306.023 352.94 306.636C352.94 307.258 353.035 307.822 353.224 308.33C353.418 308.833 353.702 309.235 354.077 309.534C354.455 309.83 354.925 309.977 355.486 309.977ZM368.401 295.614V314.75H367.264V295.614H368.401ZM376.362 311V299.364H383.339V300.614H377.771V304.545H382.817V305.795H377.771V311H376.362ZM390.524 307.432V302.273H391.865V311H390.524V309.523H390.433C390.229 309.966 389.911 310.343 389.479 310.653C389.047 310.96 388.501 311.114 387.842 311.114C387.297 311.114 386.812 310.994 386.388 310.756C385.964 310.513 385.63 310.15 385.388 309.665C385.145 309.176 385.024 308.561 385.024 307.818V302.273H386.365V307.727C386.365 308.364 386.543 308.871 386.899 309.25C387.259 309.629 387.717 309.818 388.274 309.818C388.607 309.818 388.946 309.733 389.291 309.562C389.64 309.392 389.931 309.131 390.166 308.778C390.405 308.426 390.524 307.977 390.524 307.432ZM395.662 299.364V311H394.321V299.364H395.662ZM399.459 299.364V311H398.118V299.364H399.459ZM412.96 302.273C412.892 301.697 412.616 301.25 412.131 300.932C411.646 300.614 411.051 300.455 410.347 300.455C409.831 300.455 409.381 300.538 408.994 300.705C408.612 300.871 408.313 301.1 408.097 301.392C407.884 301.684 407.778 302.015 407.778 302.386C407.778 302.697 407.852 302.964 408 303.188C408.152 303.407 408.345 303.591 408.58 303.739C408.814 303.883 409.061 304.002 409.318 304.097C409.576 304.187 409.812 304.261 410.028 304.318L411.21 304.636C411.513 304.716 411.85 304.826 412.222 304.966C412.597 305.106 412.955 305.297 413.295 305.54C413.64 305.778 413.924 306.085 414.148 306.46C414.371 306.835 414.483 307.295 414.483 307.841C414.483 308.47 414.318 309.038 413.989 309.545C413.663 310.053 413.186 310.456 412.557 310.756C411.932 311.055 411.172 311.205 410.278 311.205C409.445 311.205 408.723 311.07 408.114 310.801C407.508 310.532 407.03 310.157 406.682 309.676C406.337 309.195 406.142 308.636 406.097 308H407.551C407.589 308.439 407.737 308.803 407.994 309.091C408.256 309.375 408.585 309.587 408.983 309.727C409.384 309.864 409.816 309.932 410.278 309.932C410.816 309.932 411.299 309.845 411.727 309.67C412.155 309.492 412.494 309.246 412.744 308.932C412.994 308.614 413.119 308.242 413.119 307.818C413.119 307.432 413.011 307.117 412.795 306.875C412.58 306.633 412.295 306.436 411.943 306.284C411.591 306.133 411.21 306 410.801 305.886L409.369 305.477C408.46 305.216 407.741 304.843 407.21 304.358C406.68 303.873 406.415 303.239 406.415 302.455C406.415 301.803 406.591 301.235 406.943 300.75C407.299 300.261 407.777 299.883 408.375 299.614C408.977 299.341 409.65 299.205 410.392 299.205C411.142 299.205 411.809 299.339 412.392 299.608C412.975 299.873 413.438 300.237 413.778 300.699C414.123 301.161 414.305 301.686 414.324 302.273H412.96ZM420.413 302.273V303.409H415.891V302.273H420.413ZM417.209 300.182H418.55V308.5C418.55 308.879 418.605 309.163 418.714 309.352C418.828 309.538 418.972 309.663 419.146 309.727C419.324 309.788 419.512 309.818 419.709 309.818C419.857 309.818 419.978 309.811 420.072 309.795C420.167 309.777 420.243 309.761 420.3 309.75L420.572 310.955C420.482 310.989 420.355 311.023 420.192 311.057C420.029 311.095 419.822 311.114 419.572 311.114C419.194 311.114 418.822 311.032 418.459 310.869C418.099 310.706 417.8 310.458 417.561 310.125C417.326 309.792 417.209 309.371 417.209 308.864V300.182ZM424.999 311.205C424.446 311.205 423.944 311.1 423.493 310.892C423.042 310.68 422.684 310.375 422.419 309.977C422.154 309.576 422.021 309.091 422.021 308.523C422.021 308.023 422.12 307.617 422.317 307.307C422.514 306.992 422.777 306.746 423.107 306.568C423.436 306.39 423.8 306.258 424.197 306.17C424.599 306.08 425.002 306.008 425.408 305.955C425.938 305.886 426.368 305.835 426.697 305.801C427.031 305.763 427.273 305.701 427.425 305.614C427.58 305.527 427.658 305.375 427.658 305.159V305.114C427.658 304.553 427.504 304.117 427.197 303.807C426.894 303.496 426.434 303.341 425.817 303.341C425.177 303.341 424.675 303.481 424.311 303.761C423.947 304.042 423.692 304.341 423.544 304.659L422.271 304.205C422.499 303.674 422.802 303.261 423.18 302.966C423.563 302.667 423.98 302.458 424.43 302.341C424.885 302.22 425.332 302.159 425.771 302.159C426.052 302.159 426.374 302.193 426.737 302.261C427.105 302.326 427.459 302.46 427.8 302.665C428.144 302.869 428.43 303.178 428.658 303.591C428.885 304.004 428.999 304.557 428.999 305.25V311H427.658V309.818H427.589C427.499 310.008 427.347 310.21 427.135 310.426C426.923 310.642 426.641 310.826 426.288 310.977C425.936 311.129 425.506 311.205 424.999 311.205ZM425.203 310C425.733 310 426.18 309.896 426.544 309.688C426.911 309.479 427.188 309.21 427.374 308.881C427.563 308.551 427.658 308.205 427.658 307.841V306.614C427.601 306.682 427.476 306.744 427.283 306.801C427.093 306.854 426.874 306.902 426.624 306.943C426.377 306.981 426.137 307.015 425.902 307.045C425.671 307.072 425.483 307.095 425.339 307.114C424.991 307.159 424.665 307.233 424.362 307.335C424.063 307.434 423.821 307.583 423.635 307.784C423.453 307.981 423.362 308.25 423.362 308.591C423.362 309.057 423.535 309.409 423.879 309.648C424.228 309.883 424.669 310 425.203 310ZM434.991 311.182C434.173 311.182 433.469 310.989 432.878 310.602C432.287 310.216 431.832 309.684 431.514 309.006C431.196 308.328 431.037 307.553 431.037 306.682C431.037 305.795 431.2 305.013 431.526 304.335C431.855 303.653 432.313 303.121 432.901 302.739C433.491 302.352 434.181 302.159 434.969 302.159C435.582 302.159 436.135 302.273 436.628 302.5C437.12 302.727 437.524 303.045 437.838 303.455C438.152 303.864 438.348 304.341 438.423 304.886H437.082C436.98 304.489 436.753 304.136 436.401 303.83C436.052 303.519 435.582 303.364 434.991 303.364C434.469 303.364 434.01 303.5 433.616 303.773C433.226 304.042 432.921 304.422 432.702 304.915C432.486 305.403 432.378 305.977 432.378 306.636C432.378 307.311 432.484 307.898 432.696 308.398C432.912 308.898 433.215 309.286 433.605 309.562C433.999 309.839 434.461 309.977 434.991 309.977C435.34 309.977 435.656 309.917 435.94 309.795C436.224 309.674 436.465 309.5 436.662 309.273C436.859 309.045 436.999 308.773 437.082 308.455H438.423C438.348 308.97 438.16 309.434 437.861 309.847C437.565 310.256 437.173 310.581 436.685 310.824C436.2 311.062 435.635 311.182 434.991 311.182ZM441.634 307.818L441.611 306.159H441.884L445.702 302.273H447.361L443.293 306.386H443.179L441.634 307.818ZM440.384 311V299.364H441.724V311H440.384ZM445.929 311L442.52 306.682L443.474 305.75L447.634 311H445.929ZM457.359 311H453.768V299.364H457.518C458.647 299.364 459.613 299.597 460.416 300.062C461.219 300.525 461.835 301.189 462.263 302.057C462.691 302.92 462.905 303.955 462.905 305.159C462.905 306.371 462.689 307.415 462.257 308.29C461.825 309.161 461.196 309.831 460.371 310.301C459.545 310.767 458.541 311 457.359 311ZM455.178 309.75H457.268C458.231 309.75 459.028 309.564 459.661 309.193C460.293 308.822 460.765 308.294 461.075 307.608C461.386 306.922 461.541 306.106 461.541 305.159C461.541 304.22 461.388 303.411 461.081 302.733C460.774 302.051 460.316 301.528 459.706 301.165C459.096 300.797 458.337 300.614 457.428 300.614H455.178V309.75ZM468.746 311.182C467.905 311.182 467.179 310.996 466.57 310.625C465.964 310.25 465.496 309.727 465.166 309.057C464.84 308.383 464.678 307.598 464.678 306.705C464.678 305.811 464.84 305.023 465.166 304.341C465.496 303.655 465.954 303.121 466.541 302.739C467.132 302.352 467.821 302.159 468.609 302.159C469.064 302.159 469.513 302.235 469.956 302.386C470.399 302.538 470.803 302.784 471.166 303.125C471.53 303.462 471.82 303.909 472.036 304.466C472.251 305.023 472.359 305.708 472.359 306.523V307.091H465.632V305.932H470.996C470.996 305.439 470.897 305 470.7 304.614C470.507 304.227 470.231 303.922 469.871 303.699C469.515 303.475 469.094 303.364 468.609 303.364C468.075 303.364 467.613 303.496 467.223 303.761C466.837 304.023 466.539 304.364 466.331 304.784C466.123 305.205 466.018 305.655 466.018 306.136V306.909C466.018 307.568 466.132 308.127 466.359 308.585C466.59 309.04 466.911 309.386 467.32 309.625C467.729 309.86 468.204 309.977 468.746 309.977C469.098 309.977 469.416 309.928 469.7 309.83C469.988 309.727 470.236 309.576 470.445 309.375C470.653 309.17 470.814 308.917 470.928 308.614L472.223 308.977C472.087 309.417 471.857 309.803 471.536 310.136C471.214 310.466 470.816 310.723 470.342 310.909C469.869 311.091 469.337 311.182 468.746 311.182ZM481.27 302.273L478.043 311H476.679L473.452 302.273H474.906L477.315 309.227H477.406L479.815 302.273H481.27ZM486.386 311.182C485.545 311.182 484.82 310.996 484.21 310.625C483.604 310.25 483.136 309.727 482.807 309.057C482.481 308.383 482.318 307.598 482.318 306.705C482.318 305.811 482.481 305.023 482.807 304.341C483.136 303.655 483.595 303.121 484.182 302.739C484.773 302.352 485.462 302.159 486.25 302.159C486.705 302.159 487.153 302.235 487.597 302.386C488.04 302.538 488.443 302.784 488.807 303.125C489.17 303.462 489.46 303.909 489.676 304.466C489.892 305.023 490 305.708 490 306.523V307.091H483.273V305.932H488.636C488.636 305.439 488.538 305 488.341 304.614C488.148 304.227 487.871 303.922 487.511 303.699C487.155 303.475 486.735 303.364 486.25 303.364C485.716 303.364 485.254 303.496 484.864 303.761C484.477 304.023 484.18 304.364 483.972 304.784C483.763 305.205 483.659 305.655 483.659 306.136V306.909C483.659 307.568 483.773 308.127 484 308.585C484.231 309.04 484.551 309.386 484.96 309.625C485.369 309.86 485.845 309.977 486.386 309.977C486.739 309.977 487.057 309.928 487.341 309.83C487.629 309.727 487.877 309.576 488.085 309.375C488.294 309.17 488.455 308.917 488.568 308.614L489.864 308.977C489.727 309.417 489.498 309.803 489.176 310.136C488.854 310.466 488.456 310.723 487.983 310.909C487.509 311.091 486.977 311.182 486.386 311.182ZM493.381 299.364V311H492.04V299.364H493.381ZM499.382 311.182C498.594 311.182 497.903 310.994 497.308 310.619C496.717 310.244 496.255 309.72 495.922 309.045C495.592 308.371 495.428 307.583 495.428 306.682C495.428 305.773 495.592 304.979 495.922 304.301C496.255 303.623 496.717 303.097 497.308 302.722C497.903 302.347 498.594 302.159 499.382 302.159C500.17 302.159 500.859 302.347 501.45 302.722C502.045 303.097 502.507 303.623 502.837 304.301C503.17 304.979 503.337 305.773 503.337 306.682C503.337 307.583 503.17 308.371 502.837 309.045C502.507 309.72 502.045 310.244 501.45 310.619C500.859 310.994 500.17 311.182 499.382 311.182ZM499.382 309.977C499.981 309.977 500.473 309.824 500.859 309.517C501.246 309.21 501.532 308.807 501.717 308.307C501.903 307.807 501.996 307.265 501.996 306.682C501.996 306.098 501.903 305.555 501.717 305.051C501.532 304.547 501.246 304.14 500.859 303.83C500.473 303.519 499.981 303.364 499.382 303.364C498.784 303.364 498.291 303.519 497.905 303.83C497.518 304.14 497.232 304.547 497.047 305.051C496.861 305.555 496.768 306.098 496.768 306.682C496.768 307.265 496.861 307.807 497.047 308.307C497.232 308.807 497.518 309.21 497.905 309.517C498.291 309.824 498.784 309.977 499.382 309.977ZM505.384 314.273V302.273H506.679V303.659H506.838C506.937 303.508 507.073 303.314 507.247 303.08C507.425 302.841 507.679 302.629 508.009 302.443C508.342 302.254 508.793 302.159 509.361 302.159C510.096 302.159 510.743 302.343 511.304 302.71C511.865 303.078 512.302 303.598 512.616 304.273C512.931 304.947 513.088 305.742 513.088 306.659C513.088 307.583 512.931 308.384 512.616 309.062C512.302 309.737 511.866 310.259 511.31 310.631C510.753 310.998 510.111 311.182 509.384 311.182C508.823 311.182 508.374 311.089 508.037 310.903C507.7 310.714 507.44 310.5 507.259 310.261C507.077 310.019 506.937 309.818 506.838 309.659H506.724V314.273H505.384ZM506.702 306.636C506.702 307.295 506.798 307.877 506.991 308.381C507.185 308.881 507.467 309.273 507.838 309.557C508.209 309.837 508.664 309.977 509.202 309.977C509.762 309.977 510.23 309.83 510.605 309.534C510.984 309.235 511.268 308.833 511.457 308.33C511.651 307.822 511.747 307.258 511.747 306.636C511.747 306.023 511.652 305.47 511.463 304.977C511.277 304.481 510.995 304.089 510.616 303.801C510.241 303.509 509.77 303.364 509.202 303.364C508.656 303.364 508.198 303.502 507.827 303.778C507.455 304.051 507.175 304.434 506.986 304.926C506.796 305.415 506.702 305.985 506.702 306.636ZM518.793 311.182C517.952 311.182 517.226 310.996 516.616 310.625C516.01 310.25 515.543 309.727 515.213 309.057C514.887 308.383 514.724 307.598 514.724 306.705C514.724 305.811 514.887 305.023 515.213 304.341C515.543 303.655 516.001 303.121 516.588 302.739C517.179 302.352 517.868 302.159 518.656 302.159C519.111 302.159 519.56 302.235 520.003 302.386C520.446 302.538 520.849 302.784 521.213 303.125C521.577 303.462 521.866 303.909 522.082 304.466C522.298 305.023 522.406 305.708 522.406 306.523V307.091H515.679V305.932H521.043C521.043 305.439 520.944 305 520.747 304.614C520.554 304.227 520.277 303.922 519.918 303.699C519.562 303.475 519.141 303.364 518.656 303.364C518.122 303.364 517.66 303.496 517.27 303.761C516.884 304.023 516.586 304.364 516.378 304.784C516.17 305.205 516.065 305.655 516.065 306.136V306.909C516.065 307.568 516.179 308.127 516.406 308.585C516.637 309.04 516.957 309.386 517.366 309.625C517.776 309.86 518.251 309.977 518.793 309.977C519.145 309.977 519.463 309.928 519.747 309.83C520.035 309.727 520.283 309.576 520.491 309.375C520.7 309.17 520.861 308.917 520.974 308.614L522.27 308.977C522.134 309.417 521.904 309.803 521.582 310.136C521.26 310.466 520.863 310.723 520.389 310.909C519.916 311.091 519.384 311.182 518.793 311.182ZM524.446 311V302.273H525.741V303.591H525.832C525.991 303.159 526.279 302.809 526.696 302.54C527.113 302.271 527.582 302.136 528.105 302.136C528.204 302.136 528.327 302.138 528.474 302.142C528.622 302.146 528.734 302.152 528.81 302.159V303.523C528.764 303.511 528.66 303.494 528.497 303.472C528.338 303.445 528.17 303.432 527.991 303.432C527.567 303.432 527.188 303.521 526.855 303.699C526.526 303.873 526.264 304.116 526.071 304.426C525.882 304.733 525.787 305.083 525.787 305.477V311H524.446ZM536.854 295.614V314.75H535.717V295.614H536.854ZM544.179 300.614V299.364H552.906V300.614H549.247V311H547.838V300.614H544.179ZM557.293 311.182C556.452 311.182 555.726 310.996 555.116 310.625C554.51 310.25 554.043 309.727 553.713 309.057C553.387 308.383 553.224 307.598 553.224 306.705C553.224 305.811 553.387 305.023 553.713 304.341C554.043 303.655 554.501 303.121 555.088 302.739C555.679 302.352 556.368 302.159 557.156 302.159C557.611 302.159 558.06 302.235 558.503 302.386C558.946 302.538 559.349 302.784 559.713 303.125C560.077 303.462 560.366 303.909 560.582 304.466C560.798 305.023 560.906 305.708 560.906 306.523V307.091H554.179V305.932H559.543C559.543 305.439 559.444 305 559.247 304.614C559.054 304.227 558.777 303.922 558.418 303.699C558.062 303.475 557.641 303.364 557.156 303.364C556.622 303.364 556.16 303.496 555.77 303.761C555.384 304.023 555.086 304.364 554.878 304.784C554.67 305.205 554.565 305.655 554.565 306.136V306.909C554.565 307.568 554.679 308.127 554.906 308.585C555.137 309.04 555.457 309.386 555.866 309.625C556.276 309.86 556.751 309.977 557.293 309.977C557.645 309.977 557.963 309.928 558.247 309.83C558.535 309.727 558.783 309.576 558.991 309.375C559.2 309.17 559.361 308.917 559.474 308.614L560.77 308.977C560.634 309.417 560.404 309.803 560.082 310.136C559.76 310.466 559.363 310.723 558.889 310.909C558.416 311.091 557.884 311.182 557.293 311.182ZM566.491 311.182C565.673 311.182 564.969 310.989 564.378 310.602C563.787 310.216 563.332 309.684 563.014 309.006C562.696 308.328 562.537 307.553 562.537 306.682C562.537 305.795 562.7 305.013 563.026 304.335C563.355 303.653 563.813 303.121 564.401 302.739C564.991 302.352 565.681 302.159 566.469 302.159C567.082 302.159 567.635 302.273 568.128 302.5C568.62 302.727 569.024 303.045 569.338 303.455C569.652 303.864 569.848 304.341 569.923 304.886H568.582C568.48 304.489 568.253 304.136 567.901 303.83C567.552 303.519 567.082 303.364 566.491 303.364C565.969 303.364 565.51 303.5 565.116 303.773C564.726 304.042 564.421 304.422 564.202 304.915C563.986 305.403 563.878 305.977 563.878 306.636C563.878 307.311 563.984 307.898 564.196 308.398C564.412 308.898 564.715 309.286 565.105 309.562C565.499 309.839 565.961 309.977 566.491 309.977C566.84 309.977 567.156 309.917 567.44 309.795C567.724 309.674 567.965 309.5 568.162 309.273C568.359 309.045 568.499 308.773 568.582 308.455H569.923C569.848 308.97 569.66 309.434 569.361 309.847C569.065 310.256 568.673 310.581 568.185 310.824C567.7 311.062 567.135 311.182 566.491 311.182ZM573.224 305.75V311H571.884V299.364H573.224V303.636H573.338C573.543 303.186 573.849 302.828 574.259 302.562C574.671 302.294 575.221 302.159 575.906 302.159C576.501 302.159 577.022 302.278 577.469 302.517C577.916 302.752 578.262 303.114 578.509 303.602C578.759 304.087 578.884 304.705 578.884 305.455V311H577.543V305.545C577.543 304.852 577.363 304.316 577.003 303.938C576.647 303.555 576.152 303.364 575.52 303.364C575.08 303.364 574.687 303.456 574.338 303.642C573.993 303.828 573.721 304.098 573.52 304.455C573.323 304.811 573.224 305.242 573.224 305.75ZM586.018 311V299.364H593.041V300.614H587.428V304.545H592.678V305.795H587.428V309.75H593.132V311H586.018ZM596.399 302.273L598.49 305.841L600.581 302.273H602.126L599.308 306.636L602.126 311H600.581L598.49 307.614L596.399 311H594.854L597.626 306.636L594.854 302.273H596.399ZM604.04 314.273V302.273H605.335V303.659H605.494C605.593 303.508 605.729 303.314 605.903 303.08C606.081 302.841 606.335 302.629 606.665 302.443C606.998 302.254 607.449 302.159 608.017 302.159C608.752 302.159 609.4 302.343 609.96 302.71C610.521 303.078 610.958 303.598 611.273 304.273C611.587 304.947 611.744 305.742 611.744 306.659C611.744 307.583 611.587 308.384 611.273 309.062C610.958 309.737 610.523 310.259 609.966 310.631C609.409 310.998 608.767 311.182 608.04 311.182C607.479 311.182 607.03 311.089 606.693 310.903C606.356 310.714 606.097 310.5 605.915 310.261C605.733 310.019 605.593 309.818 605.494 309.659H605.381V314.273H604.04ZM605.358 306.636C605.358 307.295 605.455 307.877 605.648 308.381C605.841 308.881 606.123 309.273 606.494 309.557C606.866 309.837 607.32 309.977 607.858 309.977C608.419 309.977 608.886 309.83 609.261 309.534C609.64 309.235 609.924 308.833 610.114 308.33C610.307 307.822 610.403 307.258 610.403 306.636C610.403 306.023 610.309 305.47 610.119 304.977C609.934 304.481 609.652 304.089 609.273 303.801C608.898 303.509 608.426 303.364 607.858 303.364C607.313 303.364 606.854 303.502 606.483 303.778C606.112 304.051 605.831 304.434 605.642 304.926C605.453 305.415 605.358 305.985 605.358 306.636ZM615.131 299.364V311H613.79V299.364H615.131ZM621.132 311.182C620.344 311.182 619.653 310.994 619.058 310.619C618.467 310.244 618.005 309.72 617.672 309.045C617.342 308.371 617.178 307.583 617.178 306.682C617.178 305.773 617.342 304.979 617.672 304.301C618.005 303.623 618.467 303.097 619.058 302.722C619.653 302.347 620.344 302.159 621.132 302.159C621.92 302.159 622.609 302.347 623.2 302.722C623.795 303.097 624.257 303.623 624.587 304.301C624.92 304.979 625.087 305.773 625.087 306.682C625.087 307.583 624.92 308.371 624.587 309.045C624.257 309.72 623.795 310.244 623.2 310.619C622.609 310.994 621.92 311.182 621.132 311.182ZM621.132 309.977C621.731 309.977 622.223 309.824 622.609 309.517C622.996 309.21 623.282 308.807 623.467 308.307C623.653 307.807 623.746 307.265 623.746 306.682C623.746 306.098 623.653 305.555 623.467 305.051C623.282 304.547 622.996 304.14 622.609 303.83C622.223 303.519 621.731 303.364 621.132 303.364C620.534 303.364 620.041 303.519 619.655 303.83C619.268 304.14 618.982 304.547 618.797 305.051C618.611 305.555 618.518 306.098 618.518 306.682C618.518 307.265 618.611 307.807 618.797 308.307C618.982 308.807 619.268 309.21 619.655 309.517C620.041 309.824 620.534 309.977 621.132 309.977ZM627.134 311V302.273H628.429V303.591H628.52C628.679 303.159 628.967 302.809 629.384 302.54C629.8 302.271 630.27 302.136 630.793 302.136C630.891 302.136 631.014 302.138 631.162 302.142C631.31 302.146 631.421 302.152 631.497 302.159V303.523C631.452 303.511 631.348 303.494 631.185 303.472C631.026 303.445 630.857 303.432 630.679 303.432C630.255 303.432 629.876 303.521 629.543 303.699C629.213 303.873 628.952 304.116 628.759 304.426C628.569 304.733 628.474 305.083 628.474 305.477V311H627.134ZM636.48 311.182C635.639 311.182 634.914 310.996 634.304 310.625C633.698 310.25 633.23 309.727 632.901 309.057C632.575 308.383 632.412 307.598 632.412 306.705C632.412 305.811 632.575 305.023 632.901 304.341C633.23 303.655 633.688 303.121 634.276 302.739C634.866 302.352 635.556 302.159 636.344 302.159C636.798 302.159 637.247 302.235 637.69 302.386C638.134 302.538 638.537 302.784 638.901 303.125C639.264 303.462 639.554 303.909 639.77 304.466C639.986 305.023 640.094 305.708 640.094 306.523V307.091H633.366V305.932H638.73C638.73 305.439 638.632 305 638.435 304.614C638.241 304.227 637.965 303.922 637.605 303.699C637.249 303.475 636.829 303.364 636.344 303.364C635.81 303.364 635.348 303.496 634.957 303.761C634.571 304.023 634.274 304.364 634.065 304.784C633.857 305.205 633.753 305.655 633.753 306.136V306.909C633.753 307.568 633.866 308.127 634.094 308.585C634.325 309.04 634.645 309.386 635.054 309.625C635.463 309.86 635.938 309.977 636.48 309.977C636.832 309.977 637.151 309.928 637.435 309.83C637.723 309.727 637.971 309.576 638.179 309.375C638.387 309.17 638.548 308.917 638.662 308.614L639.957 308.977C639.821 309.417 639.592 309.803 639.27 310.136C638.948 310.466 638.55 310.723 638.077 310.909C637.603 311.091 637.071 311.182 636.48 311.182ZM642.134 311V302.273H643.429V303.591H643.52C643.679 303.159 643.967 302.809 644.384 302.54C644.8 302.271 645.27 302.136 645.793 302.136C645.891 302.136 646.014 302.138 646.162 302.142C646.31 302.146 646.421 302.152 646.497 302.159V303.523C646.452 303.511 646.348 303.494 646.185 303.472C646.026 303.445 645.857 303.432 645.679 303.432C645.255 303.432 644.876 303.521 644.543 303.699C644.213 303.873 643.952 304.116 643.759 304.426C643.569 304.733 643.474 305.083 643.474 305.477V311H642.134Z" fill="white"/>
</g>
<defs>
<clipPath id="clip0_1_4">
<rect width="1086" height="622" fill="white"/>
</clipPath>
</defs>
</svg>
